<svg width="24" height="16" viewBox="0 0 24 16" fill="none" xmlns="http://www.w3.org/2000/svg">
<path d="M5.52718 5.85615C5.31718 6.03615 5.29218 6.35115 5.47018 6.56115L12.5522 14.8751C12.6482 14.9861 12.7862 15.0511 12.9332 15.0511C12.9382 15.0511 12.9432 15.0511 12.9492 15.0511C13.1002 15.0461 13.2422 14.9731 13.3332 14.8521L23.8982 0.801147C24.0642 0.580147 24.0202 0.267146 23.7992 0.101146C23.5772 -0.0648535 23.2642 -0.0228536 23.0992 0.200146L12.9092 13.7521L6.23218 5.91315C6.05218 5.70215 5.73518 5.67715 5.52718 5.85615Z" fill="url(#paint0_linear_176_43)"/>
<path d="M12.0285 9.47137L18.5475 0.801369C18.7135 0.580369 18.6695 0.267369 18.4485 0.101369C18.2265 -0.0656313 17.9135 -0.0186313 17.7485 0.200369L11.2295 8.87037C11.0635 9.09137 11.1075 9.40437 11.3285 9.57037C11.4195 9.63837 11.5245 9.67137 11.6295 9.67137C11.7805 9.67137 11.9315 9.60137 12.0285 9.47137Z" fill="url(#paint1_linear_176_43)"/>
<path d="M0.175622 5.85618C-0.034378 6.03618 -0.059378 6.35118 0.118622 6.56118L7.20062 14.8752C7.29662 14.9862 7.43462 15.0512 7.58162 15.0512C7.58662 15.0512 7.59162 15.0512 7.59762 15.0512C7.74862 15.0462 7.89062 14.9732 7.98162 14.8522L8.94862 13.5672C9.11462 13.3462 9.07062 13.0332 8.84962 12.8672C8.63062 12.7012 8.31462 12.7442 8.14962 12.9662L7.55762 13.7522L0.880622 5.91318C0.699622 5.70218 0.384622 5.67718 0.175622 5.85618Z" fill="url(#paint2_linear_176_43)"/>
<defs>
<linearGradient id="paint0_linear_176_43" x1="19.2719" y1="19.7787" x2="-1.44488" y2="13.6311" gradientUnits="userSpaceOnUse">
<stop stop-color="#FD4C69"/>
<stop offset="0.363056" stop-color="#DB082B" stop-opacity="0.8"/>
<stop offset="0.755208" stop-color="#FD4C69"/>
</linearGradient>
<linearGradient id="paint1_linear_176_43" x1="16.742" y1="12.7089" x2="7.95745" y2="11.0728" gradientUnits="userSpaceOnUse">
<stop stop-color="#FD4C69"/>
<stop offset="0.363056" stop-color="#DB082B" stop-opacity="0.8"/>
<stop offset="0.755208" stop-color="#FD4C69"/>
</linearGradient>
<linearGradient id="paint2_linear_176_43" x1="6.75531" y1="17.9768" x2="-3.6216" y2="15.5621" gradientUnits="userSpaceOnUse">
<stop stop-color="#FD4C69"/>
<stop offset="0.363056" stop-color="#DB082B" stop-opacity="0.8"/>
<stop offset="0.755208" stop-color="#FD4C69"/>
</linearGradient>
</defs>
</svg>
