<svg width="67" height="67" viewBox="0 0 67 67" fill="none" xmlns="http://www.w3.org/2000/svg">
<g clip-path="url(#clip0_159_351)">
<path d="M62.8095 61.7636C62.8095 62.3415 62.3406 62.8103 61.7626 62.8103C61.1848 62.8103 60.7159 62.3415 60.7159 61.7636V27.2188H38.7378C38.4216 27.2188 38.1381 27.0771 37.9462 26.8567L34.1185 23.0312H2.10155V40.5577V64.9042H33.5035H64.9032V30.3594C64.9032 29.7815 65.3722 29.3126 65.9499 29.3126C66.5278 29.3126 66.9968 29.7837 66.9968 30.3594V65.9248V65.9532C66.9968 66.529 66.5278 66.9999 65.9499 66.9999H33.5035H1.08303H1.05468C0.476737 66.9999 0.0078125 66.5311 0.0078125 65.9532V40.5577V22.0105V21.9844C0.0078125 21.4064 0.476737 20.9375 1.05468 20.9375H34.546V20.9419C34.8121 20.9419 35.078 21.0444 35.281 21.2451L39.1653 25.1251H61.7343H61.7604C62.3383 25.1251 62.8071 25.5962 62.8071 26.172V61.7636H62.8095Z" fill="url(#paint0_linear_159_351)"/>
<path d="M4.1953 17.7947C4.1953 18.3727 3.72638 18.8416 3.14843 18.8416C2.57049 18.8416 2.10156 18.3727 2.10156 17.7947V1.04687C2.10156 0.468924 2.57049 0 3.14843 0H3.17459H42.9211C43.499 0 43.9678 0.468924 43.9678 1.04687V1.07303V21.9822C43.9678 22.5601 43.499 23.0291 42.9211 23.0291C42.3431 23.0291 41.8743 22.5601 41.8743 21.9822V2.09374H4.1953V17.7947Z" fill="url(#paint1_linear_159_351)"/>
<path d="M11.5234 8.37732C10.9455 8.37732 10.4766 7.9084 10.4766 7.33045C10.4766 6.75251 10.9455 6.28369 11.5234 6.28369H34.5481C35.1261 6.28369 35.595 6.75481 35.595 7.33045C35.595 7.9084 35.1261 8.37732 34.5481 8.37732H11.5234Z" fill="url(#paint2_linear_159_351)"/>
<path d="M55.4844 8.37732C54.9064 8.37732 54.4375 7.9084 54.4375 7.33045C54.4375 6.75251 54.9064 6.28369 55.4844 6.28369H59.6718C60.2497 6.28369 60.7186 6.75481 60.7186 7.33045V7.3588V21.9824C60.7186 22.5603 60.2497 23.0292 59.6718 23.0292C59.0939 23.0292 58.6251 22.5603 58.6251 21.9824V8.37732H55.4844Z" fill="url(#paint3_linear_159_351)"/>
<path d="M11.5234 16.7544C10.9455 16.7544 10.4766 16.2855 10.4766 15.7075C10.4766 15.1296 10.9455 14.6606 11.5234 14.6606H34.5481C35.1261 14.6606 35.595 15.1296 35.595 15.7075C35.595 16.2855 35.1261 16.7544 34.5481 16.7544H11.5234Z" fill="url(#paint4_linear_159_351)"/>
<path d="M47.1013 6.28563C46.5235 6.28563 46.0547 5.81671 46.0547 5.23876C46.0547 4.66082 46.5235 4.19189 47.1013 4.19189H51.2932C51.8692 4.19189 52.3401 4.66082 52.3401 5.23876V5.26493V21.98C52.3401 22.558 51.8711 23.0269 51.2932 23.0269C50.7155 23.0269 50.2465 22.558 50.2465 21.98V6.28563H47.1013Z" fill="url(#paint5_linear_159_351)"/>
</g>
<defs>
<linearGradient id="paint0_linear_159_351" x1="50.0158" y1="81.4682" x2="-22.1992" y2="56.3129" gradientUnits="userSpaceOnUse">
<stop stop-color="#FD4C69"/>
<stop offset="0.363056" stop-color="#DB082B" stop-opacity="0.8"/>
<stop offset="0.755208" stop-color="#FD4C69"/>
</linearGradient>
<linearGradient id="paint1_linear_159_351" x1="33.3552" y1="30.2625" x2="-9.18704" y2="11.7377" gradientUnits="userSpaceOnUse">
<stop stop-color="#FD4C69"/>
<stop offset="0.363056" stop-color="#DB082B" stop-opacity="0.8"/>
<stop offset="0.755208" stop-color="#FD4C69"/>
</linearGradient>
<linearGradient id="paint2_linear_159_351" x1="29.2278" y1="9.03494" x2="25.948" y2="-0.389907" gradientUnits="userSpaceOnUse">
<stop stop-color="#FD4C69"/>
<stop offset="0.363056" stop-color="#DB082B" stop-opacity="0.8"/>
<stop offset="0.755208" stop-color="#FD4C69"/>
</linearGradient>
<linearGradient id="paint3_linear_159_351" x1="59.1264" y1="28.289" x2="51.5945" y2="27.6124" gradientUnits="userSpaceOnUse">
<stop stop-color="#FD4C69"/>
<stop offset="0.363056" stop-color="#DB082B" stop-opacity="0.8"/>
<stop offset="0.755208" stop-color="#FD4C69"/>
</linearGradient>
<linearGradient id="paint4_linear_159_351" x1="29.2278" y1="17.412" x2="25.9477" y2="7.9868" gradientUnits="userSpaceOnUse">
<stop stop-color="#FD4C69"/>
<stop offset="0.363056" stop-color="#DB082B" stop-opacity="0.8"/>
<stop offset="0.755208" stop-color="#FD4C69"/>
</linearGradient>
<linearGradient id="paint5_linear_159_351" x1="50.7468" y1="28.943" x2="43.1971" y2="28.3396" gradientUnits="userSpaceOnUse">
<stop stop-color="#FD4C69"/>
<stop offset="0.363056" stop-color="#DB082B" stop-opacity="0.8"/>
<stop offset="0.755208" stop-color="#FD4C69"/>
</linearGradient>
<clipPath id="clip0_159_351">
<rect width="67" height="67" fill="white"/>
</clipPath>
</defs>
</svg>
