<svg width="46" height="63" viewBox="0 0 46 63" fill="none" xmlns="http://www.w3.org/2000/svg">
<path d="M24.2222 27.5011C24.0458 27.1749 23.7878 26.9031 23.4748 26.7138C23.1619 26.5246 22.8055 26.4248 22.4425 26.4248C22.0795 26.4248 21.7231 26.5246 21.4102 26.7138C21.0973 26.9031 20.8392 27.1749 20.6628 27.5011L17.3092 33.7042L10.5359 35.067C10.1796 35.1387 9.84847 35.307 9.57674 35.5545C9.305 35.802 9.10255 36.1196 8.99034 36.4746C8.87814 36.8296 8.86026 37.209 8.93856 37.5734C9.01686 37.9379 9.18849 38.2742 9.43568 38.5476L14.1365 43.744L13.3038 50.7895C13.2601 51.1601 13.3135 51.5359 13.4585 51.8781C13.6036 52.2202 13.8349 52.5163 14.1286 52.7357C14.4223 52.955 14.7677 53.0897 15.1291 53.1256C15.4904 53.1616 15.8545 53.0976 16.1836 52.9402L22.4425 49.9487L28.7014 52.9402C29.0306 53.0976 29.3947 53.1616 29.756 53.1256C30.1174 53.0897 30.4628 52.955 30.7565 52.7356C31.0503 52.5162 31.2816 52.2201 31.4266 51.8779C31.5716 51.5356 31.625 51.1598 31.5812 50.7892L30.7485 43.7443L35.4488 38.5478C35.6962 38.2745 35.868 37.9383 35.9464 37.5738C36.0248 37.2093 36.007 36.8299 35.8949 36.4749C35.7827 36.1198 35.5803 35.8021 35.3085 35.5546C35.0367 35.3071 34.7055 35.1388 34.3493 35.0672L27.5758 33.7042L24.2222 27.5011ZM29.2572 42.3179C29.0552 42.5411 28.9031 42.807 28.8117 43.097C28.7202 43.387 28.6916 43.6941 28.7277 43.9967L29.5598 51.0415L23.3011 48.0496C23.0323 47.9211 22.7394 47.8545 22.443 47.8545C22.1466 47.8545 21.8537 47.9211 21.5849 48.0496L15.3257 51.041L16.1583 43.9965C16.1944 43.6938 16.1657 43.3867 16.0742 43.0966C15.9826 42.8065 15.8305 42.5406 15.6284 42.3174L10.9266 37.1219L17.6999 35.7591C17.9911 35.7009 18.2663 35.5778 18.5063 35.3986C18.7462 35.2193 18.9451 34.9882 19.0889 34.7214L22.4396 28.5135L22.4425 28.5184L25.7961 34.7214C25.9399 34.9882 26.1388 35.2193 26.3787 35.3986C26.6187 35.5778 26.8939 35.7009 27.1851 35.7591L33.9579 37.1219L29.2572 42.3179Z" fill="url(#paint0_linear_159_402)"/>
<path d="M45.7086 0.496324C45.6174 0.344568 45.4899 0.219312 45.3383 0.132447C45.1868 0.0455822 45.0161 -9.55496e-06 44.8426 7.04762e-09H28.5528C28.3637 -2.25483e-05 28.1784 0.0540959 28.0175 0.156291C27.8567 0.258487 27.7267 0.404721 27.6421 0.578608L22.4441 11.2682L17.2461 0.578608C17.1615 0.404721 17.0315 0.258487 16.8707 0.156291C16.7098 0.0540959 16.5245 -2.25483e-05 16.3354 7.04762e-09H0.0455768C-0.127986 -2.06985e-05 -0.298672 0.0455829 -0.450271 0.132479C-0.60187 0.219376 -0.729347 0.344681 -0.820596 0.496492C-0.911845 0.648303 -0.963835 0.82158 -0.971629 0.999865C-0.979423 1.17815 -0.942761 1.35553 -0.865127 1.51514L9.50478 22.8408C9.27278 23.2191 9.08432 23.6239 8.94319 24.0469C8.76618 24.602 8.46453 25.1064 8.06266 25.5192C7.66078 25.9321 7.16999 26.2418 6.63003 26.4233C5.49302 26.8064 4.50291 27.5493 3.80122 28.5459C3.09953 29.5424 2.72218 30.7415 2.72312 31.9718C2.72652 32.3657 2.76679 32.7583 2.84336 33.1443C2.89181 33.3995 2.91629 33.6589 2.91646 33.919C2.91874 34.8384 2.5911 35.7264 1.99628 36.4129C1.06797 37.4843 0.554911 38.869 0.554649 40.3039C0.554386 41.7388 1.06694 43.1238 1.99486 44.1955C2.59044 44.8821 2.91868 45.7706 2.91666 46.6906C2.91653 46.9507 2.89205 47.2101 2.84356 47.4653C2.7671 47.8513 2.72683 48.2439 2.72332 48.6378C2.72256 49.8685 3.10027 51.068 3.80246 52.0647C4.50465 53.0613 5.49534 53.8042 6.63288 54.187C7.17273 54.3689 7.6633 54.6791 8.06483 55.0923C8.46636 55.5055 8.76755 56.0102 8.944 56.5655C9.31658 57.7346 10.0391 58.7527 11.0082 59.4742C11.9774 60.1957 13.1435 60.5837 14.34 60.5828C14.7231 60.5793 15.1049 60.5379 15.4803 60.4591C16.0396 60.3426 16.6176 60.3606 17.1691 60.5117C17.7205 60.6628 18.2306 60.9429 18.6594 61.3301C19.7013 62.2847 21.048 62.8122 22.4435 62.8125C23.8389 62.8128 25.1859 62.2857 26.2281 61.3316C26.6572 60.9444 27.1673 60.6643 27.7188 60.5129C28.2704 60.3616 28.8484 60.3432 29.408 60.4591C29.7834 60.5378 30.1652 60.5792 30.5483 60.5828C31.7452 60.5835 32.9117 60.1952 33.881 59.4731C34.8503 58.7511 35.5727 57.7324 35.945 56.5628C36.1219 56.0077 36.4236 55.5032 36.8254 55.0904C37.2273 54.6775 37.7182 54.3678 38.2582 54.1864C39.3952 53.8033 40.3853 53.0603 41.087 52.0638C41.7887 51.0673 42.166 49.8682 42.1651 48.6379C42.1616 48.244 42.1213 47.8514 42.0448 47.4654C41.9964 47.2102 41.9719 46.9508 41.9717 46.6907C41.9697 45.7713 42.2973 44.8834 42.8919 44.1968C43.8202 43.1254 44.3333 41.7406 44.3335 40.3057C44.3338 38.8709 43.8213 37.4859 42.8933 36.4142C42.2977 35.7275 41.9694 34.8389 41.9715 33.9188C41.9716 33.6587 41.9961 33.3993 42.0446 33.1441C42.1212 32.7581 42.1614 32.3655 42.1649 31.9716C42.1656 30.7408 41.7879 29.5414 41.0857 28.5447C40.3836 27.548 39.3929 26.8052 38.2553 26.4224C37.7158 26.2406 37.2255 25.9308 36.8242 25.5179C36.4228 25.105 36.1217 24.6008 35.9451 24.046C35.8038 23.6233 35.6154 23.2189 35.3835 22.8409L45.7533 1.51514C45.8308 1.35545 45.8674 1.17806 45.8596 0.999767C45.8518 0.821473 45.7998 0.648186 45.7086 0.496324ZM1.69309 2.09375H15.706L21.3056 13.6094L18.4879 19.404C18.3808 19.4897 18.2689 19.5687 18.1527 19.6407C18.0592 19.7008 17.9707 19.7689 17.8721 19.8195C17.7246 19.89 17.5726 19.9502 17.4173 19.9996C17.3163 20.0349 17.2196 20.0812 17.1156 20.1074C16.9455 20.1449 16.7731 20.1701 16.5996 20.183C16.5015 20.1935 16.4062 20.2176 16.3068 20.22C16.0297 20.2277 15.7526 20.2043 15.4804 20.1502C15.105 20.0716 14.7232 20.0302 14.3401 20.0266C14.07 20.0291 13.8005 20.0518 13.5337 20.0946C13.4602 20.1057 13.3879 20.1199 13.3149 20.1339C13.1017 20.175 12.8909 20.2286 12.6836 20.2944C12.6293 20.3117 12.5741 20.325 12.5201 20.3439C12.2701 20.4321 12.0262 20.5378 11.7902 20.6603C11.7315 20.6908 11.6759 20.7263 11.6181 20.7589C11.4365 20.8612 11.2603 20.9734 11.0904 21.0952C11.0517 21.1229 11.0084 21.1429 10.9705 21.1716L1.69309 2.09375ZM37.6208 28.4122C38.3504 28.6579 38.9858 29.1344 39.4362 29.7737C39.8866 30.4129 40.1291 31.1822 40.1288 31.9716C40.1251 32.2319 40.0971 32.4913 40.0454 32.7463C39.9724 33.1326 39.9356 33.5252 39.9353 33.9188C39.9331 35.3545 40.4463 36.7406 41.3764 37.8113C41.9696 38.4987 42.2971 39.3858 42.2971 40.3048C42.2971 41.2237 41.9696 42.1108 41.3764 42.7982L41.3749 42.7998C40.4456 43.8703 39.933 45.2557 39.9353 46.6906C39.9355 47.0842 39.9723 47.4768 40.0452 47.8631C40.0968 48.118 40.1248 48.3774 40.1286 48.6378C40.1291 49.4267 39.8872 50.1956 39.4374 50.8347C38.9876 51.4738 38.353 51.9504 37.6241 52.1966C36.7805 52.4805 36.0137 52.9646 35.3859 53.6097C34.758 54.2549 34.2866 55.0429 34.0099 55.9101C33.7709 56.6603 33.3075 57.3137 32.6858 57.7768C32.0641 58.24 31.316 58.4892 30.5483 58.489C30.2951 58.4851 30.0428 58.4564 29.7949 58.4032C28.9267 58.2265 28.0306 58.2582 27.1763 58.4956C26.3219 58.733 25.5323 59.1698 24.8688 59.7721C24.1914 60.3636 23.3316 60.6882 22.4429 60.688C21.5541 60.6877 20.6945 60.3625 20.0174 59.7705C18.9764 58.8149 17.6291 58.2877 16.2336 58.29C15.8507 58.2903 15.4686 58.3281 15.0927 58.403C14.845 58.4562 14.593 58.4849 14.34 58.4888C13.5728 58.4893 12.825 58.2405 12.2035 57.778C11.582 57.3156 11.1184 56.663 10.879 55.9135C10.6029 55.0461 10.1321 54.2576 9.50464 53.612C8.87721 52.9664 8.11078 52.4817 7.26737 52.1972C6.5378 51.9515 5.90242 51.475 5.45199 50.8357C5.00156 50.1965 4.75914 49.4272 4.75935 48.6378C4.7632 48.3774 4.79115 48.118 4.84283 47.8631C4.9158 47.4768 4.95265 47.0842 4.95289 46.6906C4.95511 45.2549 4.44194 43.8688 3.51175 42.798C2.91836 42.1104 2.5908 41.2228 2.59108 40.3035C2.59136 39.3842 2.91947 38.4969 3.51328 37.8096C4.44258 36.7391 4.95517 35.3537 4.95289 33.9188C4.95269 33.525 4.9159 33.1322 4.84304 32.7456C4.79127 32.491 4.76331 32.2318 4.75955 31.9717C4.75907 31.1828 5.00099 30.4139 5.45078 29.7748C5.90056 29.1357 6.5352 28.6591 7.26411 28.4129C8.10791 28.1285 8.87478 27.6439 9.50267 26.9983C10.1306 26.3527 10.6019 25.5642 10.8784 24.6965C11.1184 23.9472 11.5822 23.2949 12.2037 22.8324C12.8252 22.3699 13.5727 22.1207 14.3399 22.1205C14.5931 22.1243 14.8454 22.1531 15.0933 22.2063C15.527 22.2929 15.9688 22.3287 16.4102 22.3132C16.426 22.3126 16.4414 22.3094 16.4572 22.3088C16.659 22.3009 16.8603 22.2822 17.0602 22.2528C17.0856 22.249 17.1101 22.2413 17.1354 22.2371C17.3237 22.2057 17.5107 22.1693 17.6943 22.1195C17.7459 22.1056 17.7951 22.0845 17.8463 22.0691C18.0016 22.0223 18.1568 21.9748 18.3072 21.9151C18.3768 21.8873 18.4425 21.8507 18.5108 21.8201C18.6389 21.763 18.7682 21.7083 18.8917 21.6415C18.9751 21.5964 19.0529 21.5413 19.1339 21.4919C19.237 21.4291 19.3426 21.3705 19.4418 21.3006C19.5378 21.233 19.6266 21.1545 19.7184 21.0807C19.7933 21.0203 19.8722 20.9656 19.944 20.9011L19.9535 20.8934C19.9759 20.876 19.9978 20.8572 20.0192 20.8377C20.6112 20.3228 21.3432 20.0081 22.1155 19.9364C22.8878 19.8647 23.6628 20.0395 24.3349 20.4371C24.5255 20.552 24.7045 20.6862 24.869 20.8377C25.5306 21.4433 26.3202 21.8823 27.1753 22.1198C28.0303 22.3574 28.9274 22.3871 29.7956 22.2066C30.0433 22.1534 30.2953 22.1247 30.5483 22.1208C31.3152 22.1214 32.0625 22.3706 32.6838 22.8329C33.3051 23.2953 33.7689 23.9472 34.0093 24.6961C34.2854 25.5635 34.7563 26.3518 35.3837 26.9974C36.0111 27.643 36.7775 28.1276 37.6208 28.4122ZM33.9183 21.1716C33.883 21.145 33.8427 21.1264 33.8069 21.1006C33.6317 20.9745 33.4498 20.8586 33.262 20.7535C33.2081 20.7232 33.1564 20.6901 33.1016 20.6618C32.8642 20.5383 32.6188 20.4318 32.3671 20.3432C32.3147 20.3248 32.2611 20.3118 32.2082 20.2952C31.9997 20.229 31.7877 20.1751 31.5731 20.1338C31.5002 20.1198 31.4284 20.1057 31.3549 20.0946C31.088 20.0518 30.8184 20.0291 30.5483 20.0267C30.1618 20.0304 29.7765 20.0725 29.3978 20.1523C28.84 20.2701 28.2632 20.2525 27.7131 20.1009C27.1631 19.9494 26.655 19.668 26.2291 19.2793C26.0053 19.077 25.7657 18.8939 25.5127 18.7319C25.44 18.6838 25.3682 18.6364 25.2937 18.5918C25.0637 18.4548 24.8247 18.3345 24.5785 18.2317C24.4727 18.1878 24.3647 18.154 24.2559 18.1166C24.0741 18.0538 23.8899 18.0008 23.7032 17.9576C23.6023 17.934 23.5042 17.9044 23.4017 17.8865C23.129 17.8406 22.8534 17.8148 22.5771 17.8093C22.5324 17.8083 22.4892 17.7969 22.4441 17.7969C22.4047 17.7969 22.3668 17.8068 22.3276 17.8073C22.0532 17.8092 21.7792 17.8319 21.508 17.8753L23.3548 14.0773L29.1822 2.09375H43.1951L33.9183 21.1716Z" fill="url(#paint1_linear_159_402)"/>
<defs>
<linearGradient id="paint0_linear_159_402" x1="29.1239" y1="61.5252" x2="-1.81223" y2="54.0062" gradientUnits="userSpaceOnUse">
<stop stop-color="#FD4C69"/>
<stop offset="0.363056" stop-color="#DB082B" stop-opacity="0.8"/>
<stop offset="0.755208" stop-color="#FD4C69"/>
</linearGradient>
<linearGradient id="paint1_linear_159_402" x1="33.9889" y1="82.542" x2="-20.8743" y2="72.7441" gradientUnits="userSpaceOnUse">
<stop stop-color="#FD4C69"/>
<stop offset="0.363056" stop-color="#DB082B" stop-opacity="0.8"/>
<stop offset="0.755208" stop-color="#FD4C69"/>
</linearGradient>
</defs>
</svg>
