<svg width="54" height="67" viewBox="0 0 54 67" fill="none" xmlns="http://www.w3.org/2000/svg">
<path d="M47.7907 64.7324H34.7199C34.3932 64.7324 34.0664 65.0417 34.0664 65.557C34.0664 66.0724 34.3115 66.3817 34.7199 66.3817H47.7907C48.1175 66.3817 48.4443 66.0724 48.4443 65.557C48.4443 65.0417 48.1175 64.7324 47.7907 64.7324Z" fill="url(#paint0_linear_159_383)"/>
<path d="M52.6897 64.7324H51.0559C50.7291 64.7324 50.4023 65.0417 50.4023 65.557C50.4023 66.0724 50.6474 66.3817 51.0559 66.3817H52.6897C53.0165 66.3817 53.3433 66.0724 53.3433 65.557C53.3433 65.0417 53.0165 64.7324 52.6897 64.7324Z" fill="url(#paint1_linear_159_383)"/>
<path d="M24.9153 6.49396H35.5353C35.862 6.49396 36.1888 6.18473 36.1888 5.66934C36.1888 5.15396 35.9437 4.84473 35.5353 4.84473H24.9153C24.5885 4.84473 24.2617 5.15396 24.2617 5.66934C24.2617 6.18473 24.5885 6.49396 24.9153 6.49396Z" fill="url(#paint2_linear_159_383)"/>
<path d="M38.802 6.49396H39.6189C39.9457 6.49396 40.2724 6.18473 40.2724 5.66934C40.2724 5.15396 40.0274 4.84473 39.6189 4.84473H38.802C38.4752 4.84473 38.1484 5.15396 38.1484 5.66934C38.1484 6.18473 38.4752 6.49396 38.802 6.49396Z" fill="url(#paint3_linear_159_383)"/>
<path d="M0.407445 4.43245H1.46944V5.77245C1.46944 6.18476 1.71452 6.59706 2.12298 6.59706C2.53144 6.59706 2.77652 6.28783 2.77652 5.77245V4.43245H3.83852C4.16529 4.43245 4.49206 4.12322 4.49206 3.60783C4.49206 3.09245 4.00191 2.8863 3.67514 2.8863H2.69483V1.5463C2.69483 1.13399 2.44975 0.72168 2.04129 0.72168C1.63283 0.72168 1.46944 1.13399 1.46944 1.5463V2.8863H0.407445C0.0806755 2.8863 -0.246094 3.19553 -0.246094 3.71091C-0.246094 4.22629 0.0806755 4.43245 0.407445 4.43245Z" fill="url(#paint4_linear_159_383)"/>
<path d="M51.7102 61.3308V9.79239C51.7102 9.38008 51.4651 8.96777 51.0567 8.96777H0.407445C0.0806755 8.96777 -0.246094 9.277 -0.246094 9.79239V61.3308C-0.246094 61.7432 -0.00101681 62.1555 0.407445 62.1555H51.0567C51.3834 62.1555 51.7102 61.7432 51.7102 61.3308ZM50.4848 17.317H19.0333V10.617H50.4848V17.317ZM1.06098 10.617H17.8079V17.317H1.06098V10.617ZM50.4848 60.6093H1.06098V18.8632H50.4848V60.6093Z" fill="url(#paint5_linear_159_383)"/>
<path d="M3.10156 22.1615V57.2077C3.10156 57.62 3.34664 58.0323 3.7551 58.0323H47.8689C48.1957 58.0323 48.5225 57.7231 48.5225 57.2077V22.1615C48.5225 21.7492 48.2774 21.3369 47.8689 21.3369H3.7551C3.34664 21.44 3.10156 21.7492 3.10156 22.1615ZM4.32695 22.9861H47.2154V56.4861H4.32695V22.9861Z" fill="url(#paint6_linear_159_383)"/>
<path d="M5.30911 14.9463C5.76028 14.9463 6.12603 14.4848 6.12603 13.9155C6.12603 13.3463 5.76028 12.8848 5.30911 12.8848C4.85794 12.8848 4.49219 13.3463 4.49219 13.9155C4.49219 14.4848 4.85794 14.9463 5.30911 14.9463Z" fill="url(#paint7_linear_159_383)"/>
<path d="M9.39505 14.9463C9.84622 14.9463 10.212 14.4848 10.212 13.9155C10.212 13.3463 9.84622 12.8848 9.39505 12.8848C8.94387 12.8848 8.57812 13.3463 8.57812 13.9155C8.57812 14.4848 8.94387 14.9463 9.39505 14.9463Z" fill="url(#paint8_linear_159_383)"/>
<path d="M13.4771 14.9463C13.9283 14.9463 14.294 14.4848 14.294 13.9155C14.294 13.3463 13.9283 12.8848 13.4771 12.8848C13.0259 12.8848 12.6602 13.3463 12.6602 13.9155C12.6602 14.4848 13.0259 14.9463 13.4771 14.9463Z" fill="url(#paint9_linear_159_383)"/>
<path d="M22.466 14.7401H46.9737C47.3005 14.7401 47.6273 14.4308 47.6273 13.9154C47.6273 13.4001 47.3822 13.0908 46.9737 13.0908H22.466C22.1393 13.0908 21.8125 13.4001 21.8125 13.9154C21.8125 14.4308 22.1393 14.7401 22.466 14.7401Z" fill="url(#paint10_linear_159_383)"/>
<path d="M34.7181 30.7168C32.5941 30.7168 30.7969 32.9845 30.7969 35.6645C30.7969 36.0768 31.042 36.4891 31.4504 36.4891C31.8589 36.4891 32.104 36.1799 32.104 35.6645C32.104 33.8091 33.3293 32.263 34.7998 32.263C35.1266 32.263 35.4533 31.9537 35.4533 31.4383C35.4533 30.923 35.1266 30.7168 34.7181 30.7168Z" fill="url(#paint11_linear_159_383)"/>
<path d="M40.2731 41.4366C42.6421 37.8289 42.4788 32.572 39.8646 29.1705C37.0871 25.6658 32.5123 25.6658 29.7348 29.1705C29.408 29.5828 29.0812 30.0981 28.7544 30.6135H6.9426C6.61583 30.6135 6.28906 30.9228 6.28906 31.4381V39.6843C6.28906 40.0966 6.53414 40.5089 6.9426 40.5089H28.6728C28.9178 41.0243 29.2446 41.5397 29.6531 42.0551C31.0418 43.8074 32.9208 44.7351 34.718 44.7351C36.3518 44.7351 37.9857 44.0135 39.3744 42.5705L44.1126 48.4458C44.1943 48.5489 44.3577 48.652 44.5211 48.652C44.6844 48.652 44.8478 48.5489 44.9295 48.4458C45.1746 48.1366 45.1746 47.6212 44.9295 47.312L40.2731 41.4366ZM7.59614 38.9628V32.2628H28.1009C27.4474 34.4274 27.4474 36.7981 28.1009 38.9628H7.59614ZM30.5517 40.9212C28.2643 38.0351 28.2643 33.1905 30.5517 30.3043C31.6954 28.8612 33.2475 28.1397 34.7997 28.1397C36.3518 28.1397 37.8223 28.8612 39.0477 30.3043C41.3351 33.1905 41.3351 38.0351 39.0477 40.9212C36.6786 43.8074 32.8391 43.8074 30.5517 40.9212Z" fill="url(#paint12_linear_159_383)"/>
<path d="M25.7321 45.1475H12.6614C12.3346 45.1475 12.0078 45.4567 12.0078 45.9721C12.0078 46.4875 12.2529 46.7967 12.6614 46.7967H25.7321C26.0589 46.7967 26.3857 46.4875 26.3857 45.9721C26.3857 45.4567 26.0589 45.1475 25.7321 45.1475Z" fill="url(#paint13_linear_159_383)"/>
<path d="M23.2837 49.2705H15.1145C14.7877 49.2705 14.4609 49.5797 14.4609 50.0951C14.4609 50.6105 14.706 50.9197 15.1145 50.9197H23.2837C23.6105 50.9197 23.9372 50.6105 23.9372 50.0951C23.9372 49.5797 23.6105 49.2705 23.2837 49.2705Z" fill="url(#paint14_linear_159_383)"/>
<defs>
<linearGradient id="paint0_linear_159_383" x1="44.7996" y1="66.8997" x2="41.5572" y2="60.1291" gradientUnits="userSpaceOnUse">
<stop stop-color="#FD4C69"/>
<stop offset="0.363056" stop-color="#DB082B" stop-opacity="0.8"/>
<stop offset="0.755208" stop-color="#FD4C69"/>
</linearGradient>
<linearGradient id="paint1_linear_159_383" x1="52.5978" y1="66.8997" x2="49.5912" y2="65.6155" gradientUnits="userSpaceOnUse">
<stop stop-color="#FD4C69"/>
<stop offset="0.363056" stop-color="#DB082B" stop-opacity="0.8"/>
<stop offset="0.755208" stop-color="#FD4C69"/>
</linearGradient>
<linearGradient id="paint2_linear_159_383" x1="33.1654" y1="7.01199" x2="29.5615" y2="0.769209" gradientUnits="userSpaceOnUse">
<stop stop-color="#FD4C69"/>
<stop offset="0.363056" stop-color="#DB082B" stop-opacity="0.8"/>
<stop offset="0.755208" stop-color="#FD4C69"/>
</linearGradient>
<linearGradient id="paint3_linear_159_383" x1="39.734" y1="7.01199" x2="37.3896" y2="6.28879" gradientUnits="userSpaceOnUse">
<stop stop-color="#FD4C69"/>
<stop offset="0.363056" stop-color="#DB082B" stop-opacity="0.8"/>
<stop offset="0.755208" stop-color="#FD4C69"/>
</linearGradient>
<linearGradient id="paint4_linear_159_383" x1="3.29099" y1="8.44254" x2="-2.23057" y2="7.37599" gradientUnits="userSpaceOnUse">
<stop stop-color="#FD4C69"/>
<stop offset="0.363056" stop-color="#DB082B" stop-opacity="0.8"/>
<stop offset="0.755208" stop-color="#FD4C69"/>
</linearGradient>
<linearGradient id="paint5_linear_159_383" x1="38.5399" y1="78.8618" x2="-21.0061" y2="64.9295" gradientUnits="userSpaceOnUse">
<stop stop-color="#FD4C69"/>
<stop offset="0.363056" stop-color="#DB082B" stop-opacity="0.8"/>
<stop offset="0.755208" stop-color="#FD4C69"/>
</linearGradient>
<linearGradient id="paint6_linear_159_383" x1="37.0088" y1="69.5584" x2="-13.4607" y2="54.5954" gradientUnits="userSpaceOnUse">
<stop stop-color="#FD4C69"/>
<stop offset="0.363056" stop-color="#DB082B" stop-opacity="0.8"/>
<stop offset="0.755208" stop-color="#FD4C69"/>
</linearGradient>
<linearGradient id="paint7_linear_159_383" x1="5.71187" y1="15.5938" x2="3.80554" y2="15.232" gradientUnits="userSpaceOnUse">
<stop stop-color="#FD4C69"/>
<stop offset="0.363056" stop-color="#DB082B" stop-opacity="0.8"/>
<stop offset="0.755208" stop-color="#FD4C69"/>
</linearGradient>
<linearGradient id="paint8_linear_159_383" x1="9.79781" y1="15.5938" x2="7.89148" y2="15.232" gradientUnits="userSpaceOnUse">
<stop stop-color="#FD4C69"/>
<stop offset="0.363056" stop-color="#DB082B" stop-opacity="0.8"/>
<stop offset="0.755208" stop-color="#FD4C69"/>
</linearGradient>
<linearGradient id="paint9_linear_159_383" x1="13.8798" y1="15.5938" x2="11.9735" y2="15.232" gradientUnits="userSpaceOnUse">
<stop stop-color="#FD4C69"/>
<stop offset="0.363056" stop-color="#DB082B" stop-opacity="0.8"/>
<stop offset="0.755208" stop-color="#FD4C69"/>
</linearGradient>
<linearGradient id="paint10_linear_159_383" x1="41.0835" y1="15.2581" x2="39.0109" y2="7.48756" gradientUnits="userSpaceOnUse">
<stop stop-color="#FD4C69"/>
<stop offset="0.363056" stop-color="#DB082B" stop-opacity="0.8"/>
<stop offset="0.755208" stop-color="#FD4C69"/>
</linearGradient>
<linearGradient id="paint11_linear_159_383" x1="34.273" y1="38.3022" x2="28.8467" y2="37.2537" gradientUnits="userSpaceOnUse">
<stop stop-color="#FD4C69"/>
<stop offset="0.363056" stop-color="#DB082B" stop-opacity="0.8"/>
<stop offset="0.755208" stop-color="#FD4C69"/>
</linearGradient>
<linearGradient id="paint12_linear_159_383" x1="35.2718" y1="55.5968" x2="-4.60556" y2="38.8247" gradientUnits="userSpaceOnUse">
<stop stop-color="#FD4C69"/>
<stop offset="0.363056" stop-color="#DB082B" stop-opacity="0.8"/>
<stop offset="0.755208" stop-color="#FD4C69"/>
</linearGradient>
<linearGradient id="paint13_linear_159_383" x1="22.741" y1="47.3147" x2="19.4986" y2="40.5442" gradientUnits="userSpaceOnUse">
<stop stop-color="#FD4C69"/>
<stop offset="0.363056" stop-color="#DB082B" stop-opacity="0.8"/>
<stop offset="0.755208" stop-color="#FD4C69"/>
</linearGradient>
<linearGradient id="paint14_linear_159_383" x1="21.5351" y1="51.4378" x2="17.577" y2="45.9904" gradientUnits="userSpaceOnUse">
<stop stop-color="#FD4C69"/>
<stop offset="0.363056" stop-color="#DB082B" stop-opacity="0.8"/>
<stop offset="0.755208" stop-color="#FD4C69"/>
</linearGradient>
</defs>
</svg>
