<svg width="53" height="67" viewBox="0 0 53 67" fill="none" xmlns="http://www.w3.org/2000/svg">
<g clip-path="url(#clip0_159_462)">
<path d="M4.16871 22.5155C3.94187 22.7137 3.88493 23.1073 4.04157 23.3943C4.19821 23.6814 4.5092 23.7535 4.73605 23.5552L26.4905 4.40134L48.2612 23.3477C48.4892 23.5446 48.8001 23.4704 48.9557 23.1819C49.1112 22.8934 49.0526 22.4999 48.8246 22.303L26.7999 3.13652C26.6316 2.96804 26.3896 2.95016 26.2041 3.11279L4.16871 22.5155Z" fill="url(#paint0_linear_159_462)"/>
<path d="M41.4623 62.5237L46.5965 62.5636V24.1186L26.4973 6.61665L6.40013 24.3217V62.5649H11.5344V28.4218C11.5344 28.0718 11.7586 27.788 12.0352 27.788H40.9614C41.238 27.788 41.4623 28.0718 41.4623 28.4218L41.4623 62.5237ZM47.0943 63.8302L41.0025 63.7828C40.989 63.7842 40.9753 63.785 40.9615 63.785C40.6849 63.785 40.4607 63.5012 40.4607 63.1512V29.0558H12.536V63.199C12.536 63.549 12.3117 63.8328 12.0352 63.8328H5.89927C5.62269 63.8328 5.39844 63.549 5.39844 63.199V23.9916C5.39855 23.7914 5.47349 23.5944 5.61316 23.4714L26.1892 5.34524C26.3568 5.18205 26.5949 5.16567 26.7785 5.32554L47.3465 23.2382C47.4968 23.3476 47.5981 23.5528 47.5981 23.788V63.1991C47.5964 63.5491 47.3708 63.8323 47.0943 63.8302Z" fill="url(#paint1_linear_159_462)"/>
<path d="M26.4983 13.1455C27.7016 13.1455 28.791 13.7628 29.5796 14.7608C30.3682 15.7588 30.8559 17.1375 30.8559 18.6603C30.8559 20.183 30.3681 21.5618 29.5796 22.5597C28.791 23.5577 27.7016 24.175 26.4983 24.175C25.295 24.175 24.2056 23.5577 23.417 22.5597C22.6284 21.5618 22.1406 20.183 22.1406 18.6603C22.1406 17.1375 22.6284 15.7588 23.417 14.7608C24.2056 13.7628 25.295 13.1455 26.4983 13.1455ZM28.8714 15.6571C28.2641 14.8885 27.4251 14.4131 26.4983 14.4131C25.5715 14.4131 24.7324 14.8885 24.1252 15.6571C23.5179 16.4255 23.1423 17.4874 23.1423 18.6603C23.1423 19.8331 23.5179 20.895 24.1252 21.6635C24.7324 22.432 25.5715 22.9074 26.4983 22.9074C27.4251 22.9074 28.2641 22.432 28.8714 21.6635C29.4786 20.895 29.8543 19.8331 29.8543 18.6603C29.8543 17.4874 29.4786 16.4255 28.8714 15.6571Z" fill="url(#paint2_linear_159_462)"/>
<path d="M13.9618 50.3623H23.6039H24.1047V50.9961V63.1985V63.8323H23.6039H13.9618H13.4609V63.1985V50.9961V50.3623H13.9618ZM23.1031 51.6299H14.4626V62.5647H23.1031V51.6299Z" fill="url(#paint3_linear_159_462)"/>
<path d="M25.5321 50.3623H35.1742H35.6751V50.9961V63.1985V63.8323H35.1742H25.5321H25.0312V63.1985V50.9961V50.3623H25.5321ZM34.6734 51.6299H26.0329V62.5647H34.6734V51.6299Z" fill="url(#paint4_linear_159_462)"/>
<path d="M14.4665 50.3626H23.107V39.4278H14.4665V50.3626ZM23.6078 51.6303H13.9657H13.4648V50.9965V38.794V38.1602H13.9657H23.6078H24.1086V38.794V50.9965V51.6303H23.6078Z" fill="url(#paint5_linear_159_462)"/>
</g>
<defs>
<linearGradient id="paint0_linear_159_462" x1="37.613" y1="30.1588" x2="-5.20082" y2="7.78577" gradientUnits="userSpaceOnUse">
<stop stop-color="#FD4C69"/>
<stop offset="0.363056" stop-color="#DB082B" stop-opacity="0.8"/>
<stop offset="0.755208" stop-color="#FD4C69"/>
</linearGradient>
<linearGradient id="paint1_linear_159_462" x1="36.901" y1="82.2452" x2="-12.6379" y2="73.7032" gradientUnits="userSpaceOnUse">
<stop stop-color="#FD4C69"/>
<stop offset="0.363056" stop-color="#DB082B" stop-opacity="0.8"/>
<stop offset="0.755208" stop-color="#FD4C69"/>
</linearGradient>
<linearGradient id="paint2_linear_159_462" x1="28.6467" y1="27.6394" x2="18.4758" y2="25.7145" gradientUnits="userSpaceOnUse">
<stop stop-color="#FD4C69"/>
<stop offset="0.363056" stop-color="#DB082B" stop-opacity="0.8"/>
<stop offset="0.755208" stop-color="#FD4C69"/>
</linearGradient>
<linearGradient id="paint3_linear_159_462" x1="21.4067" y1="68.0633" x2="8.98518" y2="65.7123" gradientUnits="userSpaceOnUse">
<stop stop-color="#FD4C69"/>
<stop offset="0.363056" stop-color="#DB082B" stop-opacity="0.8"/>
<stop offset="0.755208" stop-color="#FD4C69"/>
</linearGradient>
<linearGradient id="paint4_linear_159_462" x1="32.977" y1="68.0633" x2="20.5555" y2="65.7123" gradientUnits="userSpaceOnUse">
<stop stop-color="#FD4C69"/>
<stop offset="0.363056" stop-color="#DB082B" stop-opacity="0.8"/>
<stop offset="0.755208" stop-color="#FD4C69"/>
</linearGradient>
<linearGradient id="paint5_linear_159_462" x1="21.4106" y1="55.8613" x2="8.98907" y2="53.5103" gradientUnits="userSpaceOnUse">
<stop stop-color="#FD4C69"/>
<stop offset="0.363056" stop-color="#DB082B" stop-opacity="0.8"/>
<stop offset="0.755208" stop-color="#FD4C69"/>
</linearGradient>
<clipPath id="clip0_159_462">
<rect width="52.942" height="67" fill="white"/>
</clipPath>
</defs>
</svg>
