<svg width="66" height="67" viewBox="0 0 66 67" fill="none" xmlns="http://www.w3.org/2000/svg">
<path d="M64.9548 56.0939L59.7835 44.1021V11.8186C59.7827 10.8311 59.4018 9.88422 58.7242 9.18594C58.0467 8.48766 57.128 8.09503 56.1698 8.09425H46.9862C46.7248 8.09425 46.4742 8.20124 46.2894 8.39167C46.1047 8.58211 46.0009 8.84039 46.0009 9.10971C46.0009 9.37903 46.1047 9.63732 46.2894 9.82775C46.4742 10.0182 46.7248 10.1252 46.9862 10.1252H56.1812C56.6167 10.126 57.0342 10.3046 57.3422 10.622C57.6502 10.9394 57.8235 11.3697 57.8243 11.8186V43.3009H7.22733V11.8186C7.22733 11.3695 7.40044 10.9387 7.70858 10.6212C8.01672 10.3036 8.43464 10.1252 8.87042 10.1252H18.0655C18.3268 10.1252 18.5774 10.0182 18.7622 9.82775C18.9469 9.63732 19.0508 9.37903 19.0508 9.10971C19.0508 8.84039 18.9469 8.58211 18.7622 8.39167C18.5774 8.20124 18.3268 8.09425 18.0655 8.09425H8.87042C7.91225 8.09503 6.99353 8.48766 6.316 9.18594C5.63848 9.88422 5.25751 10.8311 5.25675 11.8186V44.1021L0.0854307 56.0939C0.0288956 56.2231 -0.000230371 56.3632 1.37212e-06 56.5048V63.2756C0.000755541 64.2631 0.381722 65.2099 1.05925 65.9082C1.73678 66.6065 2.65549 66.9991 3.61366 66.9999H61.4209C61.8958 67.0003 62.3661 66.9043 62.8051 66.7173C63.244 66.5303 63.6429 66.2561 63.979 65.9103C64.315 65.5644 64.5817 65.1538 64.7638 64.7017C64.9459 64.2496 65.0398 63.765 65.0402 63.2756V56.5048C65.0405 56.3632 65.0113 56.2231 64.9548 56.0939ZM6.87991 45.3347H58.1575L62.5371 55.4894H2.50023L6.87991 45.3347ZM61.4266 64.969H3.61366C3.17812 64.9682 2.76063 64.7895 2.45265 64.4721C2.14468 64.1547 1.97132 63.7244 1.97057 63.2756V57.5232H63.0697V63.2756C63.0689 63.7244 62.8955 64.1547 62.5876 64.4721C62.2796 64.7895 61.8621 64.9682 61.4266 64.969ZM16.1746 23.5639C15.7936 24.1656 15.5766 24.8619 15.5463 25.5797C15.5161 26.2976 15.6737 27.0106 16.0027 27.6441C16.3318 28.2776 16.82 28.8082 17.4164 29.1804C18.0128 29.5525 18.6953 29.7525 19.3925 29.7594H27.8215C28.0828 29.7594 28.3334 29.8664 28.5182 30.0568C28.703 30.2473 28.8068 30.5056 28.8068 30.7749C28.8068 31.0442 28.703 31.3025 28.5182 31.4929C28.3334 31.6833 28.0828 31.7903 27.8215 31.7903H19.3925C18.3391 31.7818 17.3074 31.4813 16.4055 30.9202C15.5037 30.3591 14.765 29.5583 14.267 28.6016C13.7689 27.6449 13.5299 26.5678 13.5749 25.4831C13.62 24.3984 13.9474 23.3462 14.523 22.4369L16.542 19.3172L14.9188 18.1961L20.2183 15.5018L19.8253 21.5653L18.1936 20.4442L16.1746 23.5639ZM22.0579 10.809L27.3374 2.64127C27.8762 1.82534 28.6004 1.15753 29.4468 0.695983C30.2933 0.23444 31.2364 -0.00683594 32.1941 -0.00683594C33.1517 -0.00683594 34.0948 0.23444 34.9413 0.695983C35.7878 1.15753 36.5119 1.82534 37.0507 2.64127L41.8604 10.0723L43.4949 8.9483L43.8537 15.0117L38.5799 12.3263L40.2116 11.2023L35.4105 3.77413C35.0574 3.2281 34.5789 2.78038 34.0175 2.47072C33.4562 2.16106 32.8293 1.99904 32.1926 1.99904C31.5559 1.99904 30.9291 2.16106 30.3677 2.47072C29.8064 2.78038 29.3279 3.2281 28.9748 3.77413L23.6953 11.936C23.5455 12.148 23.322 12.2921 23.0716 12.3381C22.8211 12.3841 22.5631 12.3284 22.3515 12.1828C22.1399 12.0372 21.9912 11.8129 21.9365 11.5568C21.8817 11.3007 21.9252 11.0328 22.0579 10.809ZM48.2135 23.5639L45.7161 19.7046C45.5835 19.4808 45.54 19.2128 45.5947 18.9568C45.6494 18.7007 45.7982 18.4764 46.0097 18.3308C46.2213 18.1851 46.4793 18.1295 46.7298 18.1755C46.9803 18.2215 47.2038 18.3656 47.3535 18.5776L49.8509 22.4369C50.4262 23.3439 50.7543 24.3936 50.8011 25.4762C50.8478 26.5587 50.6114 27.6343 50.1166 28.5904C49.6217 29.5465 48.8867 30.3479 47.9883 30.9109C47.0899 31.4738 46.0612 31.7776 45.0099 31.7903H37.4295V33.8154L32.3236 30.7749L37.4295 27.7373V29.7594H44.9928C45.6902 29.7531 46.3731 29.5534 46.9699 29.1815C47.5666 28.8095 48.0553 28.279 48.3847 27.6454C48.714 27.0118 48.8719 26.2986 48.8418 25.5805C48.8117 24.8624 48.5947 24.1658 48.2135 23.5639ZM35.8035 62.2601H29.2339C28.9726 62.2601 28.722 62.1531 28.5372 61.9627C28.3525 61.7722 28.2486 61.514 28.2486 61.2446C28.2486 60.9753 28.3525 60.717 28.5372 60.5266C28.722 60.3362 28.9726 60.2292 29.2339 60.2292H35.8035C36.0648 60.2292 36.3154 60.3362 36.5002 60.5266C36.6849 60.717 36.7887 60.9753 36.7887 61.2446C36.7887 61.514 36.6849 61.7722 36.5002 61.9627C36.3154 62.1531 36.0648 62.2601 35.8035 62.2601Z" fill="url(#paint0_linear_159_376)"/>
<defs>
<linearGradient id="paint0_linear_159_376" x1="48.5533" y1="88.0469" x2="-26.0369" y2="70.7052" gradientUnits="userSpaceOnUse">
<stop stop-color="#FD4C69"/>
<stop offset="0.363056" stop-color="#DB082B" stop-opacity="0.8"/>
<stop offset="0.755208" stop-color="#FD4C69"/>
</linearGradient>
</defs>
</svg>
