<svg width="66" height="67" viewBox="0 0 66 67" fill="none" xmlns="http://www.w3.org/2000/svg">
<path d="M11.7093 28.2656C13.1151 28.2656 14.2546 27.0939 14.2546 25.6484C14.2546 24.203 13.1151 23.0312 11.7093 23.0312C10.3036 23.0312 9.16406 24.203 9.16406 25.6484C9.16406 27.0939 10.3036 28.2656 11.7093 28.2656Z" stroke="url(#paint0_linear_159_419)" stroke-width="2" stroke-linecap="round" stroke-linejoin="round"/>
<path d="M56.1418 15.1796C56.1418 15.3182 56.1017 15.4527 56.0282 15.5658C55.9548 15.6788 55.8519 15.7647 55.7341 15.8148C55.6165 15.8649 55.488 15.8778 55.3641 15.8525C55.2402 15.8271 55.1243 15.7642 55.0321 15.6693L54.7359 15.9573L55.0321 15.6693C54.9397 15.5743 54.8752 15.4516 54.849 15.3159C54.8227 15.1803 54.8363 15.0398 54.8875 14.9128C54.9386 14.7859 55.0242 14.6797 55.1315 14.606C55.2385 14.5325 55.3629 14.4941 55.4889 14.4941C55.6574 14.4941 55.8221 14.5629 55.9456 14.69C56.0697 14.8175 56.1418 14.9934 56.1418 15.1796Z" fill="black" stroke="url(#paint1_linear_159_419)"/>
<path d="M46.5208 40.8281H5.40378C4.10641 40.8281 3.05469 41.9096 3.05469 43.2436V61.4439C3.05469 62.7779 4.10641 63.8594 5.40378 63.8594H46.5208C47.8181 63.8594 48.8699 62.7779 48.8699 61.4439V43.2436C48.8699 41.9096 47.8181 40.8281 46.5208 40.8281Z" stroke="url(#paint2_linear_159_419)" stroke-width="2" stroke-linecap="round" stroke-linejoin="round"/>
<path d="M39.706 57.5781H19.3438V60.7188H39.706V57.5781Z" stroke="url(#paint3_linear_159_419)" stroke-width="2" stroke-linecap="round" stroke-linejoin="round"/>
<path d="M45.8161 57.5781H42.7617V60.7188H45.8161V57.5781Z" stroke="url(#paint4_linear_159_419)" stroke-width="2" stroke-linecap="round" stroke-linejoin="round"/>
<path d="M39.7067 51.2969H36.6523V54.4375H39.7067V51.2969Z" stroke="url(#paint5_linear_159_419)" stroke-width="2" stroke-linecap="round" stroke-linejoin="round"/>
<path d="M33.5973 51.2969H30.543V54.4375H33.5973V51.2969Z" stroke="url(#paint6_linear_159_419)" stroke-width="2" stroke-linecap="round" stroke-linejoin="round"/>
<path d="M27.4879 51.2969H24.4336V54.4375H27.4879V51.2969Z" stroke="url(#paint7_linear_159_419)" stroke-width="2" stroke-linecap="round" stroke-linejoin="round"/>
<path d="M21.3818 51.2969H12.2188V54.4375H21.3818V51.2969Z" stroke="url(#paint8_linear_159_419)" stroke-width="2" stroke-linecap="round" stroke-linejoin="round"/>
<path d="M9.16372 51.2969H6.10938V54.4375H9.16372V51.2969Z" stroke="url(#paint9_linear_159_419)" stroke-width="2" stroke-linecap="round" stroke-linejoin="round"/>
<path d="M16.2905 57.5781H6.10938V60.7188H16.2905V57.5781Z" stroke="url(#paint10_linear_159_419)" stroke-width="2" stroke-linecap="round" stroke-linejoin="round"/>
<path d="M45.8161 51.2969H42.7617V54.4375H45.8161V51.2969Z" stroke="url(#paint11_linear_159_419)" stroke-width="2" stroke-linecap="round" stroke-linejoin="round"/>
<path d="M42.7617 45.0156H45.8161" stroke="url(#paint12_linear_159_419)" stroke-width="2" stroke-linecap="round" stroke-linejoin="round"/>
<path d="M36.6523 45.0156H39.7067" stroke="url(#paint13_linear_159_419)" stroke-width="2" stroke-linecap="round" stroke-linejoin="round"/>
<path d="M30.543 45.0156H33.5973" stroke="url(#paint14_linear_159_419)" stroke-width="2" stroke-linecap="round" stroke-linejoin="round"/>
<path d="M24.4336 45.0156H27.4879" stroke="url(#paint15_linear_159_419)" stroke-width="2" stroke-linecap="round" stroke-linejoin="round"/>
<path d="M18.3281 45.0156H21.3825" stroke="url(#paint16_linear_159_419)" stroke-width="2" stroke-linecap="round" stroke-linejoin="round"/>
<path d="M12.2188 45.0156H15.2731" stroke="url(#paint17_linear_159_419)" stroke-width="2" stroke-linecap="round" stroke-linejoin="round"/>
<path d="M6.10938 45.0156H9.16372" stroke="url(#paint18_linear_159_419)" stroke-width="2" stroke-linecap="round" stroke-linejoin="round"/>
<path d="M42.7617 48.1562H45.8161" stroke="url(#paint19_linear_159_419)" stroke-width="2" stroke-linecap="round" stroke-linejoin="round"/>
<path d="M36.6523 48.1562H39.7067" stroke="url(#paint20_linear_159_419)" stroke-width="2" stroke-linecap="round" stroke-linejoin="round"/>
<path d="M30.543 48.1562H33.5973" stroke="url(#paint21_linear_159_419)" stroke-width="2" stroke-linecap="round" stroke-linejoin="round"/>
<path d="M24.4336 48.1562H27.4879" stroke="url(#paint22_linear_159_419)" stroke-width="2" stroke-linecap="round" stroke-linejoin="round"/>
<path d="M18.3281 48.1562H21.3825" stroke="url(#paint23_linear_159_419)" stroke-width="2" stroke-linecap="round" stroke-linejoin="round"/>
<path d="M12.2188 48.1562H15.2731" stroke="url(#paint24_linear_159_419)" stroke-width="2" stroke-linecap="round" stroke-linejoin="round"/>
<path d="M6.10938 48.1562H9.16372" stroke="url(#paint25_linear_159_419)" stroke-width="2" stroke-linecap="round" stroke-linejoin="round"/>
<path d="M57.1172 43.9688H56.9155C54.1597 43.9688 51.9258 46.2658 51.9258 49.0994V54.5412C51.9258 57.3748 54.1597 59.6719 56.9155 59.6719H57.1172C59.873 59.6719 62.1069 57.3748 62.1069 54.5412V49.0994C62.1069 46.2658 59.873 43.9688 57.1172 43.9688Z" stroke="url(#paint26_linear_159_419)" stroke-width="2" stroke-linecap="round" stroke-linejoin="round"/>
<path d="M57.0156 49.2031V47.1094" stroke="url(#paint27_linear_159_419)" stroke-width="2" stroke-linecap="round" stroke-linejoin="round"/>
<path d="M26.4727 40.8281V38.7344C26.4727 37.9014 26.7945 37.1026 27.3673 36.5136C27.9401 35.9246 28.7169 35.5938 29.527 35.5938C30.3371 35.5937 31.1139 35.2629 31.6867 34.6739C32.2595 34.0849 32.5813 33.2861 32.5813 32.4531V27.2188" stroke="url(#paint28_linear_159_419)" stroke-width="2" stroke-linecap="round" stroke-linejoin="round"/>
<path d="M56.9127 43.9688V38.7344C56.9127 37.9014 56.5909 37.1026 56.0181 36.5136C55.4453 35.9246 54.6684 35.5938 53.8583 35.5938H41.7418C40.9318 35.5937 40.1549 35.2629 39.5821 34.6739C39.0093 34.0849 38.6875 33.2861 38.6875 32.4531V27.2188" stroke="url(#paint29_linear_159_419)" stroke-width="2" stroke-linecap="round" stroke-linejoin="round"/>
<path d="M45.7423 20.9375H25.38L23.3438 8.375H47.7785L45.7423 20.9375Z" stroke="url(#paint30_linear_159_419)" stroke-width="2" stroke-linecap="round" stroke-linejoin="round"/>
<path d="M42.6886 25.125C43.8132 25.125 44.7248 24.1876 44.7248 23.0312C44.7248 21.8749 43.8132 20.9375 42.6886 20.9375C41.564 20.9375 40.6523 21.8749 40.6523 23.0312C40.6523 24.1876 41.564 25.125 42.6886 25.125Z" stroke="url(#paint31_linear_159_419)" stroke-width="2" stroke-linecap="round" stroke-linejoin="round"/>
<path d="M28.4347 25.125C29.5592 25.125 30.4709 24.1876 30.4709 23.0312C30.4709 21.8749 29.5592 20.9375 28.4347 20.9375C27.3101 20.9375 26.3984 21.8749 26.3984 23.0312C26.3984 24.1876 27.3101 25.125 28.4347 25.125Z" stroke="url(#paint32_linear_159_419)" stroke-width="2" stroke-linecap="round" stroke-linejoin="round"/>
<path d="M19.2734 4.1875H22.3278L23.3459 8.375" stroke="url(#paint33_linear_159_419)" stroke-width="2" stroke-linecap="round" stroke-linejoin="round"/>
<path d="M38.7195 11.4844L33.6289 16.7188" stroke="url(#paint34_linear_159_419)" stroke-width="2" stroke-linecap="round" stroke-linejoin="round"/>
<path d="M34.79 12.0076C34.79 12.3994 34.4847 12.693 34.1372 12.693C33.7897 12.693 33.4844 12.3994 33.4844 12.0076C33.4844 11.6159 33.7897 11.3223 34.1372 11.3223C34.4847 11.3223 34.79 11.6159 34.79 12.0076Z" fill="black" stroke="url(#paint35_linear_159_419)"/>
<path d="M38.8642 16.1951C38.8642 16.5869 38.5589 16.8805 38.2114 16.8805C37.8639 16.8805 37.5586 16.5869 37.5586 16.1951C37.5586 15.8034 37.8639 15.5098 38.2114 15.5098C38.5589 15.5098 38.8642 15.8034 38.8642 16.1951Z" fill="black" stroke="url(#paint36_linear_159_419)"/>
<path d="M52.4844 25.1826L55.5387 28.3232" stroke="url(#paint37_linear_159_419)" stroke-width="2" stroke-linecap="round" stroke-linejoin="round"/>
<path d="M55.5387 25.1826L52.4844 28.3232" stroke="url(#paint38_linear_159_419)" stroke-width="2" stroke-linecap="round" stroke-linejoin="round"/>
<defs>
<linearGradient id="paint0_linear_159_419" x1="12.9642" y1="29.9098" x2="7.12737" y2="28.5501" gradientUnits="userSpaceOnUse">
<stop stop-color="#FD4C69"/>
<stop offset="0.363056" stop-color="#DB082B" stop-opacity="0.8"/>
<stop offset="0.755208" stop-color="#FD4C69"/>
</linearGradient>
<linearGradient id="paint1_linear_159_419" x1="56.0573" y1="17.1098" x2="53.4134" y2="16.494" gradientUnits="userSpaceOnUse">
<stop stop-color="#FD4C69"/>
<stop offset="0.363056" stop-color="#DB082B" stop-opacity="0.8"/>
<stop offset="0.755208" stop-color="#FD4C69"/>
</linearGradient>
<linearGradient id="paint2_linear_159_419" x1="37.2562" y1="71.0935" x2="-7.87918" y2="49.5878" gradientUnits="userSpaceOnUse">
<stop stop-color="#FD4C69"/>
<stop offset="0.363056" stop-color="#DB082B" stop-opacity="0.8"/>
<stop offset="0.755208" stop-color="#FD4C69"/>
</linearGradient>
<linearGradient id="paint3_linear_159_419" x1="34.5444" y1="61.7052" x2="27.3296" y2="50.501" gradientUnits="userSpaceOnUse">
<stop stop-color="#FD4C69"/>
<stop offset="0.363056" stop-color="#DB082B" stop-opacity="0.8"/>
<stop offset="0.755208" stop-color="#FD4C69"/>
</linearGradient>
<linearGradient id="paint4_linear_159_419" x1="45.0418" y1="61.7052" x2="41.5397" y2="60.8894" gradientUnits="userSpaceOnUse">
<stop stop-color="#FD4C69"/>
<stop offset="0.363056" stop-color="#DB082B" stop-opacity="0.8"/>
<stop offset="0.755208" stop-color="#FD4C69"/>
</linearGradient>
<linearGradient id="paint5_linear_159_419" x1="38.9324" y1="55.424" x2="35.4303" y2="54.6082" gradientUnits="userSpaceOnUse">
<stop stop-color="#FD4C69"/>
<stop offset="0.363056" stop-color="#DB082B" stop-opacity="0.8"/>
<stop offset="0.755208" stop-color="#FD4C69"/>
</linearGradient>
<linearGradient id="paint6_linear_159_419" x1="32.8231" y1="55.424" x2="29.321" y2="54.6082" gradientUnits="userSpaceOnUse">
<stop stop-color="#FD4C69"/>
<stop offset="0.363056" stop-color="#DB082B" stop-opacity="0.8"/>
<stop offset="0.755208" stop-color="#FD4C69"/>
</linearGradient>
<linearGradient id="paint7_linear_159_419" x1="26.7137" y1="55.424" x2="23.2116" y2="54.6082" gradientUnits="userSpaceOnUse">
<stop stop-color="#FD4C69"/>
<stop offset="0.363056" stop-color="#DB082B" stop-opacity="0.8"/>
<stop offset="0.755208" stop-color="#FD4C69"/>
</linearGradient>
<linearGradient id="paint8_linear_159_419" x1="19.0591" y1="55.424" x2="11.617" y2="50.2233" gradientUnits="userSpaceOnUse">
<stop stop-color="#FD4C69"/>
<stop offset="0.363056" stop-color="#DB082B" stop-opacity="0.8"/>
<stop offset="0.755208" stop-color="#FD4C69"/>
</linearGradient>
<linearGradient id="paint9_linear_159_419" x1="8.38948" y1="55.424" x2="4.88736" y2="54.6082" gradientUnits="userSpaceOnUse">
<stop stop-color="#FD4C69"/>
<stop offset="0.363056" stop-color="#DB082B" stop-opacity="0.8"/>
<stop offset="0.755208" stop-color="#FD4C69"/>
</linearGradient>
<linearGradient id="paint10_linear_159_419" x1="13.7097" y1="61.7052" x2="6.03169" y2="55.7435" gradientUnits="userSpaceOnUse">
<stop stop-color="#FD4C69"/>
<stop offset="0.363056" stop-color="#DB082B" stop-opacity="0.8"/>
<stop offset="0.755208" stop-color="#FD4C69"/>
</linearGradient>
<linearGradient id="paint11_linear_159_419" x1="45.0418" y1="55.424" x2="41.5397" y2="54.6082" gradientUnits="userSpaceOnUse">
<stop stop-color="#FD4C69"/>
<stop offset="0.363056" stop-color="#DB082B" stop-opacity="0.8"/>
<stop offset="0.755208" stop-color="#FD4C69"/>
</linearGradient>
<linearGradient id="paint12_linear_159_419" x1="45.0418" y1="46.3297" x2="42.6368" y2="44.5703" gradientUnits="userSpaceOnUse">
<stop stop-color="#FD4C69"/>
<stop offset="0.363056" stop-color="#DB082B" stop-opacity="0.8"/>
<stop offset="0.755208" stop-color="#FD4C69"/>
</linearGradient>
<linearGradient id="paint13_linear_159_419" x1="38.9324" y1="46.3297" x2="36.5275" y2="44.5703" gradientUnits="userSpaceOnUse">
<stop stop-color="#FD4C69"/>
<stop offset="0.363056" stop-color="#DB082B" stop-opacity="0.8"/>
<stop offset="0.755208" stop-color="#FD4C69"/>
</linearGradient>
<linearGradient id="paint14_linear_159_419" x1="32.8231" y1="46.3297" x2="30.4181" y2="44.5703" gradientUnits="userSpaceOnUse">
<stop stop-color="#FD4C69"/>
<stop offset="0.363056" stop-color="#DB082B" stop-opacity="0.8"/>
<stop offset="0.755208" stop-color="#FD4C69"/>
</linearGradient>
<linearGradient id="paint15_linear_159_419" x1="26.7137" y1="46.3297" x2="24.3087" y2="44.5703" gradientUnits="userSpaceOnUse">
<stop stop-color="#FD4C69"/>
<stop offset="0.363056" stop-color="#DB082B" stop-opacity="0.8"/>
<stop offset="0.755208" stop-color="#FD4C69"/>
</linearGradient>
<linearGradient id="paint16_linear_159_419" x1="20.6082" y1="46.3297" x2="18.2033" y2="44.5703" gradientUnits="userSpaceOnUse">
<stop stop-color="#FD4C69"/>
<stop offset="0.363056" stop-color="#DB082B" stop-opacity="0.8"/>
<stop offset="0.755208" stop-color="#FD4C69"/>
</linearGradient>
<linearGradient id="paint17_linear_159_419" x1="14.4989" y1="46.3297" x2="12.0939" y2="44.5703" gradientUnits="userSpaceOnUse">
<stop stop-color="#FD4C69"/>
<stop offset="0.363056" stop-color="#DB082B" stop-opacity="0.8"/>
<stop offset="0.755208" stop-color="#FD4C69"/>
</linearGradient>
<linearGradient id="paint18_linear_159_419" x1="8.38948" y1="46.3297" x2="5.9845" y2="44.5703" gradientUnits="userSpaceOnUse">
<stop stop-color="#FD4C69"/>
<stop offset="0.363056" stop-color="#DB082B" stop-opacity="0.8"/>
<stop offset="0.755208" stop-color="#FD4C69"/>
</linearGradient>
<linearGradient id="paint19_linear_159_419" x1="45.0418" y1="49.4704" x2="42.6368" y2="47.7109" gradientUnits="userSpaceOnUse">
<stop stop-color="#FD4C69"/>
<stop offset="0.363056" stop-color="#DB082B" stop-opacity="0.8"/>
<stop offset="0.755208" stop-color="#FD4C69"/>
</linearGradient>
<linearGradient id="paint20_linear_159_419" x1="38.9324" y1="49.4704" x2="36.5275" y2="47.7109" gradientUnits="userSpaceOnUse">
<stop stop-color="#FD4C69"/>
<stop offset="0.363056" stop-color="#DB082B" stop-opacity="0.8"/>
<stop offset="0.755208" stop-color="#FD4C69"/>
</linearGradient>
<linearGradient id="paint21_linear_159_419" x1="32.8231" y1="49.4704" x2="30.4181" y2="47.7109" gradientUnits="userSpaceOnUse">
<stop stop-color="#FD4C69"/>
<stop offset="0.363056" stop-color="#DB082B" stop-opacity="0.8"/>
<stop offset="0.755208" stop-color="#FD4C69"/>
</linearGradient>
<linearGradient id="paint22_linear_159_419" x1="26.7137" y1="49.4704" x2="24.3087" y2="47.7109" gradientUnits="userSpaceOnUse">
<stop stop-color="#FD4C69"/>
<stop offset="0.363056" stop-color="#DB082B" stop-opacity="0.8"/>
<stop offset="0.755208" stop-color="#FD4C69"/>
</linearGradient>
<linearGradient id="paint23_linear_159_419" x1="20.6082" y1="49.4704" x2="18.2033" y2="47.7109" gradientUnits="userSpaceOnUse">
<stop stop-color="#FD4C69"/>
<stop offset="0.363056" stop-color="#DB082B" stop-opacity="0.8"/>
<stop offset="0.755208" stop-color="#FD4C69"/>
</linearGradient>
<linearGradient id="paint24_linear_159_419" x1="14.4989" y1="49.4704" x2="12.0939" y2="47.7109" gradientUnits="userSpaceOnUse">
<stop stop-color="#FD4C69"/>
<stop offset="0.363056" stop-color="#DB082B" stop-opacity="0.8"/>
<stop offset="0.755208" stop-color="#FD4C69"/>
</linearGradient>
<linearGradient id="paint25_linear_159_419" x1="8.38948" y1="49.4704" x2="5.9845" y2="47.7109" gradientUnits="userSpaceOnUse">
<stop stop-color="#FD4C69"/>
<stop offset="0.363056" stop-color="#DB082B" stop-opacity="0.8"/>
<stop offset="0.755208" stop-color="#FD4C69"/>
</linearGradient>
<linearGradient id="paint26_linear_159_419" x1="59.5261" y1="64.6043" x2="47.5088" y2="62.738" gradientUnits="userSpaceOnUse">
<stop stop-color="#FD4C69"/>
<stop offset="0.363056" stop-color="#DB082B" stop-opacity="0.8"/>
<stop offset="0.755208" stop-color="#FD4C69"/>
</linearGradient>
<linearGradient id="paint27_linear_159_419" x1="57.7621" y1="49.8608" x2="56.5689" y2="49.7243" gradientUnits="userSpaceOnUse">
<stop stop-color="#FD4C69"/>
<stop offset="0.363056" stop-color="#DB082B" stop-opacity="0.8"/>
<stop offset="0.755208" stop-color="#FD4C69"/>
</linearGradient>
<linearGradient id="paint28_linear_159_419" x1="31.0329" y1="45.1029" x2="23.7329" y2="44.318" gradientUnits="userSpaceOnUse">
<stop stop-color="#FD4C69"/>
<stop offset="0.363056" stop-color="#DB082B" stop-opacity="0.8"/>
<stop offset="0.755208" stop-color="#FD4C69"/>
</linearGradient>
<linearGradient id="paint29_linear_159_419" x1="52.2928" y1="49.23" x2="31.663" y2="43.8535" gradientUnits="userSpaceOnUse">
<stop stop-color="#FD4C69"/>
<stop offset="0.363056" stop-color="#DB082B" stop-opacity="0.8"/>
<stop offset="0.755208" stop-color="#FD4C69"/>
</linearGradient>
<linearGradient id="paint30_linear_159_419" x1="41.5846" y1="24.8834" x2="17.315" y2="13.5766" gradientUnits="userSpaceOnUse">
<stop stop-color="#FD4C69"/>
<stop offset="0.363056" stop-color="#DB082B" stop-opacity="0.8"/>
<stop offset="0.755208" stop-color="#FD4C69"/>
</linearGradient>
<linearGradient id="paint31_linear_159_419" x1="43.6925" y1="26.4403" x2="39.023" y2="25.3526" gradientUnits="userSpaceOnUse">
<stop stop-color="#FD4C69"/>
<stop offset="0.363056" stop-color="#DB082B" stop-opacity="0.8"/>
<stop offset="0.755208" stop-color="#FD4C69"/>
</linearGradient>
<linearGradient id="paint32_linear_159_419" x1="29.4386" y1="26.4403" x2="24.7691" y2="25.3526" gradientUnits="userSpaceOnUse">
<stop stop-color="#FD4C69"/>
<stop offset="0.363056" stop-color="#DB082B" stop-opacity="0.8"/>
<stop offset="0.755208" stop-color="#FD4C69"/>
</linearGradient>
<linearGradient id="paint33_linear_159_419" x1="22.3136" y1="9.6903" x2="17.6441" y2="8.60258" gradientUnits="userSpaceOnUse">
<stop stop-color="#FD4C69"/>
<stop offset="0.363056" stop-color="#DB082B" stop-opacity="0.8"/>
<stop offset="0.755208" stop-color="#FD4C69"/>
</linearGradient>
<linearGradient id="paint34_linear_159_419" x1="37.4291" y1="18.3629" x2="31.5922" y2="17.0032" gradientUnits="userSpaceOnUse">
<stop stop-color="#FD4C69"/>
<stop offset="0.363056" stop-color="#DB082B" stop-opacity="0.8"/>
<stop offset="0.755208" stop-color="#FD4C69"/>
</linearGradient>
<linearGradient id="paint35_linear_159_419" x1="34.7055" y1="13.9377" x2="32.0619" y2="13.3219" gradientUnits="userSpaceOnUse">
<stop stop-color="#FD4C69"/>
<stop offset="0.363056" stop-color="#DB082B" stop-opacity="0.8"/>
<stop offset="0.755208" stop-color="#FD4C69"/>
</linearGradient>
<linearGradient id="paint36_linear_159_419" x1="38.7798" y1="18.1252" x2="36.1361" y2="17.5094" gradientUnits="userSpaceOnUse">
<stop stop-color="#FD4C69"/>
<stop offset="0.363056" stop-color="#DB082B" stop-opacity="0.8"/>
<stop offset="0.755208" stop-color="#FD4C69"/>
</linearGradient>
<linearGradient id="paint37_linear_159_419" x1="54.7645" y1="29.3097" x2="51.2624" y2="28.4939" gradientUnits="userSpaceOnUse">
<stop stop-color="#FD4C69"/>
<stop offset="0.363056" stop-color="#DB082B" stop-opacity="0.8"/>
<stop offset="0.755208" stop-color="#FD4C69"/>
</linearGradient>
<linearGradient id="paint38_linear_159_419" x1="54.7645" y1="29.3097" x2="51.2624" y2="28.4939" gradientUnits="userSpaceOnUse">
<stop stop-color="#FD4C69"/>
<stop offset="0.363056" stop-color="#DB082B" stop-opacity="0.8"/>
<stop offset="0.755208" stop-color="#FD4C69"/>
</linearGradient>
</defs>
</svg>
