<svg width="60" height="67" viewBox="0 0 60 67" fill="none" xmlns="http://www.w3.org/2000/svg">
<g clip-path="url(#clip0_159_363)">
<path d="M42.7031 41.655C42.379 41.2907 41.9516 41.0651 41.4948 41.0173C41.0381 40.9695 40.5809 41.1025 40.2023 41.3933L38.675 39.6777C38.5514 39.5489 38.3882 39.4789 38.2195 39.4824C38.0509 39.4859 37.89 39.5627 37.7708 39.6965C37.6515 39.8304 37.5831 40.0109 37.58 40.2002C37.5769 40.3895 37.6392 40.5727 37.754 40.7115L39.258 42.3983L37.7761 44.0628L35.0865 41.0426C37.0909 39.0326 38.6945 36.5699 39.7921 33.816C40.8897 31.0621 41.4566 28.0789 41.4557 25.062C41.4557 13.2258 32.876 3.60107 22.3353 3.60107C11.7946 3.60107 3.21486 13.231 3.21486 25.062C3.21033 29.56 4.46591 33.9458 6.804 37.5989C9.14208 41.252 12.4443 43.9875 16.2435 45.4185C16.3247 45.4498 16.4106 45.4628 16.4963 45.4567C16.5819 45.4506 16.6657 45.4255 16.7427 45.3829C16.8196 45.3403 16.8884 45.281 16.9448 45.2085C17.0013 45.1359 17.0445 45.0516 17.0718 44.9602C17.0991 44.8689 17.11 44.7724 17.1039 44.6763C17.0979 44.5802 17.0749 44.4864 17.0364 44.4003C16.9979 44.3142 16.9446 44.2375 16.8795 44.1746C16.8145 44.1118 16.739 44.064 16.6574 44.034C13.1147 42.7017 10.0351 40.1524 7.85448 36.7471C5.67383 33.3419 4.50263 29.253 4.50665 25.0594C4.50665 14.0293 12.5022 5.05492 22.3294 5.05492C32.1566 5.05492 40.1534 14.0293 40.1534 25.0594C40.1534 36.0895 32.1578 45.0678 22.3294 45.0678C21.9867 45.0678 21.6416 45.056 21.2976 45.0338L21.8503 43.9869C21.9303 43.8205 21.9497 43.6257 21.9046 43.4435C21.8594 43.2613 21.7531 43.1058 21.608 43.0096C21.463 42.9135 21.2903 42.8841 21.1264 42.9277C20.9624 42.9714 20.8199 43.0846 20.7287 43.2436L18.8015 46.9077C18.4294 47.5956 17.9062 48.1647 17.2819 48.5604C16.6576 48.9561 15.9532 49.1652 15.2362 49.1676H6.91419C6.74626 49.1756 6.58757 49.2561 6.47126 49.3923C6.35495 49.5285 6.29002 49.7098 6.29002 49.8985C6.29002 50.0871 6.35495 50.2685 6.47126 50.4047C6.58757 50.5409 6.74626 50.6213 6.91419 50.6293H15.2362C16.1784 50.6259 17.1041 50.3507 17.9242 49.83C18.7443 49.3094 19.4315 48.5608 19.9196 47.6562L20.5608 46.4379C21.1437 46.4981 21.7395 46.5308 22.3294 46.5308C26.5907 46.5357 30.7302 44.9353 34.085 41.9861L36.8831 45.1267C36.6248 45.5516 36.5068 46.0644 36.5493 46.5766C36.5919 47.0888 36.7924 47.5683 37.1163 47.9323L49.7439 62.107C50.4852 62.9399 51.491 63.4082 52.5399 63.4088C53.5889 63.4095 54.5951 62.9423 55.3372 62.1103C56.0793 61.2782 56.4965 60.1493 56.4971 58.972C56.4976 57.7946 56.0814 56.6652 55.3401 55.8323L42.7031 41.655ZM54.4132 61.0732C53.9157 61.6307 53.2415 61.9437 52.5385 61.9437C51.8355 61.9437 51.1613 61.6307 50.6638 61.0732L38.0326 46.8959C37.9083 46.7559 37.8385 46.5662 37.8385 46.3685C37.8385 46.1708 37.9083 45.9812 38.0326 45.8412L40.8424 42.6875C40.967 42.5476 41.136 42.4691 41.3122 42.4691C41.4885 42.4691 41.6575 42.5476 41.7821 42.6875L54.4132 56.8648C54.6594 57.1411 54.8547 57.4691 54.988 57.8302C55.1212 58.1912 55.1898 58.5782 55.1898 58.969C55.1898 59.3598 55.1212 59.7467 54.988 60.1078C54.8547 60.4688 54.6594 60.7969 54.4132 61.0732Z" fill="url(#paint0_linear_159_363)"/>
<path d="M13.5272 14.227L13.7288 14.0255C13.8587 13.8977 13.9381 13.7174 13.9494 13.524C13.9608 13.3306 13.9033 13.1401 13.7895 12.9943C13.6757 12.8485 13.515 12.7595 13.3427 12.7467C13.1704 12.7339 13.0006 12.7985 12.8708 12.9262C12.7961 12.9995 12.7227 13.0741 12.6492 13.1487C12.5862 13.2134 12.5351 13.2914 12.4988 13.3783C12.4626 13.4652 12.442 13.5592 12.4382 13.655C12.4343 13.7508 12.4473 13.8465 12.4764 13.9367C12.5056 14.0269 12.5502 14.1097 12.6079 14.1805C12.6655 14.2513 12.735 14.3087 12.8124 14.3493C12.8898 14.39 12.9736 14.4131 13.0589 14.4175C13.1443 14.4218 13.2296 14.4072 13.3099 14.3745C13.3903 14.3418 13.4641 14.2917 13.5272 14.227Z" fill="url(#paint1_linear_159_363)"/>
<path d="M10.742 16.7983C10.5921 16.7022 10.4144 16.6768 10.2479 16.7276C10.0813 16.7784 9.93952 16.9012 9.85357 17.0692C8.16054 20.4012 7.58249 24.302 8.22342 28.0698C8.86436 31.8375 10.6822 35.2249 13.3499 37.6224C16.0176 40.0199 19.36 41.2702 22.7757 41.1482C26.1915 41.0263 29.4563 39.5402 31.9829 36.9573C34.5095 34.3744 36.1319 30.8642 36.5583 27.0584C36.9846 23.2525 36.1869 19.4008 34.3087 16.1963C32.4304 12.9917 29.5949 10.6447 26.3124 9.57743C23.0299 8.51019 19.5157 8.7928 16.4023 10.3744C16.3245 10.414 16.2543 10.4705 16.1959 10.5405C16.1375 10.6105 16.0919 10.6928 16.0618 10.7826C16.0317 10.8724 16.0177 10.968 16.0205 11.0639C16.0233 11.1598 16.0429 11.2541 16.0782 11.3415C16.1135 11.4289 16.1638 11.5076 16.2262 11.5732C16.2886 11.6387 16.3619 11.6899 16.4419 11.7237C16.5219 11.7574 16.607 11.7732 16.6924 11.77C16.7779 11.7669 16.8619 11.7449 16.9398 11.7053C18.6314 10.8397 20.4693 10.3934 22.3285 10.3967C25.1998 10.3967 27.991 11.4589 30.2702 13.419C32.5495 15.3791 34.1895 18.1278 34.9366 21.2395C35.6837 24.3513 35.4961 27.6528 34.403 30.6328C33.3098 33.6129 31.372 36.1055 28.8894 37.7248C26.4069 39.3441 23.518 39.9998 20.6699 39.5905C17.8219 39.1811 15.1734 37.7295 13.1345 35.4604C11.0956 33.1912 9.77986 30.231 9.39098 27.0379C9.0021 23.8448 9.56175 20.5969 10.9833 17.7968C11.0259 17.7134 11.0534 17.6215 11.0643 17.5262C11.0752 17.4309 11.0693 17.3342 11.0469 17.2414C11.0245 17.1487 10.986 17.0619 10.9337 16.9858C10.8814 16.9098 10.8162 16.8461 10.742 16.7983Z" fill="url(#paint2_linear_159_363)"/>
<path d="M14.0577 57.5309H6.67885C6.51093 57.5389 6.35224 57.6194 6.23593 57.7556C6.11962 57.8918 6.05469 58.0731 6.05469 58.2618C6.05469 58.4504 6.11962 58.6318 6.23593 58.768C6.35224 58.9042 6.51093 58.9846 6.67885 58.9926H14.0577C14.1455 58.9968 14.2332 58.981 14.3154 58.9461C14.3977 58.9113 14.4728 58.8581 14.5362 58.7899C14.5997 58.7216 14.6502 58.6396 14.6847 58.5488C14.7192 58.4581 14.737 58.3604 14.737 58.2618C14.737 58.1631 14.7192 58.0655 14.6847 57.9747C14.6502 57.884 14.5997 57.802 14.5362 57.7337C14.4728 57.6654 14.3977 57.6123 14.3154 57.5774C14.2332 57.5426 14.1455 57.5268 14.0577 57.5309Z" fill="url(#paint3_linear_159_363)"/>
<path d="M16.3451 53.2129H12.7052C12.5327 53.2129 12.3672 53.2898 12.2452 53.4268C12.1232 53.5637 12.0547 53.7494 12.0547 53.9431C12.0547 54.1367 12.1232 54.3225 12.2452 54.4594C12.3672 54.5963 12.5327 54.6733 12.7052 54.6733H16.3509C16.5235 54.6733 16.689 54.5963 16.811 54.4594C16.933 54.3225 17.0015 54.1367 17.0015 53.9431C17.0015 53.7494 16.933 53.5637 16.811 53.4268C16.689 53.2898 16.5235 53.2129 16.3509 53.2129H16.3451Z" fill="url(#paint4_linear_159_363)"/>
<path d="M6.68181 54.6733H10.3776C10.5502 54.6733 10.7157 54.5963 10.8377 54.4594C10.9597 54.3225 11.0282 54.1367 11.0282 53.9431C11.0282 53.7494 10.9597 53.5637 10.8377 53.4268C10.7157 53.2898 10.5502 53.2129 10.3776 53.2129H6.68181C6.50927 53.2129 6.3438 53.2898 6.22179 53.4268C6.09979 53.5637 6.03125 53.7494 6.03125 53.9431C6.03125 54.1367 6.09979 54.3225 6.22179 54.4594C6.3438 54.5963 6.50927 54.6733 6.68181 54.6733Z" fill="url(#paint5_linear_159_363)"/>
<path d="M22.3282 17.2275C22.2427 17.2275 22.158 17.2465 22.079 17.2832C21.9999 17.32 21.9282 17.3739 21.8678 17.4419C21.8073 17.5098 21.7594 17.5905 21.7268 17.6792C21.6942 17.768 21.6775 17.863 21.6776 17.959V19.1054C20.8262 19.1561 20.026 19.5773 19.4467 20.2795C18.8675 20.9817 18.5548 21.9097 18.5752 22.8664C18.5955 23.8231 18.9472 24.7332 19.5556 25.4036C20.164 26.074 20.9813 26.4519 21.8339 26.4571H22.8237C23.3326 26.4598 23.8209 26.6829 24.187 27.0797C24.553 27.4765 24.7685 28.0166 24.7887 28.5873C24.8088 29.1581 24.632 29.7156 24.2951 30.1436C23.9581 30.5717 23.487 30.8374 22.9799 30.8853V28.7746C22.9728 28.5861 22.9011 28.408 22.7798 28.2774C22.6584 28.1469 22.4968 28.074 22.3288 28.074C22.1607 28.074 21.9991 28.1469 21.8778 28.2774C21.7564 28.408 21.6847 28.5861 21.6776 28.7746V30.8984H20.1818C20.0093 30.8984 19.8438 30.9754 19.7218 31.1123C19.5998 31.2492 19.5312 31.435 19.5312 31.6286C19.5312 31.8223 19.5998 32.008 19.7218 32.1449C19.8438 32.2819 20.0093 32.3588 20.1818 32.3588H21.6776V33.4999C21.6847 33.6884 21.7564 33.8665 21.8778 33.997C21.9991 34.1276 22.1607 34.2005 22.3288 34.2005C22.4968 34.2005 22.6584 34.1276 22.7798 33.997C22.9011 33.8665 22.9728 33.6884 22.9799 33.4999V32.3483C23.8211 32.3047 24.6149 31.8989 25.1964 31.2153C25.7779 30.5317 26.1024 29.6229 26.1024 28.6777C26.1024 27.7326 25.7779 26.8238 25.1964 26.1402C24.6149 25.4566 23.8211 25.0508 22.9799 25.0071V22.882C22.9836 22.7834 22.9695 22.685 22.9385 22.5927C22.9074 22.5004 22.8601 22.4161 22.7992 22.3448C22.7384 22.2736 22.6654 22.2169 22.5845 22.1782C22.5037 22.1395 22.4167 22.1195 22.3288 22.1195C22.2409 22.1195 22.1539 22.1395 22.073 22.1782C21.9922 22.2169 21.9191 22.2736 21.8583 22.3448C21.7975 22.4161 21.7501 22.5004 21.719 22.5927C21.688 22.685 21.6739 22.7834 21.6776 22.882V24.994C21.1705 24.9461 20.6994 24.6804 20.3625 24.2524C20.0255 23.8243 19.8487 23.2668 19.8689 22.696C19.889 22.1253 20.1045 21.5852 20.4706 21.1884C20.8366 20.7916 21.3249 20.5685 21.8339 20.5658H24.4757C24.6483 20.5658 24.8137 20.4888 24.9357 20.3519C25.0577 20.215 25.1263 20.0292 25.1263 19.8356C25.1263 19.6419 25.0577 19.4562 24.9357 19.3192C24.8137 19.1823 24.6483 19.1054 24.4757 19.1054H22.9799V17.963C22.9804 17.8666 22.9639 17.771 22.9313 17.6818C22.8988 17.5926 22.8508 17.5115 22.7903 17.4432C22.7297 17.3748 22.6577 17.3206 22.5784 17.2836C22.4991 17.2466 22.4141 17.2275 22.3282 17.2275Z" fill="url(#paint6_linear_159_363)"/>
</g>
<defs>
<linearGradient id="paint0_linear_159_363" x1="42.9906" y1="82.1946" x2="-18.6129" y2="69.0491" gradientUnits="userSpaceOnUse">
<stop stop-color="#FD4C69"/>
<stop offset="0.363056" stop-color="#DB082B" stop-opacity="0.8"/>
<stop offset="0.755208" stop-color="#FD4C69"/>
</linearGradient>
<linearGradient id="paint1_linear_159_363" x1="13.5672" y1="14.9437" x2="11.8199" y2="14.5651" gradientUnits="userSpaceOnUse">
<stop stop-color="#FD4C69"/>
<stop offset="0.363056" stop-color="#DB082B" stop-opacity="0.8"/>
<stop offset="0.755208" stop-color="#FD4C69"/>
</linearGradient>
<linearGradient id="paint2_linear_159_363" x1="29.3949" y1="51.2752" x2="-3.78909" y2="44.1937" gradientUnits="userSpaceOnUse">
<stop stop-color="#FD4C69"/>
<stop offset="0.363056" stop-color="#DB082B" stop-opacity="0.8"/>
<stop offset="0.755208" stop-color="#FD4C69"/>
</linearGradient>
<linearGradient id="paint3_linear_159_363" x1="12.5361" y1="59.4528" x2="9.06147" y2="54.5137" gradientUnits="userSpaceOnUse">
<stop stop-color="#FD4C69"/>
<stop offset="0.363056" stop-color="#DB082B" stop-opacity="0.8"/>
<stop offset="0.755208" stop-color="#FD4C69"/>
</linearGradient>
<linearGradient id="paint4_linear_159_363" x1="15.7475" y1="55.132" x2="12.1415" y2="52.2063" gradientUnits="userSpaceOnUse">
<stop stop-color="#FD4C69"/>
<stop offset="0.363056" stop-color="#DB082B" stop-opacity="0.8"/>
<stop offset="0.755208" stop-color="#FD4C69"/>
</linearGradient>
<linearGradient id="paint5_linear_159_363" x1="9.76153" y1="55.132" x2="6.14816" y2="52.1706" gradientUnits="userSpaceOnUse">
<stop stop-color="#FD4C69"/>
<stop offset="0.363056" stop-color="#DB082B" stop-opacity="0.8"/>
<stop offset="0.755208" stop-color="#FD4C69"/>
</linearGradient>
<linearGradient id="paint6_linear_159_363" x1="24.1941" y1="39.5317" x2="15.1954" y2="38.5757" gradientUnits="userSpaceOnUse">
<stop stop-color="#FD4C69"/>
<stop offset="0.363056" stop-color="#DB082B" stop-opacity="0.8"/>
<stop offset="0.755208" stop-color="#FD4C69"/>
</linearGradient>
<clipPath id="clip0_159_363">
<rect width="59.693" height="67" fill="white"/>
</clipPath>
</defs>
</svg>
