<svg width="60" height="51" viewBox="0 0 60 51" fill="none" xmlns="http://www.w3.org/2000/svg">
<path d="M14.7963 50.8095C14.5561 50.8095 14.3257 50.7124 14.1559 50.5397C13.986 50.367 13.8906 50.1327 13.8906 49.8884V9.71203C13.8906 9.46777 13.986 9.2335 14.1559 9.06078C14.3257 8.88805 14.5561 8.79102 14.7963 8.79102C15.0365 8.79102 15.2669 8.88805 15.4367 9.06078C15.6065 9.2335 15.702 9.46777 15.702 9.71203V49.8884C15.702 50.1327 15.6065 50.367 15.4367 50.5397C15.2669 50.7124 15.0365 50.8095 14.7963 50.8095Z" fill="url(#paint0_linear_159_408)"/>
<path d="M55.1062 50.8096H5.16005C4.03912 50.8096 2.96411 50.3567 2.17149 49.5507C1.37888 48.7446 0.933594 47.6514 0.933594 46.5115V4.29809C0.933594 3.15817 1.37888 2.06493 2.17149 1.25888C2.96411 0.452834 4.03912 0 5.16005 0H55.1062C56.2271 0 57.3021 0.452834 58.0947 1.25888C58.8874 2.06493 59.3326 3.15817 59.3326 4.29809V46.5115C59.3326 47.6514 58.8874 48.7446 58.0947 49.5507C57.3021 50.3567 56.2271 50.8096 55.1062 50.8096ZM5.16005 1.85432C4.51952 1.85432 3.90523 2.11308 3.4523 2.57368C2.99938 3.03428 2.74493 3.65899 2.74493 4.31037V46.5238C2.74493 47.1751 2.99938 47.7999 3.4523 48.2605C3.90523 48.7211 4.51952 48.9798 5.16005 48.9798H55.1062C55.7467 48.9798 56.361 48.7211 56.8139 48.2605C57.2669 47.7999 57.5213 47.1751 57.5213 46.5238V4.31037C57.5213 3.65899 57.2669 3.03428 56.8139 2.57368C56.361 2.11308 55.7467 1.85432 55.1062 1.85432H5.16005Z" fill="url(#paint1_linear_159_408)"/>
<path d="M58.4287 10.6331H1.84708C1.60688 10.6331 1.37652 10.536 1.20667 10.3633C1.03682 10.1906 0.941406 9.9563 0.941406 9.71203C0.941406 9.46777 1.03682 9.2335 1.20667 9.06078C1.37652 8.88805 1.60688 8.79102 1.84708 8.79102H58.4287C58.6689 8.79102 58.8993 8.88805 59.0692 9.06078C59.239 9.2335 59.3344 9.46777 59.3344 9.71203C59.3344 9.9563 59.239 10.1906 59.0692 10.3633C58.8993 10.536 58.6689 10.6331 58.4287 10.6331Z" fill="url(#paint2_linear_159_408)"/>
<path d="M30.1322 50.8095C29.892 50.8095 29.6617 50.7124 29.4918 50.5397C29.322 50.367 29.2266 50.1327 29.2266 49.8884V9.71203C29.2266 9.46777 29.322 9.2335 29.4918 9.06078C29.6617 8.88805 29.892 8.79102 30.1322 8.79102C30.3724 8.79102 30.6028 8.88805 30.7726 9.06078C30.9425 9.2335 31.0379 9.46777 31.0379 9.71203V49.8884C31.0379 50.1327 30.9425 50.367 30.7726 50.5397C30.6028 50.7124 30.3724 50.8095 30.1322 50.8095Z" fill="url(#paint3_linear_159_408)"/>
<path d="M45.4682 50.8095C45.228 50.8095 44.9976 50.7124 44.8278 50.5397C44.6579 50.367 44.5625 50.1327 44.5625 49.8884V9.71203C44.5625 9.46777 44.6579 9.2335 44.8278 9.06078C44.9976 8.88805 45.228 8.79102 45.4682 8.79102C45.7084 8.79102 45.9387 8.88805 46.1086 9.06078C46.2784 9.2335 46.3738 9.46777 46.3738 9.71203V49.8884C46.3738 50.1327 46.2784 50.367 46.1086 50.5397C45.9387 50.7124 45.7084 50.8095 45.4682 50.8095Z" fill="url(#paint4_linear_159_408)"/>
<path d="M58.4287 21.7659H1.84708C1.60688 21.7659 1.37652 21.6688 1.20667 21.4961C1.03682 21.3234 0.941406 21.0891 0.941406 20.8448C0.941406 20.6006 1.03682 20.3663 1.20667 20.1936C1.37652 20.0209 1.60688 19.9238 1.84708 19.9238H58.4287C58.6689 19.9238 58.8993 20.0209 59.0692 20.1936C59.239 20.3663 59.3344 20.6006 59.3344 20.8448C59.3344 21.0891 59.239 21.3234 59.0692 21.4961C58.8993 21.6688 58.6689 21.7659 58.4287 21.7659Z" fill="url(#paint5_linear_159_408)"/>
<path d="M58.4287 38.2258H1.84708C1.60688 38.2258 1.37652 38.1288 1.20667 37.9561C1.03682 37.7833 0.941406 37.5491 0.941406 37.3048C0.941406 37.0605 1.03682 36.8263 1.20667 36.6535C1.37652 36.4808 1.60688 36.3838 1.84708 36.3838H58.4287C58.6689 36.3838 58.8993 36.4808 59.0692 36.6535C59.239 36.8263 59.3344 37.0605 59.3344 37.3048C59.3344 37.5491 59.239 37.7833 59.0692 37.9561C58.8993 38.1288 58.6689 38.2258 58.4287 38.2258Z" fill="url(#paint6_linear_159_408)"/>
<defs>
<linearGradient id="paint0_linear_159_408" x1="15.2428" y1="64.0075" x2="13.0535" y2="63.9849" gradientUnits="userSpaceOnUse">
<stop stop-color="#FD4C69"/>
<stop offset="0.363056" stop-color="#DB082B" stop-opacity="0.8"/>
<stop offset="0.755208" stop-color="#FD4C69"/>
</linearGradient>
<linearGradient id="paint1_linear_159_408" x1="44.5292" y1="66.769" x2="-21.0914" y2="48.7036" gradientUnits="userSpaceOnUse">
<stop stop-color="#FD4C69"/>
<stop offset="0.363056" stop-color="#DB082B" stop-opacity="0.8"/>
<stop offset="0.755208" stop-color="#FD4C69"/>
</linearGradient>
<linearGradient id="paint2_linear_159_408" x1="44.5325" y1="11.2116" x2="43.329" y2="2.07374" gradientUnits="userSpaceOnUse">
<stop stop-color="#FD4C69"/>
<stop offset="0.363056" stop-color="#DB082B" stop-opacity="0.8"/>
<stop offset="0.755208" stop-color="#FD4C69"/>
</linearGradient>
<linearGradient id="paint3_linear_159_408" x1="30.5787" y1="64.0075" x2="28.3894" y2="63.9849" gradientUnits="userSpaceOnUse">
<stop stop-color="#FD4C69"/>
<stop offset="0.363056" stop-color="#DB082B" stop-opacity="0.8"/>
<stop offset="0.755208" stop-color="#FD4C69"/>
</linearGradient>
<linearGradient id="paint4_linear_159_408" x1="45.9147" y1="64.0075" x2="43.7253" y2="63.9849" gradientUnits="userSpaceOnUse">
<stop stop-color="#FD4C69"/>
<stop offset="0.363056" stop-color="#DB082B" stop-opacity="0.8"/>
<stop offset="0.755208" stop-color="#FD4C69"/>
</linearGradient>
<linearGradient id="paint5_linear_159_408" x1="44.5325" y1="22.3445" x2="43.329" y2="13.2065" gradientUnits="userSpaceOnUse">
<stop stop-color="#FD4C69"/>
<stop offset="0.363056" stop-color="#DB082B" stop-opacity="0.8"/>
<stop offset="0.755208" stop-color="#FD4C69"/>
</linearGradient>
<linearGradient id="paint6_linear_159_408" x1="44.5325" y1="38.8044" x2="43.329" y2="29.6665" gradientUnits="userSpaceOnUse">
<stop stop-color="#FD4C69"/>
<stop offset="0.363056" stop-color="#DB082B" stop-opacity="0.8"/>
<stop offset="0.755208" stop-color="#FD4C69"/>
</linearGradient>
</defs>
</svg>
