<svg width="26" height="26" viewBox="0 0 26 26" fill="none" xmlns="http://www.w3.org/2000/svg">
<path d="M13.0037 13.5076C14.1764 13.5066 15.3125 13.099 16.2184 12.3543C17.1243 11.6096 17.7441 10.5738 17.972 9.42349C18.1999 8.27313 18.022 7.07933 17.4685 6.04545C16.915 5.01157 16.0202 4.20156 14.9365 3.75341C13.8527 3.30527 12.6472 3.2467 11.5251 3.58769C10.4031 3.92868 9.43396 4.64814 8.78285 5.6235C8.13174 6.59886 7.83892 7.76979 7.95428 8.93682C8.06964 10.1039 8.58604 11.1948 9.4155 12.0238C9.88638 12.4953 10.4458 12.8691 11.0616 13.1237C11.6773 13.3784 12.3374 13.5088 13.0037 13.5076ZM10.23 5.66498C10.8717 5.02326 11.716 4.62389 12.6191 4.5349C13.5222 4.44591 14.4282 4.67282 15.1827 5.17697C15.9373 5.68111 16.4937 6.43129 16.7571 7.29968C17.0206 8.16807 16.9748 9.10095 16.6275 9.93934C16.2802 10.7777 15.653 11.4698 14.8527 11.8976C14.0523 12.3253 13.1284 12.4624 12.2384 12.2853C11.3484 12.1082 10.5473 11.628 9.9716 10.9265C9.39594 10.225 9.08132 9.34562 9.08136 8.43814C9.08073 7.92303 9.18187 7.41286 9.379 6.93695C9.57613 6.46104 9.86534 6.02877 10.23 5.66498Z" fill="white"/>
<path d="M13.0023 14.3115C8.70621 14.3115 5.21094 17.8063 5.21094 22.1024C5.21094 22.178 5.22583 22.2529 5.25477 22.3228C5.28371 22.3926 5.32613 22.4561 5.3796 22.5096C5.43308 22.5631 5.49656 22.6055 5.56642 22.6344C5.63629 22.6633 5.71117 22.6782 5.7868 22.6782H20.2173C20.37 22.6782 20.5165 22.6176 20.6245 22.5096C20.7325 22.4016 20.7932 22.2551 20.7932 22.1024C20.7932 17.8063 17.2979 14.3115 13.0023 14.3115ZM6.38754 21.5265C6.68004 18.1343 9.53598 15.4632 13.0023 15.4632C16.4686 15.4632 19.3241 18.1343 19.6166 21.5265H6.38754Z" fill="white"/>
</svg>
