<svg width="276" height="67" viewBox="0 0 276 67" fill="none" xmlns="http://www.w3.org/2000/svg">
<path d="M44.0307 3.78856C44.2749 3.79806 44.5109 3.84795 44.7385 3.93824C44.8476 3.981 44.8452 4.02615 44.7314 4.07366L38.7383 6.55053C38.7184 6.55886 38.6968 6.56263 38.6752 6.56158C38.6536 6.56052 38.6325 6.55467 38.6134 6.54443C38.5944 6.5342 38.5778 6.51984 38.565 6.5024C38.5521 6.48497 38.5433 6.46488 38.5392 6.44361C38.3447 5.40772 38.3412 4.43836 38.5285 3.53553C38.5383 3.48605 38.5655 3.44141 38.6056 3.409C38.6457 3.37658 38.6963 3.35836 38.749 3.35733C40.2333 3.31219 41.7034 3.43336 43.1593 3.72084C43.2921 3.74698 43.5826 3.76955 44.0307 3.78856Z" fill="#FD4C69"/>
<path d="M34.05 5.67027C34.0855 11.0445 34.0749 16.2596 34.0179 21.3155C33.9705 25.497 33.9527 29.5871 33.9646 33.5857C33.9646 34.0324 34.1223 34.4137 34.4376 34.7297L53.8999 54.3201C53.9422 54.3632 53.9755 54.4144 53.9978 54.4706C54.02 54.5268 54.0308 54.587 54.0295 54.6474C54.0281 54.7079 54.0147 54.7675 53.99 54.8227C53.9653 54.8778 53.9299 54.9275 53.8857 54.9687C49.6817 58.8794 44.8374 61.3848 39.353 62.4848C36.9914 62.96 34.6321 63.1323 32.2752 63.0016C27.8435 62.7545 23.6845 61.5321 19.7983 59.3344C19.3928 59.104 18.998 59.1206 18.6139 59.3843C15.4105 61.5701 11.9131 62.606 8.12161 62.492C7.52883 62.4753 7.05697 62.3577 6.70604 62.1392C5.86903 61.6165 6.03146 60.9797 7.19331 60.2289C9.2396 58.9008 10.9385 56.9775 12.2901 54.4591C12.5912 53.9008 12.5616 53.4482 12.2011 53.1013C11.8953 52.8067 11.7352 52.6511 11.721 52.6344C6.97398 46.6662 4.82929 39.9531 5.28692 32.4952C5.43393 30.0932 5.86311 27.7636 6.57445 25.5065C8.78908 18.4834 13.1935 13.064 19.7876 9.24836C23.975 6.82733 28.613 5.52178 33.7014 5.33171C33.7464 5.33029 33.7911 5.33797 33.8331 5.3543C33.8751 5.37064 33.9135 5.39529 33.9459 5.42683C33.9784 5.45836 34.0043 5.49614 34.0222 5.53794C34.0401 5.57974 34.0495 5.62473 34.05 5.67027Z" fill="#FD4C69"/>
<path d="M49.9457 5.73411L52.6523 7.09905C52.9748 7.26299 52.9642 7.41505 52.6203 7.55522L38.7777 13.1861C38.7569 13.1945 38.7346 13.1986 38.7122 13.1978C38.6899 13.1971 38.668 13.1916 38.6481 13.1818C38.6282 13.172 38.6107 13.1581 38.5969 13.141C38.583 13.1239 38.5731 13.104 38.5678 13.0827C38.3402 12.1229 38.3141 11.1547 38.4896 10.1782C38.4982 10.1258 38.521 10.0761 38.5559 10.0336C38.5907 9.99124 38.6365 9.95758 38.6887 9.93586L48.836 5.7448C49.251 5.57373 49.6209 5.57017 49.9457 5.73411Z" fill="#FD4C69"/>
<path d="M56.5684 9.89691L58.4997 11.7287C58.5205 11.7482 58.5356 11.7728 58.5438 11.8002C58.5521 11.8276 58.553 11.857 58.5467 11.8857C58.5403 11.9143 58.5268 11.9414 58.5074 11.9644C58.4881 11.9874 58.4634 12.0056 58.4357 12.0174L38.7529 19.9825C38.7319 19.9908 38.7095 19.9945 38.687 19.9932C38.6645 19.992 38.6426 19.986 38.6227 19.9755C38.6028 19.965 38.5853 19.9503 38.5716 19.9325C38.5579 19.9146 38.5481 19.894 38.543 19.8721C38.3747 19.1759 38.3533 18.3064 38.479 17.2633C38.494 17.1308 38.5446 17.0047 38.6253 16.8987C38.7061 16.7926 38.8141 16.7105 38.9378 16.6611L55.8535 9.78999C55.9786 9.739 56.1126 9.72197 56.2393 9.74092C56.3661 9.75988 56.4803 9.81403 56.5684 9.89691Z" fill="#FD4C69"/>
<path d="M61.1925 14.6936L62.5085 16.6501C62.5366 16.692 62.5544 16.7399 62.5606 16.7903C62.5668 16.8407 62.5611 16.8925 62.5441 16.9416C62.527 16.9908 62.499 17.0363 62.4621 17.0746C62.4251 17.113 62.3802 17.1433 62.3306 17.1633L38.6857 26.8177C38.6661 26.8259 38.6448 26.8295 38.6237 26.8282C38.6026 26.8269 38.5823 26.8207 38.5644 26.8102C38.5466 26.7997 38.5318 26.7852 38.5214 26.7679C38.5109 26.7506 38.505 26.731 38.5043 26.7108L38.3869 23.7386C38.3847 23.6833 38.4014 23.6282 38.4346 23.5809C38.4678 23.5336 38.5158 23.4965 38.5719 23.4748L60.723 14.5724C60.8096 14.538 60.9034 14.5312 60.9888 14.5532C61.0742 14.5753 61.146 14.6248 61.1925 14.6936Z" fill="#FD4C69"/>
<path d="M267.727 14.9682C267.795 14.9728 267.858 15.0044 267.905 15.0567C267.951 15.109 267.976 15.1781 267.976 15.2498L267.994 20.7416C267.994 20.7949 268.015 20.846 268.053 20.884C268.091 20.922 268.142 20.9438 268.197 20.9448L272.24 21.016C272.318 21.017 272.392 21.0471 272.447 21.0998C272.501 21.1525 272.532 21.2235 272.532 21.2976V26.1087C272.532 26.1551 272.523 26.201 272.505 26.2438C272.488 26.2866 272.462 26.3255 272.429 26.3582C272.396 26.391 272.357 26.417 272.315 26.4347C272.272 26.4524 272.226 26.4616 272.18 26.4616H268.3C268.22 26.4615 268.144 26.4923 268.087 26.5475C268.03 26.6027 267.997 26.6779 267.994 26.7574C267.899 29.4991 267.87 32.2813 267.908 35.1039C267.923 36.0898 268.014 36.9535 268.182 37.6948C268.348 38.4289 268.7 38.9492 269.239 39.2557C269.853 39.6073 270.536 39.7083 271.287 39.5586C272.141 39.39 272.506 39.7178 272.383 40.5423C272.219 41.6684 272.212 42.8112 272.361 43.9707C272.421 44.434 272.219 44.6953 271.757 44.7547C270.156 44.9662 268.493 44.9448 266.767 44.6906C265.316 44.4767 264.243 44.0966 263.548 43.5501C262.87 43.0179 262.392 42.3254 262.115 41.4724C261.951 40.9759 261.858 40.1657 261.837 39.0419C261.759 35.1193 261.739 31.066 261.777 26.8821C261.778 26.7954 261.743 26.7118 261.679 26.6492C261.616 26.5866 261.53 26.5499 261.439 26.5471L259.305 26.4616C259.254 26.4597 259.205 26.438 259.17 26.4009C259.134 26.3637 259.114 26.314 259.113 26.262L259.027 21.2869C259.027 21.2129 259.058 21.1415 259.114 21.0881C259.171 21.0348 259.248 21.0037 259.33 21.0018L261.574 20.9305C261.621 20.9295 261.666 20.9089 261.699 20.873C261.732 20.8371 261.751 20.7888 261.752 20.7381L261.873 15.2818C261.874 15.2012 261.907 15.124 261.963 15.0653C262.02 15.0067 262.097 14.9708 262.179 14.9647C264.011 14.8387 265.861 14.8399 267.727 14.9682Z" fill="#2D2D2D"/>
<path d="M64.0591 19.8826C64.1054 19.8632 64.157 19.8604 64.2055 19.8747C64.254 19.8889 64.2964 19.9194 64.3259 19.961C64.7977 20.6263 65.1581 21.4353 65.4071 22.388C65.4252 22.4561 65.4179 22.5285 65.3864 22.5915C65.355 22.6545 65.3016 22.7038 65.2364 22.7301L39.9803 33.0688C39.8949 33.1039 39.8019 33.1171 39.7094 33.1071C39.6169 33.0972 39.5279 33.0644 39.4503 33.0118C38.4781 32.3608 38.1628 31.5328 38.5042 30.5278C38.5221 30.4752 38.5513 30.427 38.59 30.3864C38.6287 30.3458 38.6758 30.3138 38.7283 30.2926L64.0591 19.8826Z" fill="#FD4C69"/>
<path d="M138.512 20.9337C142.998 21.2663 146.14 23.4129 147.937 27.3735C148.862 29.4144 149.195 31.6644 148.937 34.1234C148.747 35.9291 148.294 37.5459 147.578 38.9738C146.829 40.4682 145.776 41.7144 144.42 42.7123C142.791 43.9073 140.944 44.5821 138.878 44.7365C137.351 44.8506 136.001 44.7543 134.827 44.4479C133.478 44.0962 132.263 43.4132 131.182 42.3987C130.89 42.1231 130.735 42.186 130.716 42.5875C130.576 45.4386 130.564 48.355 130.68 51.3367C130.682 51.3805 130.675 51.4242 130.66 51.4652C130.644 51.5062 130.621 51.5437 130.591 51.5753C130.56 51.607 130.524 51.6321 130.484 51.6493C130.443 51.6665 130.4 51.6753 130.356 51.6753H124.819C124.73 51.6753 124.645 51.64 124.582 51.5772C124.52 51.5144 124.484 51.4292 124.484 51.3403V21.7142C124.484 21.6707 124.493 21.6276 124.51 21.5874C124.526 21.5471 124.551 21.5106 124.581 21.4798C124.612 21.4491 124.648 21.4246 124.689 21.408C124.729 21.3913 124.772 21.3828 124.815 21.3828H130.207C130.272 21.3828 130.335 21.3949 130.395 21.4186C130.454 21.4422 130.509 21.4769 130.554 21.5205C130.6 21.5642 130.636 21.6161 130.661 21.6732C130.685 21.7302 130.698 21.7914 130.698 21.8532L130.709 23.2039C130.709 23.4201 130.793 23.4628 130.961 23.3322C133.282 21.5336 135.799 20.7341 138.512 20.9337ZM142.895 32.1777C142.898 30.6768 142.305 29.2363 141.248 28.1731C140.19 27.1099 138.755 26.5112 137.257 26.5085L136.147 26.5066C135.406 26.5053 134.671 26.6504 133.985 26.9336C133.299 27.2168 132.676 27.6326 132.151 28.1572C131.625 28.6818 131.208 29.3049 130.923 29.9911C130.638 30.6772 130.491 31.4129 130.489 32.1561L130.487 33.5673C130.484 35.0683 131.077 36.5088 132.134 37.572C133.192 38.6352 134.627 39.234 136.125 39.2366L137.235 39.2385C137.976 39.2398 138.711 39.0947 139.397 38.8115C140.083 38.5283 140.706 38.1125 141.231 37.5879C141.757 37.0633 142.174 36.4401 142.459 35.754C142.744 35.0679 142.891 34.3322 142.893 33.589L142.895 32.1777Z" fill="#2D2D2D"/>
<path d="M98.2108 21.8996C99.3513 22.3771 100.258 23.0281 100.932 23.8526C100.961 23.8883 100.998 23.9177 101.039 23.9392C101.08 23.9607 101.125 23.9738 101.172 23.9778C101.218 23.9818 101.265 23.9765 101.309 23.9624C101.353 23.9482 101.394 23.9254 101.43 23.8953C104.168 21.548 107.195 20.6487 110.51 21.1975C113.986 21.7748 116.256 23.4665 117.321 26.2724C117.762 27.4366 118.007 29.6687 118.057 32.9688C118.107 36.4115 118.115 39.8553 118.082 43.3004C118.22 44.025 117.977 44.3636 117.353 44.3161C117.045 44.2923 116.878 44.2804 116.851 44.2804C115.327 44.2804 113.742 44.2804 112.096 44.2804C112.065 44.2804 112.034 44.2743 112.005 44.2623C111.976 44.2503 111.95 44.2327 111.928 44.2105C111.906 44.1883 111.888 44.162 111.876 44.133C111.864 44.1041 111.858 44.073 111.858 44.0417C111.858 40.5491 111.873 37.0649 111.904 33.5889C111.918 31.9021 111.837 30.4837 111.659 29.3337C111.571 28.7825 111.352 28.2634 111.001 27.7763C110.695 27.3511 110.28 26.9982 109.756 26.7179C108.215 25.8887 106.699 25.8994 105.21 26.75C103.771 27.5744 103.051 28.9631 103.051 30.9161C103.054 35.1927 103.055 39.4811 103.055 43.7815C103.055 43.847 103.042 43.9119 103.017 43.9724C102.992 44.033 102.955 44.088 102.909 44.1343C102.863 44.1806 102.808 44.2174 102.748 44.2425C102.687 44.2675 102.623 44.2804 102.557 44.2804H97.1296C97.0268 44.2804 96.9282 44.2395 96.8555 44.1667C96.7827 44.0938 96.7419 43.995 96.7419 43.892C96.7419 39.9338 96.7419 35.9351 96.7419 31.8961C96.7419 30.8246 96.6601 29.9396 96.4965 29.2411C96.2357 28.1315 95.6796 27.3166 94.8284 26.7963C94.1005 26.352 93.2089 26.15 92.1538 26.1904C90.0932 26.2688 88.7547 27.4354 88.1382 29.6901C88.0055 30.1819 87.932 31.0361 87.9177 32.2525C87.8727 36.0539 87.8502 39.9421 87.8502 43.9169C87.8502 44.0133 87.8119 44.1058 87.7439 44.174C87.6759 44.2421 87.5836 44.2804 87.4874 44.2804H82.0421C81.9991 44.2804 81.9565 44.272 81.9168 44.2555C81.8771 44.239 81.8411 44.2148 81.8107 44.1844C81.7493 44.1229 81.7148 44.0395 81.7148 43.9526V21.7356C81.7148 21.6421 81.7519 21.5523 81.818 21.4862C81.8507 21.4534 81.8895 21.4274 81.9322 21.4097C81.9749 21.392 82.0207 21.3828 82.067 21.3828H87.3558C87.4888 21.3828 87.6163 21.4373 87.7104 21.5342C87.8044 21.6311 87.8573 21.7625 87.8573 21.8996L87.8537 23.0507C87.8537 23.3477 87.977 23.4047 88.2236 23.2218C91.3772 20.872 94.7063 20.4313 98.2108 21.8996Z" fill="#2D2D2D"/>
<path d="M162.451 21.0266C165.986 20.934 169.153 21.9806 171.95 24.1664C171.998 24.2036 172.031 24.2573 172.04 24.316C172.049 24.3747 172.035 24.4336 172 24.48L169.262 28.1008C169.176 28.215 169.049 28.2915 168.903 28.3152C168.758 28.3389 168.605 28.3082 168.476 28.2291C166.78 27.1956 164.89 26.5827 162.806 26.3902C161.9 26.3071 161.078 26.5221 160.338 27.0353C159.648 27.5152 159.445 28.045 159.73 28.6247C159.907 28.9835 160.28 29.2555 160.846 29.4409C162.219 29.8923 163.695 30.213 165.275 30.4031C166.73 30.5789 168.104 31.0054 169.397 31.6825C170.734 32.3834 171.678 33.247 172.228 34.2734C172.861 35.4518 173.07 36.7978 172.854 38.3112C172.382 41.6303 170.518 43.638 167.263 44.3341C162.181 45.4199 157.51 44.4885 153.249 41.5401C153.201 41.5066 153.16 41.4639 153.128 41.4144C153.096 41.365 153.075 41.3099 153.065 41.2523C153.055 41.1948 153.057 41.136 153.07 41.0795C153.083 41.023 153.108 40.97 153.143 40.9235L155.782 37.3526C155.868 37.2356 155.996 37.1556 156.139 37.1286C156.283 37.1015 156.432 37.1293 156.557 37.2064C159.073 38.7484 161.689 39.4433 164.407 39.2913C165.106 39.2533 165.708 38.9658 166.214 38.4288C166.56 38.0606 166.724 37.6876 166.708 37.3098C166.684 36.818 166.376 36.4521 165.783 36.2121C165.238 35.9912 164.675 35.832 164.094 35.7346C162.631 35.4875 161.016 35.1572 159.249 34.7438C157.931 34.4373 156.679 33.822 155.494 32.8978C154.474 32.1066 153.833 31.1242 153.569 29.9505C153.133 28.0141 153.349 26.2417 154.217 24.6332C154.632 23.8682 155.256 23.2422 156.091 22.7551C157.962 21.6646 160.082 21.0884 162.451 21.0266Z" fill="#2D2D2D"/>
<path d="M193.408 21.7252C196.164 22.6685 198.423 24.5074 200.188 27.242C200.217 27.2886 200.236 27.341 200.244 27.3953C200.251 27.4497 200.247 27.5047 200.231 27.5564C200.216 27.6082 200.189 27.6554 200.153 27.6947C200.117 27.734 200.073 27.7644 200.024 27.7837L195.023 29.7545C194.964 29.7774 194.898 29.7778 194.837 29.7557C194.776 29.7335 194.724 29.6903 194.689 29.6334C193.987 28.4763 192.978 27.621 191.662 27.0674C190.32 26.5043 189.005 26.3737 187.718 26.6754C186.494 26.9629 185.435 27.6258 184.542 28.664C183.522 29.8472 183.006 31.2098 182.994 32.7517C182.98 34.7047 183.611 36.3274 184.887 37.6199C186.264 39.0146 188.14 39.5361 190.513 39.1844C192.019 38.9611 193.483 38.0286 194.906 36.3868C194.973 36.3097 195.062 36.255 195.161 36.2301C195.26 36.2052 195.365 36.2114 195.461 36.2478L200.077 38.0547C200.107 38.0666 200.134 38.0846 200.157 38.1076C200.18 38.1306 200.197 38.1581 200.209 38.1883C200.22 38.2185 200.225 38.2507 200.223 38.283C200.221 38.3152 200.213 38.3467 200.198 38.3755C198.823 41.0697 196.871 42.9324 194.344 43.9635C192.222 44.8284 189.892 45.0778 187.355 44.7119C184.465 44.2962 182.047 43.0286 180.103 40.9093C178.426 39.0823 177.387 36.9867 176.984 34.6227C176.426 31.344 177.295 28.3195 179.591 25.5492C181.421 23.3373 183.689 21.9355 186.395 21.3439C188.797 20.8188 191.135 20.9459 193.408 21.7252Z" fill="#2D2D2D"/>
<path d="M228.201 32.9622C228.19 36.1201 226.876 39.144 224.549 41.3689C222.221 43.5937 219.07 44.8371 215.79 44.8257C214.165 44.82 212.558 44.5064 211.059 43.9028C209.56 43.2991 208.2 42.4173 207.055 41.3077C205.91 40.198 205.003 38.8823 204.387 37.4355C203.77 35.9887 203.456 34.4393 203.461 32.8757C203.472 29.7179 204.786 26.6939 207.113 24.4691C209.441 22.2443 212.592 21.0008 215.873 21.0123C217.497 21.018 219.105 21.3316 220.603 21.9352C222.102 22.5388 223.463 23.4206 224.607 24.5303C225.752 25.6399 226.659 26.9557 227.276 28.4024C227.892 29.8492 228.207 31.3986 228.201 32.9622ZM215.472 39.4188C216.294 39.4591 217.116 39.3313 217.892 39.0428C218.667 38.7542 219.38 38.3106 219.991 37.7372C220.601 37.1637 221.097 36.4718 221.45 35.7007C221.803 34.9297 222.006 34.0948 222.048 33.2435C222.089 32.3923 221.969 31.5415 221.693 30.7396C221.416 29.9378 220.99 29.2006 220.438 28.5702C219.886 27.9398 219.22 27.4285 218.476 27.0656C217.733 26.7026 216.927 26.4951 216.105 26.4548C215.283 26.4145 214.461 26.5423 213.685 26.8308C212.91 27.1194 212.197 27.563 211.586 28.1364C210.975 28.7098 210.48 29.4018 210.127 30.1728C209.774 30.9439 209.571 31.7788 209.529 32.6301C209.445 34.3492 210.024 36.0302 211.139 37.3034C212.253 38.5765 213.812 39.3374 215.472 39.4188Z" fill="#2D2D2D"/>
<path d="M238.81 21.4829C238.848 21.4825 238.885 21.4898 238.92 21.5044C238.955 21.5191 238.987 21.5408 239.014 21.5683C239.041 21.5958 239.062 21.6286 239.077 21.6647C239.091 21.7008 239.099 21.7396 239.099 21.7787C239.099 25.7583 239.099 29.6132 239.099 33.3434C239.099 33.3695 239.088 33.7104 239.067 34.3662C239.033 35.3902 239.192 36.3489 239.543 37.2422C239.939 38.2472 240.68 38.9124 241.766 39.2379C244.573 40.079 246.523 39.1987 247.613 36.5971C247.99 35.699 248.116 34.3994 247.99 32.6983C247.884 31.2514 247.912 27.5985 248.076 21.7395C248.077 21.6898 248.096 21.6423 248.129 21.6071C248.162 21.5718 248.207 21.5516 248.253 21.5506L253.773 21.4901C253.828 21.4896 253.883 21.5004 253.934 21.5219C253.985 21.5433 254.031 21.575 254.07 21.6151C254.109 21.6552 254.14 21.7029 254.161 21.7554C254.182 21.808 254.193 21.8644 254.193 21.9213L254.215 43.8388C254.215 43.8972 254.203 43.9549 254.181 44.0088C254.159 44.0626 254.126 44.1115 254.085 44.1526C254.044 44.1937 253.995 44.2261 253.942 44.2481C253.889 44.2701 253.831 44.2812 253.773 44.2808L248.417 44.2629C248.35 44.2626 248.284 44.2479 248.224 44.2198C248.163 44.1916 248.109 44.1507 248.065 44.0998C248.021 44.0488 247.989 43.989 247.97 43.9243C247.951 43.8597 247.946 43.7916 247.955 43.7248C248.102 42.6913 247.967 42.3551 247.549 42.7162C247.269 42.9586 247.125 43.0833 247.115 43.0904C245.818 44.0051 244.413 44.5504 242.901 44.7262C241.352 44.9044 239.895 44.7892 238.529 44.3805C236.879 43.8887 235.525 42.879 234.468 41.3513C233.818 40.4128 233.407 39.3757 233.234 38.2401C232.989 36.6411 232.867 35.0314 232.867 33.4111C232.872 29.6405 232.874 25.8035 232.874 21.8999C232.874 21.8088 232.909 21.7214 232.97 21.6567C233.031 21.592 233.114 21.5551 233.202 21.5542L238.81 21.4829Z" fill="#2D2D2D"/>
<path d="M66.1226 25.8449C66.1599 25.8298 66.2001 25.8232 66.2402 25.8257C66.2804 25.8282 66.3193 25.8396 66.3542 25.8592C66.3891 25.8787 66.419 25.9058 66.4418 25.9385C66.4645 25.9712 66.4794 26.0087 66.4854 26.048L66.8304 28.2611C66.8536 28.4094 66.8256 28.5614 66.7507 28.6927C66.6758 28.824 66.5585 28.9268 66.4178 28.9846L44.7931 37.8407C44.6974 37.8798 44.5933 37.8935 44.4911 37.8804C44.3889 37.8673 44.2919 37.8278 44.2098 37.7659C43.432 37.1743 42.7717 36.5197 42.2287 35.8022C42.2082 35.7755 42.1941 35.7444 42.1876 35.7113C42.1812 35.6782 42.1825 35.6441 42.1914 35.6116C42.2004 35.5791 42.2168 35.5491 42.2393 35.5241C42.2618 35.499 42.2899 35.4795 42.3212 35.4672L66.1226 25.8449Z" fill="#FD4C69"/>
<path d="M66.7835 32.3384C66.8098 32.328 66.8382 32.3241 66.8662 32.3272C66.8943 32.3302 66.9212 32.3401 66.9447 32.3558C66.9681 32.3716 66.9874 32.3929 67.0008 32.4178C67.0143 32.4427 67.0215 32.4705 67.0218 32.4988C67.0313 33.442 66.9127 34.409 66.6661 35.3997C66.6517 35.4541 66.6256 35.5042 66.5898 35.5462C66.554 35.5882 66.5096 35.621 66.4598 35.6421L49.3805 42.7198C49.3013 42.7525 49.217 42.7638 49.1385 42.7524C49.0599 42.741 48.9907 42.7073 48.9395 42.6557L47.0153 40.7276C46.99 40.7022 46.9721 40.6705 46.9633 40.6354C46.9544 40.6004 46.955 40.563 46.9649 40.5267C46.9747 40.4903 46.9936 40.4562 47.0198 40.4272C47.0459 40.3982 47.0786 40.3753 47.1149 40.3606L66.7835 32.3384Z" fill="#FD4C69"/>
<path d="M65.7345 39.4907C66.0926 39.3457 66.204 39.455 66.0689 39.8186L64.9734 42.7587C64.9263 42.8878 64.8533 43.0055 64.759 43.1043C64.6647 43.2031 64.5512 43.2808 64.4257 43.3325L54.0508 47.5984C53.9982 47.6203 53.9416 47.6273 53.8883 47.6184C53.835 47.6095 53.7875 47.5851 53.752 47.5485L51.8492 45.5955C51.8124 45.558 51.786 45.5118 51.7724 45.4609C51.7587 45.41 51.7582 45.356 51.7708 45.3036C51.7835 45.2512 51.8089 45.202 51.8449 45.1603C51.8808 45.1186 51.9263 45.0857 51.9772 45.0645L65.7345 39.4907Z" fill="#FD4C69"/>
<path d="M62.2691 47.5986C62.5916 47.468 62.6449 47.5345 62.4292 47.7982L58.9472 52.0891C58.9065 52.1391 58.8562 52.1804 58.7996 52.2103C58.743 52.2403 58.6814 52.2582 58.6186 52.2629C58.5559 52.2676 58.4935 52.259 58.4355 52.2377C58.3775 52.2163 58.3253 52.1827 58.2821 52.139L56.4575 50.3C56.4318 50.2739 56.4138 50.2416 56.4048 50.2059C56.3959 50.1703 56.3963 50.1324 56.4062 50.0957C56.4161 50.059 56.435 50.0246 56.4613 49.9956C56.4877 49.9665 56.5205 49.9438 56.5571 49.9294L62.2691 47.5986Z" fill="#FD4C69"/>
</svg>
