<svg width="67" height="68" viewBox="0 0 67 68" fill="none" xmlns="http://www.w3.org/2000/svg">
<path d="M57.0539 64.0177C57.1499 64.0177 57.2449 63.9988 57.3336 63.962C57.4223 63.9253 57.5029 63.8714 57.5707 63.8034C57.6385 63.7355 57.6923 63.6548 57.7289 63.5661C57.7655 63.4773 57.7843 63.3822 57.7841 63.2862V20.8093C57.7841 20.6156 57.7071 20.4299 57.5702 20.293C57.4333 20.156 57.2475 20.0791 57.0539 20.0791H48.7849C48.5912 20.0791 48.4055 20.156 48.2686 20.293C48.1316 20.4299 48.0547 20.6156 48.0547 20.8093V63.2862C48.0545 63.3822 48.0733 63.4773 48.1099 63.5661C48.1465 63.6548 48.2003 63.7355 48.2681 63.8034C48.3359 63.8714 48.4165 63.9253 48.5051 63.962C48.5938 63.9988 48.6889 64.0177 48.7849 64.0177H57.0539ZM49.5151 21.5395H56.3263V62.556H49.5151V21.5395Z" fill="url(#paint0_linear_159_117)"/>
<path d="M34.826 64.0177C35.02 64.0177 35.2061 63.9406 35.3433 63.8034C35.4805 63.6663 35.5575 63.4802 35.5575 63.2862V42.4128C35.5575 42.3168 35.5386 42.2218 35.5018 42.1331C35.4651 42.0444 35.4112 41.9638 35.3432 41.896C35.2753 41.8282 35.1946 41.7744 35.1059 41.7378C35.0171 41.7012 34.922 41.6824 34.826 41.6826H26.5544C26.3608 41.6826 26.175 41.7595 26.0381 41.8965C25.9012 42.0334 25.8242 42.2192 25.8242 42.4128V63.2862C25.824 63.3822 25.8428 63.4773 25.8794 63.566C25.916 63.6548 25.9698 63.7354 26.0376 63.8034C26.1054 63.8713 26.186 63.9252 26.2747 63.962C26.3634 63.9988 26.4584 64.0177 26.5544 64.0177H34.826ZM27.2859 43.1417H34.0906V62.556H27.2859V43.1417Z" fill="url(#paint1_linear_159_117)"/>
<path d="M4.32527 64.0176H12.5969C12.6929 64.0176 12.788 63.9987 12.8766 63.9619C12.9653 63.9251 13.0459 63.8712 13.1137 63.8033C13.1815 63.7353 13.2353 63.6547 13.2719 63.5659C13.3085 63.4772 13.3273 63.3821 13.3271 63.2861V54.0841C13.3278 53.9877 13.3094 53.8922 13.273 53.803C13.2366 53.7138 13.183 53.6327 13.1151 53.5644C13.0472 53.496 12.9665 53.4417 12.8775 53.4047C12.7886 53.3677 12.6932 53.3486 12.5969 53.3486H4.32527C4.22927 53.3485 4.13418 53.3672 4.04544 53.4038C3.95669 53.4405 3.87604 53.4942 3.8081 53.562C3.74016 53.6299 3.68625 53.7104 3.64948 53.7991C3.6127 53.8878 3.59377 53.9828 3.59377 54.0788V63.2809C3.59308 63.3774 3.61149 63.473 3.64794 63.5624C3.68439 63.6518 3.73817 63.733 3.80616 63.8015C3.87416 63.87 3.95503 63.9243 4.04412 63.9614C4.13322 63.9985 4.22877 64.0176 4.32527 64.0176ZM5.05547 54.8143H11.8602V62.5559H5.05547V54.8143Z" fill="url(#paint2_linear_159_117)"/>
<path d="M60.3375 4.20703H45.5046C45.108 4.20703 44.7152 4.28515 44.3488 4.43693C43.9824 4.58871 43.6494 4.81118 43.369 5.09164C43.0885 5.37209 42.8661 5.70504 42.7143 6.07147C42.5625 6.4379 42.4844 6.83064 42.4844 7.22727C42.4844 7.62389 42.5625 8.01663 42.7143 8.38306C42.8661 8.74949 43.0885 9.08244 43.369 9.36289C43.6494 9.64335 43.9824 9.86582 44.3488 10.0176C44.7152 10.1694 45.108 10.2475 45.5046 10.2475H45.8972C46.0908 10.2475 46.2766 10.1706 46.4135 10.0336C46.5505 9.89669 46.6274 9.71096 46.6274 9.5173C46.6274 9.32364 46.5505 9.13792 46.4135 9.00098C46.2766 8.86404 46.0908 8.78711 45.8972 8.78711H45.5046C45.2961 8.79315 45.0884 8.75729 44.894 8.68165C44.6995 8.60602 44.5222 8.49213 44.3725 8.34675C44.2229 8.20137 44.1039 8.02744 44.0227 7.83527C43.9414 7.64309 43.8996 7.43656 43.8996 7.22792C43.8996 7.01928 43.9414 6.81275 44.0227 6.62057C44.1039 6.4284 44.2229 6.25447 44.3725 6.10909C44.5222 5.9637 44.6995 5.84982 44.894 5.77419C45.0884 5.69855 45.2961 5.66269 45.5046 5.66873H48.0551V10.0028C48.0565 11.1625 48.475 12.283 49.2342 13.1597C49.9934 14.0364 51.0426 14.6107 52.1902 14.7779V17.6712C52.186 17.7697 52.2019 17.8681 52.2367 17.9604C52.2716 18.0527 52.3247 18.1371 52.393 18.2083C52.4613 18.2795 52.5432 18.3362 52.634 18.3749C52.7248 18.4136 52.8224 18.4336 52.9211 18.4336C53.0197 18.4336 53.1174 18.4136 53.2081 18.3749C53.2989 18.3362 53.3809 18.2795 53.4491 18.2083C53.5174 18.1371 53.5706 18.0527 53.6054 17.9604C53.6403 17.8681 53.6561 17.7697 53.6519 17.6712V14.7779C54.7995 14.6107 55.8488 14.0364 56.6079 13.1597C57.3671 12.283 57.7857 11.1625 57.7871 10.0028V5.66873H60.3375C60.5461 5.66269 60.7537 5.69855 60.9482 5.77419C61.1426 5.84982 61.3199 5.9637 61.4696 6.10909C61.6192 6.25447 61.7382 6.4284 61.8194 6.62057C61.9007 6.81275 61.9425 7.01928 61.9425 7.22792C61.9425 7.43656 61.9007 7.64309 61.8194 7.83527C61.7382 8.02744 61.6192 8.20137 61.4696 8.34675C61.3199 8.49213 61.1426 8.60602 60.9482 8.68165C60.7537 8.75729 60.5461 8.79315 60.3375 8.78711H59.9449C59.7513 8.78711 59.5656 8.86404 59.4286 9.00098C59.2917 9.13792 59.2147 9.32364 59.2147 9.5173C59.2147 9.71096 59.2917 9.89669 59.4286 10.0336C59.5656 10.1706 59.7513 10.2475 59.9449 10.2475H60.3375C60.7341 10.2475 61.1269 10.1694 61.4933 10.0176C61.8597 9.86582 62.1927 9.64335 62.4731 9.36289C62.7536 9.08244 62.9761 8.74949 63.1278 8.38306C63.2796 8.01663 63.3578 7.62389 63.3578 7.22727C63.3578 6.83064 63.2796 6.4379 63.1278 6.07147C62.9761 5.70504 62.7536 5.37209 62.4731 5.09164C62.1927 4.81118 61.8597 4.58871 61.4933 4.43693C61.1269 4.28515 60.7341 4.20703 60.3375 4.20703ZM56.3267 10.0028C56.3256 10.8948 55.9708 11.7499 55.3401 12.3806C54.7094 13.0114 53.8543 13.3661 52.9623 13.3672H52.8798C51.9879 13.3661 51.1327 13.0114 50.502 12.3806C49.8713 11.7499 49.5165 10.8948 49.5155 10.0028V5.66873H56.3267V10.0028Z" fill="url(#paint3_linear_159_117)"/>
<path d="M7.38762 47.1708C7.48359 47.1711 7.57867 47.1524 7.66738 47.1158C7.75609 47.0792 7.83669 47.0254 7.90452 46.9575L21.8528 33.0145C22.3554 32.5135 23.0361 32.2322 23.7457 32.2322C24.4553 32.2322 25.136 32.5135 25.6386 33.0145C26.4138 33.7875 27.4636 34.2223 28.5584 34.2238C29.6532 34.2252 30.7041 33.7933 31.4815 33.0223L38.0519 26.4898C38.0689 26.4728 38.0833 26.4519 38.099 26.4335C38.1147 26.4152 38.1317 26.3969 38.1448 26.3773C38.1579 26.3576 38.171 26.3289 38.1828 26.3053C38.1945 26.2817 38.2037 26.2687 38.2115 26.2503C38.2222 26.2217 38.231 26.1924 38.2377 26.1627C38.2377 26.147 38.2482 26.1313 38.2521 26.1142C38.256 26.0972 38.2587 26.0527 38.2613 26.0213C38.2639 25.9899 38.2613 25.9912 38.2613 25.9755C38.2606 25.9449 38.258 25.9143 38.2534 25.8839C38.2534 25.8682 38.2534 25.8512 38.2534 25.8355C38.2471 25.807 38.2388 25.7791 38.2286 25.7518C38.2286 25.7348 38.2207 25.7164 38.2142 25.7007C38.2028 25.6761 38.1901 25.6521 38.1762 25.6288C38.1677 25.6095 38.1581 25.5907 38.1474 25.5725C38.133 25.5529 38.116 25.5345 38.1003 25.5149C38.0861 25.4953 38.0708 25.4765 38.0545 25.4586L36.458 23.8661L40.8013 22.7001L39.6301 27.0617C39.4787 26.959 39.2942 26.9169 39.1133 26.9436C38.9323 26.9704 38.768 27.0642 38.6528 27.2063C38.5377 27.3484 38.48 27.5286 38.4914 27.7112C38.5027 27.8938 38.5822 28.0655 38.714 28.1923L39.4927 28.9775C39.5605 29.0453 39.6411 29.099 39.7298 29.1356C39.8185 29.1722 39.9136 29.191 40.0096 29.1908C40.0732 29.1909 40.1366 29.1825 40.198 29.1659C40.3218 29.1329 40.4348 29.0678 40.5255 28.9773C40.6162 28.8868 40.6815 28.774 40.7149 28.6503L42.5364 21.8626C42.5699 21.7387 42.57 21.6081 42.5369 21.4841C42.5037 21.3601 42.4385 21.247 42.3477 21.1563C42.257 21.0655 42.1439 21.0003 42.0199 20.9671C41.8959 20.934 41.7653 20.9341 41.6414 20.9675L34.8537 22.7891C34.7298 22.8223 34.6168 22.8874 34.5261 22.9781C34.4354 23.0688 34.3702 23.1818 34.337 23.3057C34.3038 23.4296 34.3039 23.5601 34.3372 23.6839C34.3704 23.8078 34.4358 23.9207 34.5265 24.0113L36.4894 25.9742L30.4385 31.9938C29.936 32.4928 29.2565 32.7729 28.5482 32.7729C27.84 32.7729 27.1605 32.4928 26.658 31.9938C25.8817 31.2187 24.8296 30.7834 23.7326 30.7834C22.6357 30.7834 21.5835 31.2187 20.8073 31.9938L6.87073 45.9237C6.76797 46.0263 6.6981 46.1571 6.67003 46.2995C6.64196 46.4419 6.65698 46.5894 6.71315 46.7233C6.76933 46.8571 6.86412 46.9712 6.98542 47.0509C7.10672 47.1306 7.24902 47.1724 7.39417 47.1708H7.38762Z" fill="url(#paint4_linear_159_117)"/>
<defs>
<linearGradient id="paint0_linear_159_117" x1="55.3178" y1="77.819" x2="43.5897" y2="77.197" gradientUnits="userSpaceOnUse">
<stop stop-color="#FD4C69"/>
<stop offset="0.363056" stop-color="#DB082B" stop-opacity="0.8"/>
<stop offset="0.755208" stop-color="#FD4C69"/>
</linearGradient>
<linearGradient id="paint1_linear_159_117" x1="33.0903" y1="71.0332" x2="21.4512" y2="69.8183" gradientUnits="userSpaceOnUse">
<stop stop-color="#FD4C69"/>
<stop offset="0.363056" stop-color="#DB082B" stop-opacity="0.8"/>
<stop offset="0.755208" stop-color="#FD4C69"/>
</linearGradient>
<linearGradient id="paint2_linear_159_117" x1="10.8598" y1="67.3687" x2="-0.369852" y2="64.9149" gradientUnits="userSpaceOnUse">
<stop stop-color="#FD4C69"/>
<stop offset="0.363056" stop-color="#DB082B" stop-opacity="0.8"/>
<stop offset="0.755208" stop-color="#FD4C69"/>
</linearGradient>
<linearGradient id="paint3_linear_159_117" x1="58.0666" y1="22.9022" x2="35.6081" y2="15.0096" gradientUnits="userSpaceOnUse">
<stop stop-color="#FD4C69"/>
<stop offset="0.363056" stop-color="#DB082B" stop-opacity="0.8"/>
<stop offset="0.755208" stop-color="#FD4C69"/>
</linearGradient>
<linearGradient id="paint4_linear_159_117" x1="33.46" y1="55.4093" x2="-5.72969" y2="42.5593" gradientUnits="userSpaceOnUse">
<stop stop-color="#FD4C69"/>
<stop offset="0.363056" stop-color="#DB082B" stop-opacity="0.8"/>
<stop offset="0.755208" stop-color="#FD4C69"/>
</linearGradient>
</defs>
</svg>
