<svg width="67" height="67" viewBox="0 0 67 67" fill="none" xmlns="http://www.w3.org/2000/svg">
<path d="M21.9471 10.3965C21.9471 6.0069 25.6436 2.31022 30.0333 2.31022C34.423 2.31022 38.1196 6.00678 38.1196 10.3965V16.8655C39.5058 15.0172 40.4299 12.7068 40.4299 10.3965C40.4298 4.62069 35.8091 0 30.0332 0C24.2573 0 19.6367 4.62069 19.6367 10.3965C19.6367 12.9379 20.5609 15.2483 21.9471 16.8655V10.3965Z" fill="url(#paint0_linear_159_168)"/>
<path d="M57.7588 27.7241C56.3726 27.7241 55.2175 28.1861 54.2933 28.8792C54.2933 25.6447 51.7519 23.1034 48.5175 23.1034C47.1313 23.1034 45.745 23.5654 44.5898 24.4896C43.6658 22.1792 41.5864 20.793 39.2761 20.793C37.8899 20.793 36.7348 21.2551 35.8105 21.9481V10.3964C35.8105 7.16192 33.2691 4.62061 30.0347 4.62061C26.8003 4.62061 24.2589 7.16204 24.2589 10.3964V30.9584C19.6382 26.7998 14.5555 23.5653 11.321 26.7998C6.70028 31.4205 16.4037 40.4308 23.7968 54.0619C29.1107 63.5342 36.5038 66.9998 43.8969 66.9998C54.7556 66.9998 63.5348 58.2205 63.5348 47.3619V33.4999C63.5348 30.2655 60.9933 27.7241 57.7588 27.7241ZM61.2243 38.5827V47.362C61.2243 56.3724 53.3691 64.6897 43.8967 64.6897C35.1173 64.6897 30.0346 59.838 25.876 53.138C16.8656 37.8897 10.3966 30.9587 12.938 28.4172C15.4795 25.8759 21.7173 31.4207 26.569 36.5035V10.3964C26.569 8.54813 28.1863 6.93083 30.0346 6.93083C31.8829 6.93083 33.5002 8.54813 33.5002 10.3964V34.655H35.8105V26.5687C35.8105 24.7204 37.4278 23.1031 39.2761 23.1031C41.1244 23.1031 42.7417 24.7204 42.7417 26.5687V32.3445H45.052V28.8789C45.052 27.0306 46.6693 25.4133 48.5176 25.4133C50.3659 25.4133 51.9832 27.0306 51.9832 28.8789V34.6547H54.2935V33.4996C54.2935 31.6513 55.9108 30.034 57.7591 30.034C59.6074 30.034 61.2247 31.6513 61.2247 33.4996V38.5827H61.2243Z" fill="url(#paint1_linear_159_168)"/>
<path d="M5.77507 28.8792C5.77507 24.4896 9.47162 20.7929 13.8613 20.7929C17.0958 20.7929 19.8682 22.6412 21.2544 25.4136C21.4854 25.6447 21.7165 25.6447 21.9475 25.8757V22.1791C20.0992 19.8688 17.0957 18.2515 13.8612 18.2515C8.08553 18.4827 3.46484 23.1034 3.46484 28.8792C3.46484 33.7308 6.69933 37.6585 11.0889 38.8136C10.6269 37.6585 9.93381 36.7343 9.70271 35.5792C7.39237 34.4241 5.77507 31.8827 5.77507 28.8792Z" fill="url(#paint2_linear_159_168)"/>
<defs>
<linearGradient id="paint0_linear_159_168" x1="35.1591" y1="22.1629" x2="12.0399" y2="15.3358" gradientUnits="userSpaceOnUse">
<stop stop-color="#FD4C69"/>
<stop offset="0.363056" stop-color="#DB082B" stop-opacity="0.8"/>
<stop offset="0.755208" stop-color="#FD4C69"/>
</linearGradient>
<linearGradient id="paint1_linear_159_168" x1="49.995" y1="86.5932" x2="-11.9661" y2="73.8852" gradientUnits="userSpaceOnUse">
<stop stop-color="#FD4C69"/>
<stop offset="0.363056" stop-color="#DB082B" stop-opacity="0.8"/>
<stop offset="0.755208" stop-color="#FD4C69"/>
</linearGradient>
<linearGradient id="paint2_linear_159_168" x1="17.2623" y1="45.2722" x2="-4.09008" y2="40.6751" gradientUnits="userSpaceOnUse">
<stop stop-color="#FD4C69"/>
<stop offset="0.363056" stop-color="#DB082B" stop-opacity="0.8"/>
<stop offset="0.755208" stop-color="#FD4C69"/>
</linearGradient>
</defs>
</svg>
