<svg width="67" height="67" viewBox="0 0 67 67" fill="none" xmlns="http://www.w3.org/2000/svg">
<path d="M44.6392 3.85257L18.5471 17.0903C18.4552 17.1325 18.3728 17.1928 18.3048 17.2676C18.2367 17.3424 18.1845 17.4302 18.1512 17.5257C18.118 17.6211 18.1043 17.7224 18.1111 17.8232C18.1178 17.9241 18.1449 18.0226 18.1907 18.1128C18.2364 18.2029 18.2999 18.283 18.3773 18.348C18.4547 18.4131 18.5444 18.4618 18.6412 18.4913C18.7379 18.5209 18.8395 18.5306 18.9401 18.5198C19.0406 18.5091 19.138 18.4782 19.2263 18.429L45.317 5.19126C45.6476 5.02375 46.0312 4.99429 46.3836 5.10936C46.7359 5.22443 47.0281 5.47462 47.1962 5.80499L53.4342 18.1058C53.5288 18.2753 53.6853 18.4017 53.8709 18.4584C54.0566 18.5151 54.257 18.4977 54.4301 18.4099C54.6032 18.322 54.7356 18.1706 54.7995 17.9873C54.8635 17.804 54.8539 17.603 54.7729 17.4266L48.5348 5.12583C48.1865 4.44098 47.5807 3.9223 46.8503 3.68359C46.12 3.44489 45.3248 3.50566 44.6392 3.85257Z" fill="url(#paint0_linear_159_138)"/>
<path d="M47.0046 12.0533C46.9112 12.0223 46.8126 12.0101 46.7144 12.0175C46.6162 12.0249 46.5205 12.0518 46.4328 12.0965C45.691 12.4714 44.8309 12.5371 44.0409 12.279C43.2508 12.021 42.5952 11.4603 42.2178 10.7198C42.1733 10.6319 42.1119 10.5535 42.037 10.4893C41.9622 10.4251 41.8755 10.3763 41.7817 10.3457C41.688 10.3151 41.5892 10.3032 41.4909 10.3108C41.3926 10.3184 41.2968 10.3454 41.2089 10.3901L28.0026 17.0901C27.833 17.1846 27.7066 17.3411 27.6499 17.5268C27.5932 17.7124 27.6106 17.9128 27.6985 18.086C27.7863 18.2591 27.9377 18.3915 28.1211 18.4554C28.3044 18.5193 28.5053 18.5097 28.6817 18.4288L41.273 12.0389C41.8474 12.8206 42.652 13.4029 43.5741 13.7042C44.4961 14.0055 45.4893 14.0107 46.4145 13.7191L48.6391 18.0977C48.7336 18.2672 48.8901 18.3936 49.0758 18.4503C49.2614 18.507 49.4619 18.4896 49.635 18.4018C49.8081 18.3139 49.9405 18.1625 50.0044 17.9792C50.0683 17.7959 50.0588 17.5949 49.9778 17.4185L47.4417 12.4315C47.3974 12.3427 47.336 12.2636 47.261 12.1987C47.186 12.1337 47.0989 12.0843 47.0046 12.0533Z" fill="url(#paint1_linear_159_138)"/>
<path d="M8.43828 63.467H58.7367C59.4733 63.4663 60.1795 63.1734 60.7004 62.6525C61.2212 62.1317 61.5142 61.4255 61.5148 60.6889V46.717H62.0108C62.5961 46.7163 63.1572 46.4835 63.571 46.0697C63.9849 45.6558 64.2177 45.0947 64.2184 44.5094V38.9348C64.2177 38.3495 63.9849 37.7884 63.571 37.3746C63.1572 36.9607 62.5961 36.7279 62.0108 36.7272H50.4284C49.1037 36.7272 47.8332 37.2535 46.8965 38.1902C45.9598 39.1269 45.4335 40.3974 45.4335 41.7221C45.4335 43.0468 45.9598 44.3173 46.8965 45.254C47.8332 46.1908 49.1037 46.717 50.4284 46.717H60.0139V51.5392H45.0475C44.9463 51.535 44.8453 51.5512 44.7506 51.587C44.6558 51.6229 44.5693 51.6775 44.4962 51.7476C44.4231 51.8177 44.365 51.9018 44.3252 51.995C44.2855 52.0882 44.265 52.1884 44.265 52.2897C44.265 52.3909 44.2855 52.4912 44.3252 52.5843C44.365 52.6775 44.4231 52.7617 44.4962 52.8318C44.5693 52.9019 44.6558 52.9565 44.7506 52.9923C44.8453 53.0281 44.9463 53.0444 45.0475 53.0401H60.0139V60.6849C60.0135 61.0236 59.8789 61.3482 59.6394 61.5877C59.4 61.8271 59.0753 61.9618 58.7367 61.9621H8.43828C7.33748 61.9607 6.28217 61.5228 5.50378 60.7445C4.7254 59.9661 4.2875 58.9108 4.28611 57.81V53.0375H35.4437C35.6373 53.0294 35.8203 52.9468 35.9545 52.807C36.0886 52.6671 36.1635 52.4808 36.1635 52.287C36.1635 52.0933 36.0886 51.907 35.9545 51.7671C35.8203 51.6273 35.6373 51.5446 35.4437 51.5366H4.28611V25.6264C4.2875 24.5256 4.7254 23.4703 5.50378 22.6919C6.28217 21.9135 7.33748 21.4756 8.43828 21.4742H58.7367C59.0753 21.4746 59.4 21.6093 59.6394 21.8487C59.8789 22.0881 60.0135 22.4128 60.0139 22.7514V34.3037C60.0097 34.4049 60.0259 34.5059 60.0618 34.6006C60.0976 34.6954 60.1522 34.7819 60.2223 34.855C60.2924 34.9281 60.3765 34.9862 60.4697 35.026C60.5629 35.0657 60.6631 35.0862 60.7644 35.0862C60.8656 35.0862 60.9659 35.0657 61.059 35.026C61.1522 34.9862 61.2364 34.9281 61.3065 34.855C61.3766 34.7819 61.4312 34.6954 61.467 34.6006C61.5028 34.5059 61.5191 34.4049 61.5148 34.3037V22.7567C61.5138 22.0202 61.2208 21.3141 60.7 20.7934C60.1792 20.2726 59.4732 19.9796 58.7367 19.9785H8.43828C6.93951 19.9802 5.50262 20.5764 4.44283 21.6362C3.38304 22.696 2.78689 24.1329 2.78516 25.6316V57.8073C2.78516 59.3073 3.38054 60.7458 4.44052 61.807C5.5005 62.8682 6.93838 63.4653 8.43828 63.467ZM46.9345 41.7195C46.9355 40.7932 47.304 39.9051 47.959 39.25C48.614 38.595 49.5021 38.2266 50.4284 38.2255H62.0108C62.1981 38.2259 62.3776 38.3005 62.5101 38.4329C62.6425 38.5653 62.7171 38.7449 62.7174 38.9322V44.5068C62.7174 44.6942 62.643 44.8739 62.5105 45.0065C62.378 45.139 62.1982 45.2134 62.0108 45.2134H50.4284C49.5021 45.2124 48.614 44.844 47.959 44.1889C47.304 43.5339 46.9355 42.6458 46.9345 41.7195Z" fill="url(#paint2_linear_159_138)"/>
<path d="M50.9017 41.0898C50.8199 41.0347 50.7277 40.9969 50.6308 40.9786C50.5345 40.959 50.4353 40.959 50.339 40.9786C50.2907 40.9882 50.2434 41.0022 50.1976 41.0205C50.1062 41.0586 50.0231 41.1142 49.9529 41.184C49.813 41.3249 49.7345 41.5154 49.7344 41.714C49.7339 41.7633 49.7388 41.8124 49.7488 41.8606C49.7577 41.909 49.7718 41.9564 49.7907 42.0019C49.8101 42.0474 49.8333 42.0912 49.86 42.1328C49.8881 42.173 49.9192 42.2111 49.9529 42.2466C49.9877 42.2818 50.0264 42.313 50.0681 42.3395C50.1095 42.3665 50.1533 42.3898 50.199 42.4089C50.2446 42.4276 50.292 42.442 50.3403 42.4521C50.3881 42.4615 50.4368 42.4663 50.4855 42.4665C50.5347 42.4663 50.5838 42.4615 50.6321 42.4521C50.7289 42.4326 50.8209 42.3944 50.903 42.3395C50.9438 42.3123 50.9819 42.2812 51.0168 42.2466C51.051 42.2117 51.0816 42.1736 51.1084 42.1328C51.1362 42.0918 51.1594 42.0479 51.1778 42.0019C51.1971 41.9565 51.2116 41.9091 51.221 41.8606C51.2314 41.8124 51.2367 41.7633 51.2367 41.714C51.2356 41.5154 51.1566 41.3251 51.0168 41.184C50.9809 41.1498 50.9424 41.1183 50.9017 41.0898Z" fill="url(#paint3_linear_159_138)"/>
<path d="M40.1026 51.5363C39.909 51.5444 39.726 51.627 39.5918 51.7668C39.4577 51.9067 39.3828 52.093 39.3828 52.2868C39.3828 52.4806 39.4577 52.6669 39.5918 52.8067C39.726 52.9466 39.909 53.0292 40.1026 53.0373H40.3748C40.476 53.0415 40.577 53.0252 40.6717 52.9894C40.7665 52.9536 40.853 52.899 40.9261 52.8289C40.9992 52.7588 41.0573 52.6746 41.0971 52.5815C41.1368 52.4883 41.1573 52.3881 41.1573 52.2868C41.1573 52.1855 41.1368 52.0853 41.0971 51.9921C41.0573 51.8989 40.9992 51.8148 40.9261 51.7447C40.853 51.6746 40.7665 51.62 40.6717 51.5842C40.577 51.5484 40.476 51.5321 40.3748 51.5363H40.1026Z" fill="url(#paint4_linear_159_138)"/>
<defs>
<linearGradient id="paint0_linear_159_138" x1="45.5303" y1="23.2306" x2="12.5115" y2="3.84308" gradientUnits="userSpaceOnUse">
<stop stop-color="#FD4C69"/>
<stop offset="0.363056" stop-color="#DB082B" stop-opacity="0.8"/>
<stop offset="0.755208" stop-color="#FD4C69"/>
</linearGradient>
<linearGradient id="paint1_linear_159_138" x1="44.3608" y1="21.0693" x2="25.4063" y2="8.63406" gradientUnits="userSpaceOnUse">
<stop stop-color="#FD4C69"/>
<stop offset="0.363056" stop-color="#DB082B" stop-opacity="0.8"/>
<stop offset="0.755208" stop-color="#FD4C69"/>
</linearGradient>
<linearGradient id="paint2_linear_159_138" x1="48.6458" y1="77.1269" x2="-17.9875" y2="54.5811" gradientUnits="userSpaceOnUse">
<stop stop-color="#FD4C69"/>
<stop offset="0.363056" stop-color="#DB082B" stop-opacity="0.8"/>
<stop offset="0.755208" stop-color="#FD4C69"/>
</linearGradient>
<linearGradient id="paint3_linear_159_138" x1="50.8559" y1="42.9384" x2="49.1383" y2="42.5271" gradientUnits="userSpaceOnUse">
<stop stop-color="#FD4C69"/>
<stop offset="0.363056" stop-color="#DB082B" stop-opacity="0.8"/>
<stop offset="0.755208" stop-color="#FD4C69"/>
</linearGradient>
<linearGradient id="paint4_linear_159_138" x1="40.7075" y1="53.5098" x2="38.7214" y2="52.9479" gradientUnits="userSpaceOnUse">
<stop stop-color="#FD4C69"/>
<stop offset="0.363056" stop-color="#DB082B" stop-opacity="0.8"/>
<stop offset="0.755208" stop-color="#FD4C69"/>
</linearGradient>
</defs>
</svg>
