<svg width="67" height="68" viewBox="0 0 67 68" fill="none" xmlns="http://www.w3.org/2000/svg">
<path d="M47.9315 42.28C47.5676 41.9157 47.0879 41.6901 46.5752 41.6423C46.0626 41.5945 45.5494 41.7275 45.1245 42.0183L43.409 40.304C43.3411 40.2362 43.2605 40.1825 43.1719 40.1458C43.0832 40.1091 42.9882 40.0903 42.8923 40.0904C42.7963 40.0904 42.7013 40.1094 42.6127 40.1461C42.5241 40.1829 42.4436 40.2368 42.3758 40.3047C42.308 40.3725 42.2543 40.4531 42.2176 40.5418C42.181 40.6304 42.1621 40.7254 42.1622 40.8214C42.1622 40.9173 42.1812 41.0123 42.218 41.1009C42.2547 41.1895 42.3086 41.27 42.3765 41.3378L44.0646 43.0233L42.4013 44.6878L39.3811 41.6676C41.6313 39.6577 43.4314 37.1952 44.6636 34.4412C45.8958 31.6873 46.5322 28.7041 46.5313 25.687C46.5313 13.8508 36.9013 4.22607 25.0703 4.22607C13.2393 4.22607 3.60939 13.856 3.60939 25.687C3.60431 30.185 5.01359 34.5708 7.63788 38.2239C10.2622 41.877 13.9686 44.6125 18.2329 46.0435C18.324 46.0748 18.4204 46.0878 18.5166 46.0817C18.6127 46.0756 18.7067 46.0505 18.7931 46.0079C18.8795 45.9653 18.9567 45.906 19.0201 45.8335C19.0835 45.7609 19.1319 45.6766 19.1625 45.5852C19.1932 45.4939 19.2055 45.3974 19.1986 45.3013C19.1918 45.2052 19.1661 45.1114 19.1228 45.0253C19.0796 44.9392 19.0198 44.8625 18.9468 44.7996C18.8738 44.7368 18.789 44.689 18.6975 44.659C14.7211 43.3267 11.2645 40.7774 8.81695 37.3721C6.36937 33.9669 5.0548 29.878 5.05931 25.6844C5.05931 14.6543 14.0336 5.67992 25.0638 5.67992C36.0939 5.67992 45.0696 14.6543 45.0696 25.6844C45.0696 36.7145 36.0952 45.6928 25.0638 45.6928C24.6791 45.6928 24.2917 45.681 23.9057 45.6588L24.526 44.6119C24.6158 44.4455 24.6376 44.2507 24.5869 44.0685C24.5362 43.8863 24.417 43.7308 24.2541 43.6346C24.0912 43.5385 23.8975 43.5091 23.7134 43.5527C23.5294 43.5964 23.3694 43.7096 23.2671 43.8686L21.104 47.5327C20.6864 48.2206 20.0991 48.7897 19.3984 49.1854C18.6976 49.5811 17.907 49.7902 17.1023 49.7926H7.76156C7.57307 49.8006 7.39496 49.8811 7.26441 50.0173C7.13387 50.1535 7.06099 50.3348 7.06099 50.5235C7.06099 50.7121 7.13387 50.8935 7.26441 51.0297C7.39496 51.1659 7.57307 51.2463 7.76156 51.2543H17.1023C18.16 51.251 19.1991 50.9757 20.1197 50.4548C21.0403 49.9339 21.8114 49.1849 22.3589 48.2799L23.0786 47.0629C23.7329 47.1231 24.4016 47.1545 25.0638 47.1545C29.8466 47.1598 34.4928 45.5599 38.2583 42.6111L41.399 45.7517C41.1091 46.1766 40.9766 46.6894 41.0244 47.2016C41.0721 47.7138 41.2972 48.1933 41.6607 48.5573L55.8341 62.732C56.6661 63.5649 57.795 64.0332 58.9724 64.0338C60.1497 64.0345 61.2791 63.5673 62.112 62.7353C62.945 61.9032 63.4133 60.7743 63.4139 59.597C63.4145 58.4196 62.9474 57.2902 62.1153 56.4573L47.9315 42.28ZM61.075 61.6982C60.5162 62.255 59.7596 62.5677 58.9708 62.5677C58.1819 62.5677 57.4253 62.255 56.8665 61.6982L42.6892 47.5209C42.5497 47.3809 42.4714 47.1912 42.4714 46.9935C42.4714 46.7958 42.5497 46.6062 42.6892 46.4662L45.8429 43.3125C45.9828 43.1726 46.1725 43.0941 46.3703 43.0941C46.5681 43.0941 46.7578 43.1726 46.8977 43.3125L61.075 57.4898C61.3513 57.7661 61.5705 58.0941 61.7201 58.4552C61.8696 58.8162 61.9466 59.2032 61.9466 59.594C61.9466 59.9848 61.8696 60.3717 61.7201 60.7328C61.5705 61.0938 61.3513 61.4219 61.075 61.6982Z" fill="url(#paint0_linear_159_126)"/>
<path d="M14.4472 13.5512C14.3635 13.6245 14.281 13.6991 14.1986 13.7737C14.0556 13.9044 13.9704 14.0865 13.9617 14.28C13.953 14.4735 14.0215 14.6625 14.1521 14.8055C14.2828 14.9485 14.4649 15.0337 14.6584 15.0425C14.8519 15.0512 15.041 14.9827 15.184 14.852L15.4104 14.6505C15.5561 14.5227 15.6452 14.3424 15.6579 14.149C15.6707 13.9556 15.6061 13.7651 15.4784 13.6193C15.3507 13.4735 15.1703 13.3845 14.9769 13.3717C14.7835 13.3589 14.593 13.4235 14.4472 13.5512Z" fill="url(#paint1_linear_159_126)"/>
<path d="M12.058 17.4233C11.8898 17.3272 11.6904 17.3018 11.5034 17.3526C11.3165 17.4034 11.1573 17.5262 11.0609 17.6942C9.16058 21.0262 8.51177 24.927 9.23116 28.6948C9.95055 32.4625 11.9909 35.8499 14.9852 38.2474C17.9794 40.6449 21.7309 41.8952 25.5648 41.7732C29.3987 41.6513 33.0632 40.1652 35.8991 37.5823C38.7349 34.9994 40.5559 31.4892 41.0345 27.6834C41.513 23.8775 40.6177 20.0258 38.5095 16.8213C36.4013 13.6167 33.2188 11.2697 29.5344 10.2024C25.8501 9.13519 21.9058 9.4178 18.4112 10.9994C18.3238 11.039 18.2451 11.0955 18.1795 11.1655C18.114 11.2355 18.0628 11.3178 18.029 11.4076C17.9953 11.4974 17.9795 11.593 17.9827 11.6889C17.9858 11.7848 18.0078 11.8791 18.0474 11.9665C18.087 12.0539 18.1435 12.1326 18.2135 12.1982C18.2836 12.2637 18.3658 12.3149 18.4556 12.3487C18.5454 12.3824 18.641 12.3982 18.7369 12.395C18.8328 12.3919 18.9271 12.3699 19.0145 12.3303C20.9132 11.4647 22.9761 11.0184 25.0628 11.0217C28.2856 11.0217 31.4185 12.0839 33.9768 14.044C36.535 16.0041 38.3758 18.7528 39.2143 21.8645C40.0528 24.9763 39.8423 28.2778 38.6153 31.2578C37.3884 34.2379 35.2133 36.7305 32.4269 38.3498C29.6404 39.9691 26.398 40.6248 23.2013 40.2155C20.0046 39.8061 17.0319 38.3545 14.7434 36.0854C12.4549 33.8162 10.9781 30.856 10.5416 27.6629C10.1052 24.4698 10.7333 21.2219 12.3289 18.4218C12.3767 18.3384 12.4076 18.2465 12.4198 18.1512C12.432 18.0559 12.4254 17.9592 12.4002 17.8664C12.3751 17.7737 12.3319 17.6869 12.2732 17.6108C12.2145 17.5348 12.1414 17.4711 12.058 17.4233Z" fill="url(#paint2_linear_159_126)"/>
<path d="M7.49745 59.6179H15.7795C15.968 59.61 16.1461 59.5295 16.2767 59.3933C16.4072 59.2571 16.4801 59.0757 16.4801 58.8871C16.4801 58.6984 16.4072 58.5171 16.2767 58.3809C16.1461 58.2447 15.968 58.1642 15.7795 58.1562H7.49745C7.30896 58.1642 7.13085 58.2447 7.0003 58.3809C6.86976 58.5171 6.79688 58.6984 6.79688 58.8871C6.79688 59.0757 6.86976 59.2571 7.0003 59.3933C7.13085 59.5295 7.30896 59.61 7.49745 59.6179Z" fill="url(#paint3_linear_159_126)"/>
<path d="M18.3469 55.2983C18.5405 55.2983 18.7263 55.2213 18.8632 55.0844C19.0001 54.9475 19.0771 54.7617 19.0771 54.5681C19.0771 54.3744 19.0001 54.1887 18.8632 54.0518C18.7263 53.9148 18.5405 53.8379 18.3469 53.8379H14.2614C14.0678 53.8379 13.8821 53.9148 13.7451 54.0518C13.6082 54.1887 13.5312 54.3744 13.5312 54.5681C13.5312 54.7617 13.6082 54.9475 13.7451 55.0844C13.8821 55.2213 14.0678 55.2983 14.2614 55.2983H18.3469Z" fill="url(#paint4_linear_159_126)"/>
<path d="M7.49582 55.2983H11.6441C11.8377 55.2983 12.0235 55.2213 12.1604 55.0844C12.2973 54.9475 12.3743 54.7617 12.3743 54.5681C12.3743 54.3744 12.2973 54.1887 12.1604 54.0518C12.0235 53.9148 11.8377 53.8379 11.6441 53.8379H7.49582C7.30216 53.8379 7.11643 53.9148 6.97949 54.0518C6.84256 54.1887 6.76562 54.3744 6.76562 54.5681C6.76562 54.7617 6.84256 54.9475 6.97949 55.0844C7.11643 55.2213 7.30216 55.2983 7.49582 55.2983Z" fill="url(#paint5_linear_159_126)"/>
<path d="M33.4997 34.0846C33.6934 34.0846 33.8791 34.0077 34.0161 33.8708C34.153 33.7338 34.2299 33.5481 34.2299 33.3545V17.5061C34.2299 17.3124 34.153 17.1267 34.0161 16.9897C33.8791 16.8528 33.6934 16.7759 33.4997 16.7759H30.0974C29.9037 16.7759 29.718 16.8528 29.5811 16.9897C29.4441 17.1267 29.3672 17.3124 29.3672 17.5061V33.3545C29.3672 33.5481 29.4441 33.7338 29.5811 33.8708C29.718 34.0077 29.9037 34.0846 30.0974 34.0846H33.4997ZM30.8223 18.235H32.7695V32.6295H30.8223V18.235Z" fill="url(#paint6_linear_159_126)"/>
<path d="M26.5075 34.0845C26.7012 34.0845 26.8869 34.0076 27.0239 33.8706C27.1608 33.7337 27.2377 33.548 27.2377 33.3543V22.3477C27.2379 22.2517 27.2191 22.1566 27.1825 22.0679C27.1459 21.9791 27.0922 21.8985 27.0243 21.8305C26.9565 21.7626 26.876 21.7087 26.7873 21.6719C26.6986 21.6351 26.6035 21.6162 26.5075 21.6162H23.1052C23.0092 21.6162 22.9141 21.6351 22.8255 21.6719C22.7368 21.7087 22.6562 21.7626 22.5884 21.8305C22.5206 21.8985 22.4668 21.9791 22.4302 22.0679C22.3936 22.1566 22.3748 22.2517 22.375 22.3477V33.3556C22.375 33.5493 22.4519 33.735 22.5889 33.8719C22.7258 34.0089 22.9115 34.0858 23.1052 34.0858L26.5075 34.0845ZM23.8315 23.0766H25.78V32.6293H23.8315V23.0766Z" fill="url(#paint7_linear_159_126)"/>
<path d="M15.375 33.354C15.375 33.5477 15.4519 33.7334 15.5889 33.8704C15.7258 34.0073 15.9115 34.0842 16.1052 34.0842H19.5075C19.7012 34.0842 19.8869 34.0073 20.0239 33.8704C20.1608 33.7334 20.2377 33.5477 20.2377 33.354V26.5847C20.2377 26.391 20.1608 26.2053 20.0239 26.0684C19.8869 25.9314 19.7012 25.8545 19.5075 25.8545H16.1052C15.9115 25.8545 15.7258 25.9314 15.5889 26.0684C15.4519 26.2053 15.375 26.391 15.375 26.5847V33.354ZM16.8367 27.3201H18.7826V32.6291H16.8367V27.3201Z" fill="url(#paint8_linear_159_126)"/>
<defs>
<linearGradient id="paint0_linear_159_126" x1="48.2541" y1="82.8196" x2="-20.1167" y2="66.4442" gradientUnits="userSpaceOnUse">
<stop stop-color="#FD4C69"/>
<stop offset="0.363056" stop-color="#DB082B" stop-opacity="0.8"/>
<stop offset="0.755208" stop-color="#FD4C69"/>
</linearGradient>
<linearGradient id="paint1_linear_159_126" x1="15.229" y1="15.5687" x2="13.2903" y2="15.0973" gradientUnits="userSpaceOnUse">
<stop stop-color="#FD4C69"/>
<stop offset="0.363056" stop-color="#DB082B" stop-opacity="0.8"/>
<stop offset="0.755208" stop-color="#FD4C69"/>
</linearGradient>
<linearGradient id="paint2_linear_159_126" x1="32.9942" y1="51.9002" x2="-3.83505" y2="43.0787" gradientUnits="userSpaceOnUse">
<stop stop-color="#FD4C69"/>
<stop offset="0.363056" stop-color="#DB082B" stop-opacity="0.8"/>
<stop offset="0.755208" stop-color="#FD4C69"/>
</linearGradient>
<linearGradient id="paint3_linear_159_126" x1="14.0255" y1="60.0771" x2="10.6981" y2="54.7972" gradientUnits="userSpaceOnUse">
<stop stop-color="#FD4C69"/>
<stop offset="0.363056" stop-color="#DB082B" stop-opacity="0.8"/>
<stop offset="0.755208" stop-color="#FD4C69"/>
</linearGradient>
<linearGradient id="paint4_linear_159_126" x1="17.6713" y1="55.757" x2="14.0026" y2="52.42" gradientUnits="userSpaceOnUse">
<stop stop-color="#FD4C69"/>
<stop offset="0.363056" stop-color="#DB082B" stop-opacity="0.8"/>
<stop offset="0.755208" stop-color="#FD4C69"/>
</linearGradient>
<linearGradient id="paint5_linear_159_126" x1="10.9525" y1="55.757" x2="7.2802" y2="52.3789" gradientUnits="userSpaceOnUse">
<stop stop-color="#FD4C69"/>
<stop offset="0.363056" stop-color="#DB082B" stop-opacity="0.8"/>
<stop offset="0.755208" stop-color="#FD4C69"/>
</linearGradient>
<linearGradient id="paint6_linear_159_126" x1="32.9973" y1="39.5214" x2="27.1456" y2="39.1276" gradientUnits="userSpaceOnUse">
<stop stop-color="#FD4C69"/>
<stop offset="0.363056" stop-color="#DB082B" stop-opacity="0.8"/>
<stop offset="0.755208" stop-color="#FD4C69"/>
</linearGradient>
<linearGradient id="paint7_linear_159_126" x1="26.0051" y1="38.0025" x2="20.1778" y2="37.4582" gradientUnits="userSpaceOnUse">
<stop stop-color="#FD4C69"/>
<stop offset="0.363056" stop-color="#DB082B" stop-opacity="0.8"/>
<stop offset="0.755208" stop-color="#FD4C69"/>
</linearGradient>
<linearGradient id="paint8_linear_159_126" x1="19.0051" y1="36.6692" x2="13.2423" y2="35.8536" gradientUnits="userSpaceOnUse">
<stop stop-color="#FD4C69"/>
<stop offset="0.363056" stop-color="#DB082B" stop-opacity="0.8"/>
<stop offset="0.755208" stop-color="#FD4C69"/>
</linearGradient>
</defs>
</svg>
