<svg width="67" height="67" viewBox="0 0 67 67" fill="none" xmlns="http://www.w3.org/2000/svg">
<path d="M65.4202 30.3692L63.3334 28.8493C61.5238 27.5529 63.4794 25.4846 64.2009 24.1881C64.5162 23.6653 64.7042 23.0758 64.7499 22.467C64.7955 21.8582 64.6975 21.2472 64.4637 20.6832C64.2299 20.1193 63.8669 19.6181 63.4039 19.22C62.9409 18.8219 62.3908 18.5382 61.798 18.3915L59.2819 17.7955C58.8302 17.6859 58.4363 17.4105 58.1784 17.024C57.9205 16.6375 57.8174 16.1682 57.8897 15.7093L58.2981 13.1522C58.3896 12.5485 58.3379 11.9318 58.1472 11.3518C57.9564 10.7718 57.6319 10.2447 57.1999 9.81311C56.7679 9.38153 56.2405 9.05751 55.6601 8.8672C55.0798 8.67689 54.4628 8.62563 53.859 8.71755L51.3011 9.12585C49.0861 9.4656 49.0354 6.65818 48.618 5.21573C48.4697 4.6243 48.1846 4.07595 47.7856 3.61479C47.3866 3.15364 46.8848 2.79256 46.3207 2.56062C45.7567 2.32869 45.146 2.23237 44.5379 2.27942C43.9298 2.32647 43.3412 2.51557 42.8196 2.83151L40.6135 4.18754C40.217 4.42782 39.7449 4.51091 39.2902 4.42044C38.8355 4.32997 38.4312 4.07249 38.1569 3.69877L36.6455 1.58576C36.2834 1.09411 35.8107 0.694427 35.2657 0.418972C34.7206 0.143517 34.1185 0 33.5077 0C32.897 0 32.2948 0.143517 31.7498 0.418972C31.2047 0.694427 30.7321 1.09411 30.37 1.58576L28.8496 3.67195C27.5527 5.47799 25.4808 3.52592 24.1869 2.80469C23.6643 2.48884 23.0747 2.30023 22.4657 2.25408C21.8567 2.20793 21.2454 2.30553 20.6811 2.53902C20.1167 2.7725 19.6152 3.13532 19.217 3.59821C18.8188 4.0611 18.5349 4.61109 18.3884 5.20381L17.7922 7.72214C17.6832 8.17399 17.4079 8.56819 17.0211 8.82614C16.6343 9.08409 16.1645 9.18685 15.7053 9.11393L13.1475 8.70563C12.5413 8.61101 11.9214 8.6608 11.3382 8.85095C10.7549 9.04109 10.2249 9.36622 9.79108 9.79987C9.35729 10.2335 9.03205 10.7634 8.84185 11.3465C8.65164 11.9295 8.60183 12.5492 8.69648 13.1552L9.10491 15.7093C9.44775 17.9266 6.63646 17.9743 5.19355 18.3915C4.60193 18.5398 4.0534 18.8248 3.5921 19.2237C3.13079 19.6226 2.7696 20.1242 2.53759 20.6881C2.30558 21.252 2.20923 21.8624 2.2563 22.4704C2.30336 23.0783 2.49253 23.6666 2.80857 24.1881L4.16204 26.3935C4.40378 26.7895 4.48769 27.2619 4.39711 27.7168C4.30653 28.1718 4.04809 28.576 3.67312 28.8493L1.58627 30.3692C1.09445 30.7312 0.694649 31.2037 0.419106 31.7486C0.143563 32.2934 0 32.8954 0 33.506C0 34.1165 0.143563 34.7185 0.419106 35.2634C0.694649 35.8082 1.09445 36.2807 1.58627 36.6427L3.67312 38.1597C5.48272 39.4561 3.53002 41.5274 2.80857 42.8238C2.49261 43.3463 2.30394 43.9357 2.25778 44.5445C2.21161 45.1533 2.30925 45.7644 2.54281 46.3285C2.77637 46.8927 3.13931 47.394 3.60234 47.7921C4.06538 48.1902 4.61555 48.474 5.20845 48.6204L7.72759 49.2165C8.17887 49.3267 8.57234 49.6022 8.83015 49.9885C9.08797 50.3748 9.19134 50.8438 9.11982 51.3027L8.71139 53.8597C8.62055 54.4617 8.6721 55.0765 8.86192 55.655C9.05173 56.2334 9.37453 56.7593 9.8044 57.1905C10.2343 57.6217 10.7593 57.9461 11.3372 58.1379C11.9152 58.3296 12.5301 58.3832 13.1325 58.2944L15.6904 57.8861C17.9114 57.5523 17.9532 60.3478 18.3735 61.7932C18.5197 62.3862 18.8032 62.9365 19.2013 63.3997C19.5994 63.863 20.1008 64.2262 20.6652 64.4599C21.2296 64.6937 21.841 64.7916 22.4502 64.7456C23.0593 64.6997 23.6492 64.5112 24.172 64.1953L26.3781 62.8393C26.7744 62.5983 27.2467 62.5148 27.7016 62.6053C28.1565 62.6959 28.5609 62.9538 28.8347 63.3281L30.3551 65.4142C30.7172 65.9059 31.1898 66.3056 31.7349 66.581C32.2799 66.8565 32.8821 67 33.4928 67C34.1035 67 34.7057 66.8565 35.2508 66.581C35.7958 66.3056 36.2684 65.9059 36.6306 65.4142L38.148 63.3281C39.4478 61.519 41.5168 63.4741 42.8106 64.1953C43.3335 64.5112 43.9233 64.6997 44.5325 64.7456C45.1416 64.7916 45.7531 64.6937 46.3174 64.4599C46.8818 64.2262 47.3833 63.863 47.7813 63.3997C48.1794 62.9365 48.463 62.3862 48.6091 61.7932L49.2053 59.2779C49.3156 58.8267 49.5912 58.4334 49.9776 58.1756C50.3641 57.9179 50.8332 57.8146 51.2922 57.8861L53.8501 58.2944C54.4539 58.3851 55.0706 58.3329 55.6506 58.142C56.2306 57.951 56.7577 57.6267 57.1895 57.1951C57.6213 56.7634 57.9457 56.2365 58.1367 55.6567C58.3277 55.0769 58.3799 54.4604 58.2891 53.8567L57.8807 51.2997C57.5379 49.0853 60.3462 49.0347 61.7891 48.6174C62.3819 48.4708 62.932 48.187 63.395 47.7889C63.858 47.3909 64.221 46.8897 64.4548 46.3257C64.6886 45.7617 64.7866 45.1507 64.7409 44.542C64.6953 43.9332 64.5072 43.3436 64.192 42.8208L62.8355 40.6154C62.5943 40.2188 62.5107 39.7462 62.6012 39.2909C62.6917 38.8356 62.9498 38.4309 63.3244 38.1567L65.4113 36.6397C65.903 36.2784 66.303 35.8066 66.5789 35.2624C66.8549 34.7182 66.9991 34.1168 67 33.5067C67.0009 32.8966 66.8584 32.2948 66.584 31.7499C66.3096 31.2049 65.9109 30.732 65.4202 30.3692ZM64.2277 34.9976L62.1409 36.5145C61.3526 37.0902 60.8094 37.9409 60.6189 38.898C60.4284 39.8551 60.6045 40.8489 61.1124 41.6823L62.4688 43.8877C62.6188 44.1361 62.7084 44.4162 62.7302 44.7055C62.752 44.9948 62.7054 45.2852 62.5943 45.5532C62.4832 45.8212 62.3106 46.0593 62.0904 46.2484C61.8703 46.4374 61.6088 46.5721 61.327 46.6415L58.8079 47.2376C57.86 47.468 57.0331 48.0458 56.491 48.8565C55.9489 49.6672 55.7309 50.6519 55.8803 51.6156C55.925 52.6289 56.8313 54.9535 55.773 55.7641C54.9531 56.84 52.6815 55.9221 51.6231 55.8744C50.659 55.7207 49.6723 55.9364 48.8604 56.4784C48.0485 57.0205 47.4711 57.8489 47.2437 58.798L46.6475 61.3164C46.5782 61.5985 46.4434 61.8604 46.2541 62.0808C46.0648 62.3012 45.8262 62.474 45.5578 62.5851C45.2892 62.6962 44.9983 62.7426 44.7086 62.7205C44.4188 62.6984 44.1383 62.6084 43.8898 62.4578L41.6837 61.1018C40.8503 60.595 39.8569 60.4194 38.9001 60.6098C37.9434 60.8002 37.093 61.3427 36.5173 62.13L34.9998 64.2162C34.8221 64.4413 34.5956 64.6232 34.3374 64.7483C34.0793 64.8734 33.7961 64.9384 33.5092 64.9384C33.2223 64.9384 32.9392 64.8734 32.681 64.7483C32.4228 64.6232 32.1964 64.4413 32.0186 64.2162L30.4982 62.13C29.922 61.339 29.0693 60.7935 28.1094 60.6019C27.1495 60.4103 26.1527 60.5866 25.3168 61.0958L23.1107 62.4519C22.8632 62.6054 22.5826 62.6977 22.2922 62.721C22.0018 62.7443 21.7101 62.698 21.4412 62.586C20.1354 62.2373 20.1116 59.7875 19.7538 58.7921C19.5227 57.8444 18.944 57.0181 18.1324 56.4767C17.3209 55.9353 16.3355 55.7182 15.3714 55.8684L12.8165 56.2767C12.5294 56.3201 12.236 56.2955 11.9601 56.2048C11.6842 56.1141 11.4335 55.9599 11.2281 55.7546C11.0227 55.5493 10.8685 55.2987 10.7778 55.0228C10.687 54.747 10.6624 54.4538 10.7058 54.1667L11.1143 51.6096C11.2636 50.6459 11.0457 49.6613 10.5036 48.8505C9.96141 48.0398 9.13459 47.462 8.18669 47.2316C7.23568 46.8859 4.7404 46.8322 4.39458 45.5448C3.71486 44.3765 5.43204 42.6271 5.88519 41.6704C6.39285 40.8374 6.56887 39.8442 6.37837 38.8875C6.18786 37.9309 5.64474 37.0807 4.85667 36.5056L2.76981 34.9886C2.53677 34.8163 2.34741 34.5917 2.21693 34.3329C2.08645 34.0741 2.01848 33.7883 2.01848 33.4985C2.01848 33.2087 2.08645 32.9229 2.21693 32.6641C2.34741 32.4054 2.53677 32.1808 2.76981 32.0084L4.85667 30.4884C5.64141 29.9127 6.18176 29.0638 6.37107 28.1093C6.56037 27.1548 6.38488 26.164 5.87923 25.3326C5.44993 24.4146 3.7238 22.6146 4.38862 21.4582C4.73444 20.1529 7.18798 20.129 8.18073 19.7684C9.13076 19.5417 9.96014 18.9648 10.5029 18.1531C11.0458 17.3413 11.262 16.3546 11.1083 15.3904C11.0636 14.3771 10.1573 12.0555 11.2186 11.2418C12.0384 10.1719 14.3101 11.0839 15.3655 11.1346C16.3299 11.284 17.3152 11.0662 18.1267 10.5243C18.9382 9.98236 19.5167 9.15575 19.7479 8.20792L20.3441 5.69257C20.414 5.4108 20.549 5.14937 20.7385 4.92933C20.9279 4.70929 21.1663 4.53679 21.4346 4.42574C21.7029 4.31468 21.9936 4.26817 22.2831 4.28995C22.5727 4.31173 22.8531 4.40119 23.1018 4.55113L25.3079 5.90417C26.141 6.41129 27.1341 6.58733 28.0908 6.39749C29.0476 6.20764 29.8981 5.66572 30.4743 4.87896C31.16 4.12793 32.1617 1.84504 33.4854 2.02088C34.8269 1.83908 35.7839 4.10707 36.4964 4.87896C37.0721 5.66629 37.9228 6.20865 38.8797 6.39853C39.8366 6.58842 40.8299 6.41197 41.6629 5.90417C42.5841 5.47501 44.3817 3.74944 45.5384 4.41404C46.8472 4.75975 46.8681 7.20953 47.2288 8.20494C47.4593 9.15253 48.0372 9.97909 48.8482 10.5211C49.6592 11.063 50.6442 11.2809 51.6082 11.1316C52.6218 11.0869 54.9472 10.1779 55.7581 11.2389C56.8343 12.0614 55.9161 14.3324 55.8654 15.3874C55.7117 16.3516 55.9279 17.3383 56.4707 18.1501C57.0135 18.9618 57.8429 19.5387 58.793 19.7654L61.3121 20.3615C61.5939 20.4309 61.8554 20.5655 62.0755 20.7546C62.2957 20.9436 62.4683 21.1818 62.5794 21.4498C62.6905 21.7178 62.7371 22.0082 62.7153 22.2975C62.6935 22.5868 62.6039 22.8669 62.4539 23.1152L61.0915 25.3326C60.5845 26.1657 60.4089 27.1588 60.5994 28.1153C60.7898 29.0717 61.3325 29.9218 62.12 30.4974L64.2069 32.0173C64.4417 32.1877 64.6331 32.4108 64.7658 32.6687C64.8985 32.9267 64.9687 33.2122 64.9707 33.5022C64.9727 33.7922 64.9065 34.0786 64.7775 34.3384C64.6484 34.5982 64.4601 34.824 64.2277 34.9976ZM56.1784 33.5075C54.9591 63.5873 12.0176 63.5933 10.7953 33.5075C10.8286 29.4637 11.9373 25.5017 14.0078 22.0277C16.0782 18.5537 19.0357 15.6927 22.5771 13.7384C26.1184 11.784 30.116 10.8065 34.1599 10.9062C38.2038 11.0058 42.1484 12.1791 45.5891 14.3056C45.8085 14.453 45.9618 14.6799 46.0165 14.9384C46.0713 15.1969 46.0232 15.4665 45.8825 15.6902C45.7417 15.9138 45.5194 16.0738 45.2626 16.1364C45.0059 16.1989 44.7348 16.159 44.5069 16.0252C41.3745 14.0909 37.7838 13.024 34.103 12.9339C30.4223 12.8439 26.7837 13.7338 23.5603 15.5126C20.3369 17.2913 17.6446 19.8949 15.7593 23.0565C13.874 26.218 12.8635 29.8239 12.8314 33.5045C13.8689 60.8634 53.1137 60.8634 54.1512 33.5045C54.1512 33.2349 54.2583 32.9764 54.449 32.7859C54.6396 32.5953 54.8982 32.4882 55.1678 32.4882C55.4374 32.4882 55.696 32.5953 55.8866 32.7859C56.0773 32.9764 56.1844 33.2349 56.1844 33.5045L56.1784 33.5075ZM22.112 26.1313C21.9686 25.9931 21.788 25.8998 21.5923 25.8628C21.3967 25.8258 21.1945 25.8467 21.0105 25.923C20.8266 25.9993 20.6689 26.1276 20.5569 26.2922C20.4449 26.4568 20.3833 26.6505 20.3799 26.8495V36.9824C20.3801 37.2519 20.4873 37.5103 20.678 37.7007L31.2166 48.233C31.4073 48.4233 31.6657 48.5303 31.9351 48.5303C32.2046 48.5303 32.463 48.4233 32.6536 48.233L51.8258 29.0668C52.016 28.876 52.1231 28.6179 52.124 28.3486V18.2157C52.1247 18.0148 52.0656 17.8182 51.9543 17.6509C51.8429 17.4836 51.6844 17.3532 51.4987 17.2762C51.3131 17.1992 51.1087 17.1792 50.9116 17.2186C50.7146 17.2579 50.5336 17.355 50.3919 17.4974L31.9381 35.9453L22.112 26.1313ZM50.0878 20.6655V27.9284L31.9321 46.0782L22.4101 36.5622V29.2993L31.2137 38.1C31.4043 38.2904 31.6627 38.3973 31.9321 38.3973C32.2016 38.3973 32.46 38.2904 32.6506 38.1L50.0878 20.6655Z" fill="url(#paint0_linear_159_111)"/>
<defs>
<linearGradient id="paint0_linear_159_111" x1="50.0163" y1="88.0449" x2="-26.5803" y2="69.6983" gradientUnits="userSpaceOnUse">
<stop stop-color="#FD4C69"/>
<stop offset="0.363056" stop-color="#DB082B" stop-opacity="0.8"/>
<stop offset="0.755208" stop-color="#FD4C69"/>
</linearGradient>
</defs>
</svg>
