<svg width="70" height="70" viewBox="0 0 70 70" fill="none" xmlns="http://www.w3.org/2000/svg">
<path d="M36.0947 50.772C31.463 50.88 26.9686 49.1951 23.5494 46.0688C22.2282 44.7893 21.1738 43.2605 20.4473 41.5708C19.7207 39.8812 19.3364 38.0642 19.3166 36.2251C19.3014 32.582 20.3382 29.012 22.3025 25.9438C24.0239 23.2094 26.4899 21.0231 29.4109 19.6417C32.3318 18.2603 35.5864 17.7413 38.7921 18.1456C41.9978 18.5499 45.0216 19.8608 47.5081 21.9241C49.9946 23.9875 51.8405 26.7177 52.8291 29.7938C53.5322 32.141 53.7006 34.6158 53.3221 37.0365C52.9436 39.4573 52.0276 41.7625 50.6416 43.7829C48.1259 47.5892 43.6197 50.0938 38.2822 50.6517C37.5555 50.7285 36.8254 50.7686 36.0947 50.772ZM23.6916 26.8735C20.6619 31.7188 19.0978 39.3751 24.6869 44.8438C27.8697 47.961 32.89 49.4923 38.0963 48.9563C42.9416 48.4532 47.0213 46.222 49.2853 42.8204C50.5187 41.0082 51.3325 38.9437 51.6674 36.7773C52.0023 34.6109 51.8499 32.397 51.2213 30.297C50.3227 27.5271 48.6529 25.0708 46.4078 23.2163C44.1627 21.3617 41.4354 20.1858 38.5456 19.8265C35.6559 19.4671 32.7235 19.9392 30.0926 21.1874C27.4617 22.4356 25.2412 24.4081 23.6916 26.8735Z" fill="url(#paint0_linear_159_148)"/>
<path d="M36.761 50.5861C36.5503 50.587 36.3469 50.5088 36.191 50.3671C36.0351 50.2254 35.938 50.0303 35.9188 49.8205C35.1645 41.3151 34.8907 32.7739 35.0985 24.2377C35.0985 22.7174 35.186 21.1752 35.2407 19.6767C35.2435 19.5666 35.2682 19.4581 35.3133 19.3576C35.3584 19.2571 35.423 19.1666 35.5034 19.0913C35.5838 19.016 35.6784 18.9574 35.7816 18.919C35.8849 18.8805 35.9947 18.863 36.1048 18.8674C36.2163 18.8702 36.3262 18.8951 36.4281 18.9408C36.5299 18.9864 36.6216 19.0519 36.698 19.1333C36.7743 19.2147 36.8337 19.3105 36.8727 19.415C36.9117 19.5196 36.9295 19.6308 36.9251 19.7424C36.9251 21.2299 36.8157 22.7611 36.7829 24.2705C36.5767 32.7446 36.8469 41.2236 37.5923 49.6674C37.6136 49.8892 37.5462 50.1104 37.4048 50.2827C37.2633 50.4549 37.0594 50.564 36.8376 50.5861H36.761Z" fill="url(#paint1_linear_159_148)"/>
<path d="M34.2318 27.3435C33.4771 27.3435 32.7333 27.3435 32.0443 27.3435C29.7583 27.267 27.4505 26.9498 26.0396 25.2107L25.9849 25.1451C25.8869 25.0149 25.7771 24.8941 25.6568 24.7842C25.4375 24.8065 25.218 24.7442 25.0431 24.61C24.8682 24.4758 24.7513 24.2799 24.7161 24.0623C24.6669 23.8434 24.7058 23.6139 24.8246 23.4235C24.9433 23.2331 25.1323 23.0972 25.3505 23.0451C25.727 23.003 26.1076 23.0716 26.4456 23.2426C26.7836 23.4135 27.0645 23.6794 27.2536 24.0076L27.3411 24.0623C28.3365 25.2763 30.2177 25.506 32.099 25.5717C34.5677 25.7243 37.0458 25.5848 39.4818 25.156C41.8451 24.7316 44.0298 23.6164 45.7599 21.9513C45.8381 21.873 45.931 21.8108 46.0333 21.7684C46.1356 21.7259 46.2452 21.7041 46.356 21.7041C46.4667 21.7041 46.5764 21.7259 46.6787 21.7684C46.7809 21.8108 46.8738 21.873 46.9521 21.9513C47.0318 22.0288 47.0951 22.1215 47.1384 22.2239C47.1817 22.3263 47.204 22.4363 47.204 22.5474C47.204 22.6586 47.1817 22.7686 47.1384 22.871C47.0951 22.9734 47.0318 23.0661 46.9521 23.1435C44.9848 25.0446 42.5004 26.323 39.8099 26.8185C37.9732 27.1824 36.1041 27.3583 34.2318 27.3435Z" fill="url(#paint2_linear_159_148)"/>
<path d="M25.7452 47.0311C25.6174 47.0308 25.4913 47.0022 25.376 46.9474C25.2606 46.8925 25.1588 46.8128 25.078 46.7139C24.9392 46.5397 24.8751 46.3176 24.8997 46.0962C24.9243 45.8748 25.0356 45.6722 25.2092 45.5327C26.1785 44.8911 27.2078 44.3453 28.2827 43.903C30.0277 43.2045 31.8747 42.7944 33.7514 42.6889C35.7447 42.4318 37.7628 42.4318 39.7561 42.6889C42.8842 43.2139 45.9577 43.903 47.2373 45.4233C47.3799 45.5934 47.4496 45.8129 47.4311 46.0342C47.4127 46.2554 47.3077 46.4603 47.1389 46.6045C46.967 46.7477 46.7457 46.8177 46.5227 46.7993C46.2997 46.7809 46.0928 46.6756 45.9467 46.5061C44.853 45.2483 40.9592 44.603 39.4717 44.3186C37.6274 44.0782 35.7598 44.0782 33.9155 44.3186C31.1899 44.4522 28.5483 45.305 26.2592 46.7905C26.1214 46.9285 25.9394 47.0137 25.7452 47.0311Z" fill="url(#paint3_linear_159_148)"/>
<path d="M26.2508 37.2422C25.157 37.2422 24.1617 37.2422 23.1555 37.1328C22.1492 37.0235 21.1211 37.0125 20.1039 37.0125C19.8805 37.0125 19.6663 36.9238 19.5084 36.7659C19.3504 36.6079 19.2617 36.3937 19.2617 36.1703C19.2617 35.947 19.3504 35.7328 19.5084 35.5748C19.6663 35.4169 19.8805 35.3282 20.1039 35.3282C21.1977 35.3282 22.2367 35.3938 23.2648 35.4485C24.6695 35.5559 26.0791 35.5814 27.4867 35.525L52.643 34.1469C52.7536 34.1395 52.8646 34.154 52.9697 34.1896C53.0747 34.2252 53.1717 34.2812 53.255 34.3544C53.3383 34.4275 53.4064 34.5164 53.4553 34.616C53.5042 34.7155 53.5329 34.8237 53.5398 34.9344C53.549 35.1582 53.4708 35.3769 53.3219 35.5442C53.1729 35.7115 52.9648 35.8145 52.7414 35.8313L27.5523 37.1875L26.2508 37.2422Z" fill="url(#paint4_linear_159_148)"/>
<path d="M33.2051 50.4218C32.9943 50.4257 32.7902 50.3472 32.6363 50.203C30.5906 48.2623 28.9771 45.912 27.901 43.3056C26.8248 40.6992 26.3103 37.8951 26.391 35.0765C26.6234 29.2723 28.5681 23.6666 31.9801 18.9655C32.119 18.8098 32.3109 18.7112 32.5184 18.6889C32.7259 18.6666 32.9343 18.7221 33.1031 18.8447C33.272 18.9673 33.3894 19.1482 33.4325 19.3524C33.4756 19.5566 33.4413 19.7695 33.3363 19.9499C30.1544 24.3883 28.327 29.6539 28.0754 35.1093C27.9972 37.6874 28.4633 40.253 29.4433 42.6389C30.4232 45.0248 31.8951 47.1773 33.7629 48.9561C33.8457 49.03 33.9132 49.1194 33.9613 49.2194C34.0095 49.3193 34.0374 49.4278 34.0435 49.5386C34.0496 49.6494 34.0337 49.7603 33.9969 49.8649C33.96 49.9696 33.9028 50.0659 33.8285 50.1483C33.7502 50.2359 33.6541 50.3056 33.5465 50.3528C33.439 50.3999 33.3225 50.4235 33.2051 50.4218Z" fill="url(#paint5_linear_159_148)"/>
<path d="M40.8598 49.7656C40.667 49.7646 40.4808 49.6948 40.3348 49.5687C40.2476 49.5005 40.1749 49.4156 40.121 49.3189C40.067 49.2222 40.0329 49.1157 40.0207 49.0057C40.0085 48.8957 40.0184 48.7843 40.0498 48.6781C40.0812 48.572 40.1335 48.4731 40.2036 48.3875C43.1458 44.7343 44.2723 38.839 44.0973 34.6062C43.8786 29.7718 41.9098 24.0297 40.3458 20.0703C40.2616 19.8629 40.2634 19.6305 40.3505 19.4244C40.4377 19.2183 40.6032 19.0552 40.8106 18.9711C41.018 18.8869 41.2503 18.8886 41.4565 18.9758C41.6626 19.063 41.8257 19.2285 41.9098 19.4359C43.5504 23.5265 45.552 29.4547 45.7708 34.5297C45.9676 39.0797 44.677 45.4671 41.5161 49.4484C41.438 49.5476 41.3383 49.6278 41.2246 49.6828C41.1109 49.7377 40.9861 49.766 40.8598 49.7656Z" fill="url(#paint6_linear_159_148)"/>
<path d="M26.5547 18.6593C26.4089 18.6605 26.2654 18.6227 26.1391 18.55C26.0095 18.4765 25.9018 18.3699 25.8268 18.2412C25.7519 18.1124 25.7124 17.9661 25.7125 17.8172C25.7095 16.3553 25.4694 14.9037 25.0016 13.5187C24.6953 12.6 23.6781 9.72341 23.6672 9.70153C23.6239 9.59756 23.6016 9.48604 23.6016 9.37341C23.6016 9.26077 23.6239 9.14925 23.6672 9.04528C24.309 7.85878 25.2059 6.82939 26.2934 6.03126C27.3809 5.23313 28.6319 4.68613 29.9562 4.42966C31.4644 4.25466 32.9924 4.46541 34.3969 5.04216C35.2045 5.33018 36.0405 5.53183 36.8906 5.64372C37.9008 5.72082 38.9155 5.5724 39.8613 5.20921C40.8072 4.84602 41.6604 4.27714 42.3594 3.54372C42.4585 3.43477 42.5841 3.35333 42.724 3.30732C42.8639 3.26132 43.0134 3.25233 43.1578 3.28122C43.2955 3.3058 43.4251 3.36342 43.5356 3.44915C43.6461 3.53488 43.7342 3.64615 43.7922 3.77341C44.0419 4.40703 44.2323 5.06244 44.3609 5.73122L46.5484 15.6843C46.5876 15.8618 46.5682 16.0472 46.4933 16.2128C46.4184 16.3784 46.2919 16.5153 46.1328 16.6031C45.0888 17.188 43.9311 17.5415 42.7384 17.6396C41.5458 17.7377 40.3459 17.5782 39.2203 17.1718C38.7609 16.9968 38.3125 16.789 37.8969 16.5812C37.4512 16.3508 36.9908 16.1498 36.5187 15.9797C33.5328 14.9843 30.1859 16.6906 27.0031 18.539C26.8681 18.6209 26.7126 18.6626 26.5547 18.6593ZM25.3844 9.49372C25.6687 10.3031 26.3578 12.239 26.6094 12.9937C26.9822 14.0998 27.228 15.2446 27.3422 16.4062C30.4047 14.7109 33.8172 13.3 37.0437 14.3828C37.584 14.5716 38.1103 14.7982 38.6187 15.0609C39.0344 15.2578 39.4172 15.4437 39.8 15.5968C41.4146 16.1703 43.1876 16.1037 44.7547 15.4109L42.7094 6.1031C42.7094 5.93903 42.6437 5.77497 42.6 5.62185C40.9323 6.89574 38.8505 7.50391 36.7594 7.3281C35.7874 7.1987 34.831 6.9715 33.9047 6.64997C32.7623 6.16867 31.5187 5.97706 30.2844 6.09216C29.2762 6.28775 28.3198 6.69122 27.4761 7.27688C26.6325 7.86253 25.9201 8.61752 25.3844 9.49372Z" fill="url(#paint7_linear_159_148)"/>
<path d="M42.0009 14.9626C41.3878 14.9649 40.7796 14.8536 40.2071 14.6344C39.8341 14.4898 39.469 14.3255 39.1134 14.1423C38.5614 13.8605 37.9914 13.6157 37.4071 13.4094C36.5603 13.1289 35.6742 12.985 34.7821 12.9829C32.8181 13.0254 30.8876 13.4997 29.1274 14.3719C29.0149 14.4219 28.8928 14.4465 28.7697 14.4441C28.6466 14.4418 28.5255 14.4125 28.415 14.3582C28.3044 14.304 28.2071 14.2262 28.1299 14.1303C28.0527 14.0344 27.9974 13.9227 27.968 13.8032C27.8696 13.4204 27.7602 13.0376 27.629 12.7094L26.6884 10.0735C26.6395 9.93358 26.6279 9.78334 26.6547 9.63758C26.6816 9.49182 26.746 9.35557 26.8415 9.24225C27.777 8.13153 29.0675 7.3781 30.4946 7.10944C30.6762 7.08657 30.8599 7.08657 31.0415 7.10944C31.9194 7.17184 32.7845 7.35589 33.6118 7.65632C34.6021 7.99892 35.6245 8.24076 36.6634 8.37819C36.9113 8.37819 37.1628 8.37819 37.418 8.37819C38.6431 8.38833 39.8583 8.15793 40.9946 7.70007C41.1057 7.65996 41.2241 7.64398 41.3418 7.65321C41.4596 7.66243 41.574 7.69664 41.6775 7.75356C41.781 7.81048 41.8712 7.88881 41.942 7.98331C42.0128 8.07781 42.0627 8.18633 42.0884 8.30163L43.3134 13.9016C43.3391 14.0159 43.3407 14.1342 43.3181 14.2491C43.2955 14.3639 43.2492 14.4728 43.1821 14.5688C43.1111 14.6652 43.0211 14.746 42.9176 14.8062C42.8142 14.8664 42.6994 14.9047 42.5805 14.9188C42.3882 14.9431 42.1947 14.9577 42.0009 14.9626ZM34.6509 11.2985H34.7493C35.8204 11.2958 36.8846 11.4695 37.8993 11.8126C38.5561 12.04 39.1957 12.3141 39.8134 12.6329C40.1524 12.7969 40.4805 12.961 40.743 13.0594C40.9835 13.1483 41.2329 13.2106 41.4868 13.2454L40.6993 9.60319C39.6361 9.9271 38.5294 10.0857 37.418 10.0735C37.1193 10.0899 36.8199 10.0899 36.5212 10.0735C35.3627 9.93153 34.2226 9.66756 33.1196 9.286C32.4468 9.02577 31.7456 8.84588 31.0305 8.75007H30.8009C29.9061 8.91931 29.083 9.35375 28.4384 9.99694C28.7118 10.7844 29.018 11.6704 29.1712 12.1298C29.1712 12.2391 29.2477 12.3376 29.2805 12.4469C30.9797 11.7209 32.8034 11.3309 34.6509 11.2985Z" fill="url(#paint8_linear_159_148)"/>
<path d="M17.4325 54.447C17.315 54.4487 17.1986 54.4252 17.091 54.378C16.9835 54.3308 16.8873 54.2611 16.809 54.1735C12.7458 49.3069 10.6299 43.1073 10.87 36.772C11.4606 24.5001 15.4309 20.6501 18.3184 17.8392C18.7996 17.3689 19.259 16.9314 19.6418 16.4939C19.7872 16.3414 19.9838 16.2482 20.1938 16.232C20.4038 16.2159 20.6124 16.278 20.7793 16.4064C20.9467 16.5453 21.0538 16.7435 21.0783 16.9596C21.1027 17.1757 21.0426 17.3929 20.9106 17.5657C18.7231 20.5079 14.8731 29.7064 15.9887 37.6579C17.2246 46.4079 21.2278 49.6892 22.4309 50.5314C22.5504 50.6141 22.6472 50.7256 22.7122 50.8556C22.7772 50.9856 22.8083 51.1299 22.8028 51.2751C22.795 51.4206 22.7495 51.5616 22.6709 51.6843C22.5923 51.807 22.4833 51.9072 22.3543 51.9751L17.7825 54.3595C17.674 54.415 17.5543 54.4449 17.4325 54.447ZM16.6668 22.1923C14.72 24.8829 12.9371 29.0611 12.5543 36.8595C12.3832 42.5053 14.1812 48.0348 17.6403 52.5001L20.4512 51.0782C18.57 49.4048 15.4309 45.5439 14.3481 37.8767C13.5825 32.4298 14.9496 26.5673 16.6668 22.1923Z" fill="url(#paint9_linear_159_148)"/>
<path d="M20.9362 21.5029C20.7147 21.503 20.5021 21.4157 20.3445 21.2601C20.1869 21.1046 20.0969 20.8932 20.094 20.6717C20.0701 19.4158 20.1176 18.1597 20.2362 16.9092L16.3096 18.7904C16.212 18.8366 16.1062 18.8631 15.9983 18.8683C15.8904 18.8735 15.7826 18.8573 15.681 18.8207C15.5793 18.7842 15.4859 18.7279 15.4061 18.6551C15.3263 18.5823 15.2617 18.4945 15.2159 18.3967C15.1255 18.1991 15.1162 17.974 15.1898 17.7695C15.2634 17.5651 15.4141 17.3976 15.6096 17.3029L20.9034 14.7654C21.0408 14.6984 21.1939 14.67 21.3462 14.6834C21.4985 14.6968 21.6443 14.7513 21.768 14.8413C21.8916 14.9312 21.9885 15.0531 22.0481 15.1939C22.1077 15.3347 22.1279 15.489 22.1065 15.6404C21.8735 17.307 21.7711 18.9892 21.8002 20.6717C21.8004 20.8953 21.7139 21.1102 21.5589 21.2714C21.4039 21.4325 21.1924 21.5273 20.969 21.5358L20.9362 21.5029Z" fill="url(#paint10_linear_159_148)"/>
<path d="M26.2511 66.6421H26.0324C25.8985 66.605 25.7758 66.5358 25.6747 66.4405C25.5737 66.3452 25.4975 66.2267 25.4527 66.0952C25.2508 65.4434 25.1153 64.7728 25.048 64.0937L23.7246 53.9874C23.7036 53.8083 23.7399 53.6271 23.8283 53.4699C23.9167 53.3127 24.0527 53.1875 24.2167 53.1124C25.3056 52.6174 26.4878 52.3613 27.6839 52.3613C28.88 52.3613 30.0622 52.6174 31.1511 53.1124C31.5929 53.3208 32.0204 53.5583 32.4308 53.8234C32.8555 54.0833 33.2936 54.3206 33.7433 54.5343C36.6308 55.7812 40.1199 54.3484 43.4449 52.7843C43.5793 52.7205 43.7283 52.694 43.8764 52.7075C44.0246 52.7209 44.1664 52.7739 44.2871 52.8609C44.407 52.9451 44.5032 53.0587 44.5664 53.1909C44.6296 53.3231 44.6577 53.4693 44.648 53.6155C44.5277 55.0826 44.6422 56.5595 44.9871 57.9906C45.2167 58.9421 45.9933 61.8843 46.0042 61.9171C46.0316 62.0258 46.037 62.1389 46.0201 62.2497C46.0032 62.3605 45.9643 62.4668 45.9058 62.5624C45.1674 63.6904 44.1879 64.6404 43.038 65.344C41.888 66.0476 40.5962 66.4872 39.2558 66.6312C37.7379 66.6764 36.2331 66.3378 34.8808 65.6468C34.0966 65.2941 33.2797 65.0194 32.4417 64.8265C31.4399 64.6663 30.4151 64.7303 29.441 65.014C28.467 65.2977 27.568 65.794 26.8089 66.4671C26.6474 66.5854 26.4513 66.6469 26.2511 66.6421ZM39.0808 64.9249C40.106 64.8174 41.0975 64.4972 41.992 63.985C42.8866 63.4728 43.6645 62.7797 44.2761 61.9499C44.0574 61.1187 43.5324 59.128 43.3464 58.3515C43.0741 57.2155 42.931 56.0524 42.9199 54.8843C39.7152 56.3062 36.1933 57.4218 33.0761 56.0765C32.5537 55.8442 32.0492 55.5737 31.5667 55.2671C31.2147 55.0347 30.8495 54.8229 30.473 54.6327C28.916 53.923 27.1453 53.8407 25.5292 54.4031L26.7652 63.8531L26.8308 64.3452C28.5982 63.2148 30.7242 62.7857 32.7917 63.1421C33.7477 63.349 34.679 63.657 35.5699 64.0609C36.6557 64.6215 37.8588 64.9176 39.0808 64.9249Z" fill="url(#paint11_linear_159_148)"/>
<path d="M38.7194 63.9081H38.4241C37.5564 63.7587 36.7135 63.49 35.9194 63.1096C34.9598 62.6844 33.9593 62.3582 32.9335 62.1362L32.1897 62.0377C30.9666 61.9211 29.7326 62.0475 28.5585 62.4096C28.4425 62.4473 28.3197 62.4589 28.1987 62.4438C28.0778 62.4287 27.9616 62.3871 27.8585 62.3221C27.7565 62.2538 27.6698 62.1651 27.6039 62.0615C27.538 61.958 27.4943 61.8419 27.4757 61.7206L26.7319 56.0331C26.7189 55.916 26.7296 55.7976 26.7635 55.6849C26.7973 55.5721 26.8535 55.4673 26.9288 55.3768C27.0045 55.2847 27.0997 55.2105 27.2075 55.1594C27.3153 55.1083 27.433 55.0817 27.5522 55.0815C27.778 55.0653 28.0046 55.0653 28.2304 55.0815C28.84 55.1357 29.4358 55.2948 29.9913 55.5518C30.3194 55.7159 30.6694 55.9237 31.0304 56.1424C31.5576 56.4696 32.1056 56.7619 32.671 57.0174C33.4913 57.3712 34.3626 57.5927 35.2522 57.6737C37.2094 57.7883 39.1681 57.4786 40.9944 56.7659C41.1101 56.7217 41.2343 56.7047 41.3575 56.716C41.4808 56.7274 41.5998 56.7669 41.7054 56.8315C41.8121 56.8942 41.9037 56.9796 41.9736 57.0817C42.0435 57.1837 42.0901 57.3 42.1101 57.4221C42.1757 57.8049 42.2522 58.1987 42.3507 58.5924C42.4929 59.1831 42.8319 60.5065 43.0288 61.2502C43.0648 61.3934 43.0626 61.5436 43.0223 61.6857C42.982 61.8277 42.905 61.9567 42.7991 62.0596C41.7759 63.0911 40.4271 63.7365 38.9819 63.8862L38.7194 63.9081ZM31.3257 60.2987C31.6647 60.2987 32.0038 60.2987 32.3429 60.2987L33.2397 60.419C34.3677 60.6716 35.4671 61.038 36.521 61.5127C37.1677 61.8216 37.8514 62.0458 38.5554 62.1799H38.7851C39.6862 62.0899 40.5396 61.7318 41.2351 61.1518C41.0272 60.3424 40.7866 59.4346 40.6772 58.9643C40.6772 58.8549 40.6772 58.7456 40.6007 58.6362C38.816 59.2304 36.9312 59.4646 35.0554 59.3252C33.9911 59.233 32.9492 58.967 31.971 58.5377C31.3354 58.2589 30.7212 57.9335 30.1335 57.5643C29.8054 57.3674 29.4882 57.1815 29.2366 57.0612C29.0144 56.9743 28.7833 56.912 28.5476 56.8752L29.0288 60.5721C29.7824 60.3988 30.5525 60.3071 31.3257 60.2987Z" fill="url(#paint12_linear_159_148)"/>
<path d="M50.0065 55.6939C49.7862 55.692 49.5749 55.6059 49.4159 55.4533C49.2667 55.295 49.1836 55.0857 49.1836 54.8681C49.1836 54.6506 49.2667 54.4413 49.4159 54.283C51.8659 51.5377 56.4706 42.7002 55.9784 34.683C55.4862 25.8236 51.7784 22.2142 50.6409 21.3174C50.5268 21.2257 50.4385 21.1059 50.3848 20.9697C50.3311 20.8335 50.3138 20.6857 50.3347 20.5408C50.3573 20.3953 50.4163 20.2579 50.5061 20.1413C50.596 20.0247 50.7138 19.9326 50.8487 19.8736L55.5956 17.883C55.7677 17.8142 55.9574 17.8026 56.1366 17.8499C56.3158 17.8971 56.4751 18.0008 56.5909 18.1455C60.2072 23.3453 61.7661 29.7016 60.9659 35.9846C59.4128 48.1252 55.1362 51.6689 52.0081 54.2283C51.494 54.6549 51.0018 55.0596 50.5862 55.4533C50.43 55.6033 50.2231 55.6892 50.0065 55.6939ZM52.7081 20.9236C54.4362 22.7502 57.2472 26.8736 57.6628 34.5955C57.969 40.0642 56.1097 45.8174 54.0315 50.0283C56.219 47.5127 58.33 43.4658 59.369 35.8096C60.0355 30.1641 58.7127 24.4629 55.6284 19.6877L52.7081 20.9236Z" fill="url(#paint13_linear_159_148)"/>
<path d="M48.8991 57.1594C48.6935 57.1635 48.4941 57.0892 48.3413 56.9516C48.2258 56.8526 48.1401 56.7235 48.0937 56.5786C48.0474 56.4338 48.0422 56.2789 48.0788 56.1313C48.4482 54.4896 48.6931 52.8223 48.8116 51.1438C48.8261 50.9204 48.9287 50.712 49.0969 50.5643C49.2651 50.4166 49.4851 50.3418 49.7085 50.3563C49.9318 50.3708 50.1403 50.4734 50.288 50.6416C50.4357 50.8098 50.5105 51.0298 50.496 51.2531C50.4106 52.5043 50.2536 53.7496 50.0257 54.9828L54.0944 53.4406C54.1985 53.4003 54.3095 53.3811 54.4211 53.3841C54.5326 53.387 54.6425 53.4122 54.7442 53.458C54.846 53.5037 54.9377 53.5693 55.0139 53.6508C55.0901 53.7324 55.1493 53.8282 55.1882 53.9328C55.2319 54.0359 55.2541 54.1468 55.2533 54.2587C55.2526 54.3706 55.229 54.4812 55.1839 54.5837C55.1388 54.6862 55.0732 54.7783 54.9912 54.8545C54.9092 54.9306 54.8124 54.9892 54.7069 55.0266L49.2382 57.1156C49.1304 57.1576 49.014 57.1726 48.8991 57.1594Z" fill="url(#paint14_linear_159_148)"/>
<defs>
<linearGradient id="paint0_linear_159_148" x1="44.8491" y1="61.0683" x2="5.93689" y2="51.3389" gradientUnits="userSpaceOnUse">
<stop stop-color="#FD4C69"/>
<stop offset="0.363056" stop-color="#DB082B" stop-opacity="0.8"/>
<stop offset="0.755208" stop-color="#FD4C69"/>
</linearGradient>
<linearGradient id="paint1_linear_159_148" x1="36.946" y1="60.5493" x2="33.8466" y2="60.4892" gradientUnits="userSpaceOnUse">
<stop stop-color="#FD4C69"/>
<stop offset="0.363056" stop-color="#DB082B" stop-opacity="0.8"/>
<stop offset="0.755208" stop-color="#FD4C69"/>
</linearGradient>
<linearGradient id="paint2_linear_159_148" x1="41.4983" y1="29.116" x2="27.2801" y2="15.5254" gradientUnits="userSpaceOnUse">
<stop stop-color="#FD4C69"/>
<stop offset="0.363056" stop-color="#DB082B" stop-opacity="0.8"/>
<stop offset="0.755208" stop-color="#FD4C69"/>
</linearGradient>
<linearGradient id="paint3_linear_159_148" x1="41.7205" y1="48.4555" x2="30.4486" y2="35.0369" gradientUnits="userSpaceOnUse">
<stop stop-color="#FD4C69"/>
<stop offset="0.363056" stop-color="#DB082B" stop-opacity="0.8"/>
<stop offset="0.755208" stop-color="#FD4C69"/>
</linearGradient>
<linearGradient id="paint4_linear_159_148" x1="44.8513" y1="38.2151" x2="39.6894" y2="24.5313" gradientUnits="userSpaceOnUse">
<stop stop-color="#FD4C69"/>
<stop offset="0.363056" stop-color="#DB082B" stop-opacity="0.8"/>
<stop offset="0.755208" stop-color="#FD4C69"/>
</linearGradient>
<linearGradient id="paint5_linear_159_148" x1="32.1026" y1="60.3908" x2="22.8715" y2="59.8571" gradientUnits="userSpaceOnUse">
<stop stop-color="#FD4C69"/>
<stop offset="0.363056" stop-color="#DB082B" stop-opacity="0.8"/>
<stop offset="0.755208" stop-color="#FD4C69"/>
</linearGradient>
<linearGradient id="paint6_linear_159_148" x1="44.3264" y1="59.4577" x2="37.36" y2="59.1454" gradientUnits="userSpaceOnUse">
<stop stop-color="#FD4C69"/>
<stop offset="0.363056" stop-color="#DB082B" stop-opacity="0.8"/>
<stop offset="0.755208" stop-color="#FD4C69"/>
</linearGradient>
<linearGradient id="paint7_linear_159_148" x1="40.7464" y1="23.4951" x2="16.1273" y2="14.698" gradientUnits="userSpaceOnUse">
<stop stop-color="#FD4C69"/>
<stop offset="0.363056" stop-color="#DB082B" stop-opacity="0.8"/>
<stop offset="0.755208" stop-color="#FD4C69"/>
</linearGradient>
<linearGradient id="paint8_linear_159_148" x1="39.1023" y1="17.4347" x2="23.063" y2="9.28609" gradientUnits="userSpaceOnUse">
<stop stop-color="#FD4C69"/>
<stop offset="0.363056" stop-color="#DB082B" stop-opacity="0.8"/>
<stop offset="0.755208" stop-color="#FD4C69"/>
</linearGradient>
<linearGradient id="paint9_linear_159_148" x1="19.7738" y1="66.4513" x2="5.40673" y2="65.3751" gradientUnits="userSpaceOnUse">
<stop stop-color="#FD4C69"/>
<stop offset="0.363056" stop-color="#DB082B" stop-opacity="0.8"/>
<stop offset="0.755208" stop-color="#FD4C69"/>
</linearGradient>
<linearGradient id="paint10_linear_159_148" x1="20.3469" y1="23.6891" x2="12.3889" y2="21.75" gradientUnits="userSpaceOnUse">
<stop stop-color="#FD4C69"/>
<stop offset="0.363056" stop-color="#DB082B" stop-opacity="0.8"/>
<stop offset="0.755208" stop-color="#FD4C69"/>
</linearGradient>
<linearGradient id="paint11_linear_159_148" x1="40.3741" y1="71.1281" x2="16.7168" y2="62.2755" gradientUnits="userSpaceOnUse">
<stop stop-color="#FD4C69"/>
<stop offset="0.363056" stop-color="#DB082B" stop-opacity="0.8"/>
<stop offset="0.755208" stop-color="#FD4C69"/>
</linearGradient>
<linearGradient id="paint12_linear_159_148" x1="38.9154" y1="66.6843" x2="22.4096" y2="59.381" gradientUnits="userSpaceOnUse">
<stop stop-color="#FD4C69"/>
<stop offset="0.363056" stop-color="#DB082B" stop-opacity="0.8"/>
<stop offset="0.755208" stop-color="#FD4C69"/>
</linearGradient>
<linearGradient id="paint13_linear_159_148" x1="58.1323" y1="67.5898" x2="43.7245" y2="66.4975" gradientUnits="userSpaceOnUse">
<stop stop-color="#FD4C69"/>
<stop offset="0.363056" stop-color="#DB082B" stop-opacity="0.8"/>
<stop offset="0.755208" stop-color="#FD4C69"/>
</linearGradient>
<linearGradient id="paint14_linear_159_148" x1="53.4286" y1="59.3029" x2="45.251" y2="57.2323" gradientUnits="userSpaceOnUse">
<stop stop-color="#FD4C69"/>
<stop offset="0.363056" stop-color="#DB082B" stop-opacity="0.8"/>
<stop offset="0.755208" stop-color="#FD4C69"/>
</linearGradient>
</defs>
</svg>
